<?xml version="1.0" encoding="UTF-8"?>
<!DOCTYPE svg PUBLIC "-//W3C//DTD SVG 1.1//EN" "http://www.w3.org/Graphics/SVG/1.1/DTD/svg11.dtd">
<svg xmlns="http://www.w3.org/2000/svg" version="1.1" width="890px" height="550px" style="shape-rendering:geometricPrecision; text-rendering:geometricPrecision; image-rendering:optimizeQuality; fill-rule:evenodd; clip-rule:evenodd" xmlns:xlink="http://www.w3.org/1999/xlink">
<g><path style="opacity:0.32" fill="#929292" d="M 409.5,60.5 C 408.791,61.404 407.791,61.7373 406.5,61.5C 400.29,61.7205 394.29,61.7205 388.5,61.5C 395.719,59.2542 402.719,58.9209 409.5,60.5 Z"/></g>
<g><path style="opacity:0.369" fill="#656364" d="M 409.5,60.5 C 411.099,60.2322 412.432,60.5655 413.5,61.5C 412.209,61.2627 411.209,61.596 410.5,62.5C 408.901,62.7678 407.568,62.4345 406.5,61.5C 407.791,61.7373 408.791,61.404 409.5,60.5 Z"/></g>
<g><path style="opacity:0.353" fill="#afadae" d="M 386.5,62.5 C 386.938,62.4346 387.272,62.6012 387.5,63C 385.919,63.7065 384.419,64.5399 383,65.5C 382.536,64.9056 382.369,64.2389 382.5,63.5C 383.708,62.7659 385.041,62.4326 386.5,62.5 Z"/></g>
<g><path style="opacity:1" fill="#242021" d="M 386.5,62.5 C 386.842,61.6618 387.508,61.3284 388.5,61.5C 394.29,61.7205 400.29,61.7205 406.5,61.5C 407.568,62.4345 408.901,62.7678 410.5,62.5C 414.85,63.3704 419.183,64.3704 423.5,65.5C 424.726,65.4805 425.726,65.1471 426.5,64.5C 428.099,64.2322 429.432,64.5655 430.5,65.5C 429.448,65.3505 428.448,65.5172 427.5,66C 435.536,67.4243 443.202,69.9243 450.5,73.5C 451.298,73.0431 451.631,72.3764 451.5,71.5C 453.389,72.604 455.055,73.9373 456.5,75.5C 455.761,75.369 455.094,75.5357 454.5,76C 457.441,81.9656 456.108,86.799 450.5,90.5C 432.471,100.564 413.138,106.731 392.5,109C 387.626,110.262 383.626,112.762 380.5,116.5C 377.015,119.429 375.348,123.263 375.5,128C 375.524,135.797 378.524,142.13 384.5,147C 391.751,151.877 399.251,156.377 407,160.5C 407.858,171.283 407.358,181.949 405.5,192.5C 395.75,188.46 386.083,184.127 376.5,179.5C 368.857,175.007 361.524,170.007 354.5,164.5C 351.538,161.036 348.371,157.703 345,154.5C 328.103,129.944 331.603,108.778 355.5,91C 363.749,82.102 372.415,73.7687 381.5,66C 381.272,65.6012 380.938,65.4346 380.5,65.5C 380.833,64.5 381.5,63.8333 382.5,63.5C 382.369,64.2389 382.536,64.9056 383,65.5C 384.419,64.5399 385.919,63.7065 387.5,63C 387.272,62.6012 386.938,62.4346 386.5,62.5 Z M 399.5,74.5 C 399.917,73.8761 400.584,73.5427 401.5,73.5C 405.888,74.0896 410.221,74.923 414.5,76C 411.809,76.5095 409.309,77.3428 407,78.5C 406.329,77.7476 405.496,77.4142 404.5,77.5C 402.78,76.6923 401.113,75.6923 399.5,74.5 Z"/></g>
<g><path style="opacity:0.239" fill="#b5b3b4" d="M 410.5,62.5 C 411.209,61.596 412.209,61.2627 413.5,61.5C 417.88,62.2934 422.214,63.2934 426.5,64.5C 425.726,65.1471 424.726,65.4805 423.5,65.5C 419.183,64.3704 414.85,63.3704 410.5,62.5 Z"/></g>
<g><path style="opacity:0.345" fill="#929192" d="M 430.5,65.5 C 437.846,66.4186 444.846,68.4186 451.5,71.5C 451.631,72.3764 451.298,73.0431 450.5,73.5C 443.202,69.9243 435.536,67.4243 427.5,66C 428.448,65.5172 429.448,65.3505 430.5,65.5 Z"/></g>
<g><path style="opacity:0.102" fill="#bebdbd" d="M 404.5,77.5 C 405.496,77.4142 406.329,77.7476 407,78.5C 409.309,77.3428 411.809,76.5095 414.5,76C 410.221,74.923 405.888,74.0896 401.5,73.5C 400.584,73.5427 399.917,73.8761 399.5,74.5C 399.631,75.2389 399.464,75.9056 399,76.5C 397.954,74.9095 396.787,73.4095 395.5,72C 405.202,72.755 414.869,74.0883 424.5,76C 417.338,78.4339 410.004,79.4339 402.5,79C 402.167,78.6667 401.833,78.3333 401.5,78C 402.448,77.5172 403.448,77.3505 404.5,77.5 Z"/></g>
<g><path style="opacity:0.376" fill="#8e8e8e" d="M 456.5,75.5 C 459.836,81.8622 458.17,87.1955 451.5,91.5C 451.5,90.8333 451.167,90.5 450.5,90.5C 456.108,86.799 457.441,81.9656 454.5,76C 455.094,75.5357 455.761,75.369 456.5,75.5 Z"/></g>
<g><path style="opacity:0.12" fill="#cbcbcb" d="M 485.5,104.5 C 482.167,105.833 478.833,105.833 475.5,104.5C 478.733,104.433 482.067,104.433 485.5,104.5 Z"/></g>
<g><path style="opacity:0.146" fill="#adabab" d="M 471.5,105.5 C 472.791,105.263 473.791,105.596 474.5,106.5C 469.859,107.127 465.193,107.46 460.5,107.5C 459.933,106.58 460.599,106.246 462.5,106.5C 465.391,105.597 468.391,105.264 471.5,105.5 Z"/></g>
<g><path style="opacity:0.349" fill="#828181" d="M 471.5,105.5 C 472.568,104.566 473.901,104.232 475.5,104.5C 478.833,105.833 482.167,105.833 485.5,104.5C 495.964,104.531 505.631,107.198 514.5,112.5C 514.631,113.239 514.464,113.906 514,114.5C 501.722,107.702 488.555,105.035 474.5,106.5C 473.791,105.596 472.791,105.263 471.5,105.5 Z"/></g>
<g><path style="opacity:0.026" fill="#bab9ba" d="M 450.5,90.5 C 451.167,90.5 451.5,90.8333 451.5,91.5C 447.424,94.2665 443.091,96.7665 438.5,99C 426.742,103.276 414.742,106.942 402.5,110C 404.373,111.704 406.04,113.537 407.5,115.5C 407.5,116.167 407.5,116.833 407.5,117.5C 404.997,115.167 402.331,113.001 399.5,111C 396.036,110.183 392.702,110.517 389.5,112C 394.288,112.891 398.288,115.058 401.5,118.5C 401.167,118.5 400.833,118.5 400.5,118.5C 396.4,116.127 392.067,114.127 387.5,112.5C 385.019,113.72 383.019,115.386 381.5,117.5C 380.833,117.5 380.5,117.167 380.5,116.5C 383.626,112.762 387.626,110.262 392.5,109C 413.138,106.731 432.471,100.564 450.5,90.5 Z"/></g>
<g><path style="opacity:0.353" fill="#979696" d="M 380.5,65.5 C 380.938,65.4346 381.272,65.6012 381.5,66C 372.415,73.7687 363.749,82.102 355.5,91C 331.603,108.778 328.103,129.944 345,154.5C 348.371,157.703 351.538,161.036 354.5,164.5C 353.833,164.833 353.167,165.167 352.5,165.5C 346.693,159.224 341.36,152.557 336.5,145.5C 334.524,140.26 332.857,134.927 331.5,129.5C 329.183,131.242 327.683,133.576 327,136.5C 311.529,144.793 301.862,157.46 298,174.5C 285.564,181.284 277.564,191.617 274,205.5C 272.278,211.718 271.278,218.051 271,224.5C 265.579,231.58 260.579,238.914 256,246.5C 251.909,256.08 251.576,265.746 255,275.5C 258.9,279.4 262.733,283.233 266.5,287C 263.672,291.462 261.672,296.296 260.5,301.5C 271.257,302.878 280.591,307.545 288.5,315.5C 289.216,317.482 290.383,319.149 292,320.5C 294.45,319.358 296.95,318.358 299.5,317.5C 300.873,317.343 302.207,317.51 303.5,318C 299.206,318.819 295.206,320.319 291.5,322.5C 287.71,318.208 283.71,314.042 279.5,310C 273.343,306.294 266.676,304.794 259.5,305.5C 259.5,306.5 259.5,307.5 259.5,308.5C 258.833,308.5 258.167,308.5 257.5,308.5C 257.625,300.79 259.959,293.79 264.5,287.5C 257.553,282.727 252.72,276.394 250,268.5C 249.333,265.167 249.333,261.833 250,258.5C 251.833,251.831 254.5,245.498 258,239.5C 261.667,234.167 265.333,228.833 269,223.5C 269.081,208.357 273.914,195.024 283.5,183.5C 285.833,181.833 287.833,179.833 289.5,177.5C 291.473,176.513 293.473,175.513 295.5,174.5C 296.672,166.824 299.505,159.824 304,153.5C 310.117,146.377 317.117,140.377 325,135.5C 326.572,131.359 328.905,127.692 332,124.5C 334.476,117.403 333.143,116.737 328,122.5C 325.457,125.749 323.291,129.249 321.5,133C 306.296,141.273 296.796,153.773 293,170.5C 291.385,171.386 289.885,172.386 288.5,173.5C 288.5,172.833 288.5,172.167 288.5,171.5C 289.458,171.047 290.292,170.381 291,169.5C 293.747,157.294 299.913,147.128 309.5,139C 316.341,135.493 321.507,130.326 325,123.5C 327.731,120.038 330.897,117.038 334.5,114.5C 336.813,109.207 339.646,104.207 343,99.5C 353.291,90.3764 363.124,80.7097 372.5,70.5C 374.887,68.3107 377.553,66.6441 380.5,65.5 Z"/></g>
<g><path style="opacity:0.358" fill="#8c8b8b" d="M 407.5,115.5 C 411.95,120.978 414.783,127.312 416,134.5C 415.372,147.887 414.872,161.22 414.5,174.5C 413.199,170.063 412.533,165.397 412.5,160.5C 414.129,151.561 414.629,142.561 414,133.5C 412.638,127.785 410.471,122.451 407.5,117.5C 407.5,116.833 407.5,116.167 407.5,115.5 Z"/></g>
<g><path style="opacity:0.976" fill="#2a2828" d="M 289.5,177.5 C 288.022,177.762 286.689,177.429 285.5,176.5C 286.77,175.712 287.77,174.712 288.5,173.5C 289.885,172.386 291.385,171.386 293,170.5C 296.796,153.773 306.296,141.273 321.5,133C 323.291,129.249 325.457,125.749 328,122.5C 333.143,116.737 334.476,117.403 332,124.5C 328.905,127.692 326.572,131.359 325,135.5C 317.117,140.377 310.117,146.377 304,153.5C 299.505,159.824 296.672,166.824 295.5,174.5C 293.473,175.513 291.473,176.513 289.5,177.5 Z"/></g>
<g><path style="opacity:0.086" fill="#888787" d="M 520.5,117.5 C 524.94,121.031 528.44,125.364 531,130.5C 546.22,140.208 556.72,153.542 562.5,170.5C 561.721,172.927 560.554,172.927 559,170.5C 556.191,158.345 550.024,148.178 540.5,140C 537.264,137.132 533.764,134.632 530,132.5C 527.393,127.626 524.06,123.292 520,119.5C 519.308,118.563 519.475,117.897 520.5,117.5 Z"/></g>
<g><path style="opacity:1" fill="#2a2728" d="M 407.5,117.5 C 410.471,122.451 412.638,127.785 414,133.5C 414.629,142.561 414.129,151.561 412.5,160.5C 412.533,165.397 413.199,170.063 414.5,174.5C 414.542,176.854 414.542,179.188 414.5,181.5C 412.326,188.142 410.326,194.975 408.5,202C 420.77,221.102 424.603,241.936 420,264.5C 417.289,275.963 413.789,287.13 409.5,298C 410.815,302.107 411.815,306.274 412.5,310.5C 411.312,311.684 410.145,311.684 409,310.5C 407.636,305.508 406.469,300.508 405.5,295.5C 416.299,273.752 419.799,250.752 416,226.5C 413.893,217.613 409.727,209.947 403.5,203.5C 403.685,202.416 404.018,201.416 404.5,200.5C 406.081,198.858 406.747,196.858 406.5,194.5C 407.856,191.423 408.689,188.09 409,184.5C 409.717,175.483 409.55,166.483 408.5,157.5C 410.287,149.243 410.787,140.909 410,132.5C 408.541,126.902 405.708,122.235 401.5,118.5C 398.288,115.058 394.288,112.891 389.5,112C 392.702,110.517 396.036,110.183 399.5,111C 402.331,113.001 404.997,115.167 407.5,117.5 Z"/></g>
<g><path style="opacity:0.457" fill="#abaaaa" d="M 352.5,165.5 C 353.167,165.167 353.833,164.833 354.5,164.5C 361.524,170.007 368.857,175.007 376.5,179.5C 371.424,178.116 366.757,175.783 362.5,172.5C 360.135,173.822 357.802,173.822 355.5,172.5C 356.952,171.698 358.618,171.198 360.5,171C 359.833,170.333 359.167,169.667 358.5,169C 351.83,167.667 345.663,165.167 340,161.5C 339.5,161.833 339,162.167 338.5,162.5C 342.477,167.317 347.477,170.317 353.5,171.5C 349.457,171.554 345.457,170.388 341.5,168C 336.378,165.997 335.378,162.83 338.5,158.5C 343.162,160.831 347.829,163.164 352.5,165.5 Z"/></g>
<g><path style="opacity:0.996" fill="#2d2b2b" d="M 355.5,172.5 C 354.833,172.167 354.167,171.833 353.5,171.5C 347.477,170.317 342.477,167.317 338.5,162.5C 339,162.167 339.5,161.833 340,161.5C 345.663,165.167 351.83,167.667 358.5,169C 359.167,169.667 359.833,170.333 360.5,171C 358.618,171.198 356.952,171.698 355.5,172.5 Z"/></g>
<g><path style="opacity:0.922" fill="#424041" d="M 288.5,171.5 C 288.5,172.167 288.5,172.833 288.5,173.5C 287.77,174.712 286.77,175.712 285.5,176.5C 286.689,177.429 288.022,177.762 289.5,177.5C 287.833,179.833 285.833,181.833 283.5,183.5C 282.828,182.733 281.995,182.066 281,181.5C 278.91,184.428 276.41,186.761 273.5,188.5C 277.471,181.866 282.471,176.199 288.5,171.5 Z"/></g>
<g><path style="opacity:0.024" fill="#959495" d="M 326.5,181.5 C 326.631,182.239 326.464,182.906 326,183.5C 324.815,181.441 323.648,181.274 322.5,183C 324.898,188.346 328.898,191.513 334.5,192.5C 333.508,192.328 332.842,192.662 332.5,193.5C 327.741,192.253 323.908,189.587 321,185.5C 320.242,183.231 320.409,181.064 321.5,179C 323.668,178.751 325.335,179.584 326.5,181.5 Z"/></g>
<g><path style="opacity:0.99" fill="#2d2a2b" d="M 326.5,181.5 C 328.167,182.5 329.5,183.833 330.5,185.5C 329.262,185.81 329.262,186.31 330.5,187C 332.087,187.862 333.754,188.529 335.5,189C 343.244,189.267 350.911,190.1 358.5,191.5C 367.175,193.604 374.175,190.937 379.5,183.5C 381.496,182.312 382.329,182.979 382,185.5C 377.531,192.652 371.031,195.985 362.5,195.5C 359.145,195.276 355.812,194.943 352.5,194.5C 351.391,193.71 350.058,193.21 348.5,193C 343.845,192.501 339.179,192.334 334.5,192.5C 328.898,191.513 324.898,188.346 322.5,183C 323.648,181.274 324.815,181.441 326,183.5C 326.464,182.906 326.631,182.239 326.5,181.5 Z"/></g>
<g><path style="opacity:0.058" fill="#adabac" d="M 330.5,185.5 C 332.746,185.936 334.913,186.603 337,187.5C 341.272,187.702 345.606,187.702 350,187.5C 355.219,189.274 360.385,190.274 365.5,190.5C 363.393,191.468 361.059,191.802 358.5,191.5C 350.911,190.1 343.244,189.267 335.5,189C 333.754,188.529 332.087,187.862 330.5,187C 329.262,186.31 329.262,185.81 330.5,185.5 Z"/></g>
<g><path style="opacity:0.365" fill="#9c9a9b" d="M 380.5,116.5 C 380.5,117.167 380.833,117.5 381.5,117.5C 378.609,122.043 377.776,127.043 379,132.5C 382.638,129.263 386.805,126.93 391.5,125.5C 396.573,127.642 396.573,130.142 391.5,133C 387.029,134.237 383.696,136.903 381.5,141C 388.978,147.241 396.978,152.741 405.5,157.5C 410.663,143.567 408.996,130.567 400.5,118.5C 400.833,118.5 401.167,118.5 401.5,118.5C 405.708,122.235 408.541,126.902 410,132.5C 410.787,140.909 410.287,149.243 408.5,157.5C 409.55,166.483 409.717,175.483 409,184.5C 408.689,188.09 407.856,191.423 406.5,194.5C 406.672,193.508 406.338,192.842 405.5,192.5C 407.358,181.949 407.858,171.283 407,160.5C 399.251,156.377 391.751,151.877 384.5,147C 378.524,142.13 375.524,135.797 375.5,128C 375.348,123.263 377.015,119.429 380.5,116.5 Z"/></g>
<g><path style="opacity:0.985" fill="#2f2d2d" d="M 389.5,127.5 C 390.5,127.5 391.5,127.5 392.5,127.5C 392.67,128.822 392.337,129.989 391.5,131C 387.148,132.523 383.481,135.023 380.5,138.5C 379.386,137.277 379.219,135.944 380,134.5C 382.79,131.535 385.957,129.202 389.5,127.5 Z"/></g>
<g><path style="opacity:0.129" fill="#b7b6b6" d="M 376.5,179.5 C 386.083,184.127 395.75,188.46 405.5,192.5C 406.338,192.842 406.672,193.508 406.5,194.5C 406.747,196.858 406.081,198.858 404.5,200.5C 402.62,200.229 401.287,200.896 400.5,202.5C 390.95,212.949 379.617,220.949 366.5,226.5C 365.537,226.03 365.537,225.363 366.5,224.5C 374.915,220.455 382.915,215.621 390.5,210C 394.655,205.679 398.988,201.512 403.5,197.5C 404.614,196.277 404.781,194.944 404,193.5C 398.023,190.429 391.857,187.762 385.5,185.5C 376.581,196.477 365.581,199.477 352.5,194.5C 355.812,194.943 359.145,195.276 362.5,195.5C 371.031,195.985 377.531,192.652 382,185.5C 382.329,182.979 381.496,182.312 379.5,183.5C 378.833,183.5 378.167,183.5 377.5,183.5C 377.167,182.167 376.833,180.833 376.5,179.5 Z"/></g>
<g><path style="opacity:0.51" fill="#989697" d="M 462.5,106.5 C 460.599,106.246 459.933,106.58 460.5,107.5C 447.414,111.759 439.914,120.759 438,134.5C 439.594,150.119 439.927,165.786 439,181.5C 439.002,188.672 440.502,195.505 443.5,202C 432.528,217.055 428.361,233.889 431,252.5C 431.742,268.473 435.742,283.473 443,297.5C 444.158,297.002 444.991,296.169 445.5,295C 438.706,279.195 435.039,262.695 434.5,245.5C 433.395,229.483 438.061,215.483 448.5,203.5C 445.959,198.044 444.125,192.377 443,186.5C 442.245,176.812 442.411,167.146 443.5,157.5C 441.539,148.941 441.039,140.274 442,131.5C 445.129,121.536 451.629,115.202 461.5,112.5C 461.5,112.833 461.5,113.167 461.5,113.5C 448.717,118.695 442.717,128.361 443.5,142.5C 443.973,145.813 443.973,148.979 443.5,152C 444.43,153.194 445.097,154.527 445.5,156C 445.313,157.891 444.979,159.725 444.5,161.5C 443.836,164.146 443.502,166.979 443.5,170C 443.519,173.252 444.186,176.085 445.5,178.5C 463.267,187.551 480.267,197.885 496.5,209.5C 496.631,210.239 496.464,210.906 496,211.5C 479.666,200.162 462.666,189.829 445,180.5C 444.713,188.52 446.547,196.02 450.5,203C 448.108,205.728 446.108,208.728 444.5,212C 446.665,214.331 448.999,216.498 451.5,218.5C 448.622,217.63 445.955,216.297 443.5,214.5C 439.79,221.335 437.623,228.668 437,236.5C 435.803,255.988 439.137,274.655 447,292.5C 447.561,293.022 448.228,293.355 449,293.5C 455.917,290.627 462.084,286.627 467.5,281.5C 465.414,268 469.747,257 480.5,248.5C 476.375,239.896 470.209,233.229 462,228.5C 458.965,231.737 457.132,235.57 456.5,240C 457.591,242.064 457.758,244.231 457,246.5C 453.583,248.133 451.25,247.133 450,243.5C 449.696,236.244 451.53,229.578 455.5,223.5C 456.222,223.082 456.722,222.416 457,221.5C 469.489,228.822 478.489,239.155 484,252.5C 484.726,257.239 484.393,261.905 483,266.5C 477.518,275.648 470.352,283.148 461.5,289C 449.232,295.967 436.565,302.134 423.5,307.5C 422.537,307.03 422.537,306.363 423.5,305.5C 429.518,303.604 435.185,300.937 440.5,297.5C 426.942,269.854 425.108,241.521 435,212.5C 436.939,209.053 439.106,205.719 441.5,202.5C 436.61,188.009 435.277,173.176 437.5,158C 432.203,140.058 435.869,124.391 448.5,111C 452.874,107.705 457.54,106.205 462.5,106.5 Z M 480.5,257.5 C 481.586,257.62 482.253,258.287 482.5,259.5C 481.887,265.354 479.554,270.354 475.5,274.5C 474.518,268.108 476.184,262.441 480.5,257.5 Z"/></g>
<g><path style="opacity:0.322" fill="#8d8b8c" d="M 377.5,183.5 C 378.167,183.5 378.833,183.5 379.5,183.5C 374.175,190.937 367.175,193.604 358.5,191.5C 361.059,191.802 363.393,191.468 365.5,190.5C 367.29,189.474 369.623,188.641 372.5,188C 374.362,186.634 376.028,185.134 377.5,183.5 Z"/></g>
<g><path style="opacity:0.029" fill="#cfcece" d="M 332.5,193.5 C 332.842,192.662 333.508,192.328 334.5,192.5C 339.179,192.334 343.845,192.501 348.5,193C 350.058,193.21 351.391,193.71 352.5,194.5C 345.798,194.664 339.131,194.331 332.5,193.5 Z"/></g>
<g><path style="opacity:1" fill="#242021" d="M 496.5,209.5 C 497.5,209.833 498.167,210.5 498.5,211.5C 497.227,212.077 497.227,212.743 498.5,213.5C 504.878,218.886 511.211,224.219 517.5,229.5C 520.152,233.482 523.152,237.149 526.5,240.5C 534.99,254.498 535.657,268.832 528.5,283.5C 519.272,294.392 508.272,303.059 495.5,309.5C 494.29,309.932 493.29,310.599 492.5,311.5C 467.008,323.746 441.675,336.246 416.5,349C 412.247,351.71 408.08,354.543 404,357.5C 403.505,359.473 403.338,361.473 403.5,363.5C 405.728,368.23 408.895,372.23 413,375.5C 414.077,384.936 412.244,393.769 407.5,402C 403.472,400.49 399.472,398.657 395.5,396.5C 390.335,392.414 384.668,389.08 378.5,386.5C 376.664,384.412 374.331,383.079 371.5,382.5C 366.934,379.443 362.767,375.776 359,371.5C 355.214,364.824 354.714,357.99 357.5,351C 356.906,350.536 356.239,350.369 355.5,350.5C 355.5,349.833 355.833,349.5 356.5,349.5C 358.988,348.26 360.821,346.26 362,343.5C 374.431,332.038 388.264,322.705 403.5,315.5C 407.589,314.291 411.589,312.791 415.5,311C 418.109,310.136 419.775,308.97 420.5,307.5C 420.973,306.094 421.973,305.427 423.5,305.5C 422.537,306.363 422.537,307.03 423.5,307.5C 436.565,302.134 449.232,295.967 461.5,289C 470.352,283.148 477.518,275.648 483,266.5C 484.393,261.905 484.726,257.239 484,252.5C 478.489,239.155 469.489,228.822 457,221.5C 456.722,222.416 456.222,223.082 455.5,223.5C 455.5,222.833 455.5,222.167 455.5,221.5C 454.738,219.738 453.404,218.738 451.5,218.5C 448.999,216.498 446.665,214.331 444.5,212C 446.108,208.728 448.108,205.728 450.5,203C 446.547,196.02 444.713,188.52 445,180.5C 462.666,189.829 479.666,200.162 496,211.5C 496.464,210.906 496.631,210.239 496.5,209.5 Z"/></g>
<g><path style="opacity:0.024" fill="#908f90" d="M 272.5,189.5 C 273.239,189.369 273.906,189.536 274.5,190C 268.527,199.984 265.361,210.817 265,222.5C 260.035,230.142 254.868,237.475 249.5,244.5C 253.225,236.721 257.725,229.388 263,222.5C 263.415,210.613 266.582,199.613 272.5,189.5 Z"/></g>
<g><path style="opacity:1" fill="#2c292a" d="M 400.5,202.5 C 401.598,203.601 401.765,204.934 401,206.5C 397.651,210.016 394.151,213.349 390.5,216.5C 395.158,220.325 399.324,224.658 403,229.5C 405.447,234.685 405.947,240.018 404.5,245.5C 403.675,246.386 402.675,246.719 401.5,246.5C 403.744,235.453 400.077,227.119 390.5,221.5C 389.626,220.475 388.459,219.808 387,219.5C 379.208,224.313 371.041,228.48 362.5,232C 357.637,233.673 352.637,234.506 347.5,234.5C 341.142,233.914 334.809,233.08 328.5,232C 329.244,230.961 330.244,230.461 331.5,230.5C 332.833,230.5 334.167,230.5 335.5,230.5C 345.455,232.57 355.122,231.404 364.5,227C 363.906,226.536 363.239,226.369 362.5,226.5C 363.514,225.326 364.847,224.66 366.5,224.5C 365.537,225.363 365.537,226.03 366.5,226.5C 379.617,220.949 390.95,212.949 400.5,202.5 Z"/></g>
<g><path style="opacity:0.153" fill="#aaa9a9" d="M 331.5,228.5 C 335.042,228.187 338.375,228.521 341.5,229.5C 339.735,230.461 337.735,230.795 335.5,230.5C 334.167,230.5 332.833,230.5 331.5,230.5C 331.082,229.778 330.416,229.278 329.5,229C 330.094,228.536 330.761,228.369 331.5,228.5 Z"/></g>
<g><path style="opacity:0.318" fill="#9c9b9b" d="M 362.5,226.5 C 363.239,226.369 363.906,226.536 364.5,227C 355.122,231.404 345.455,232.57 335.5,230.5C 337.735,230.795 339.735,230.461 341.5,229.5C 345.326,229.703 349.159,229.703 353,229.5C 356.039,228.115 359.206,227.115 362.5,226.5 Z"/></g>
<g><path style="opacity:0.996" fill="#484546" d="M 331.5,228.5 C 330.761,228.369 330.094,228.536 329.5,229C 330.416,229.278 331.082,229.778 331.5,230.5C 330.244,230.461 329.244,230.961 328.5,232C 334.809,233.08 341.142,233.914 347.5,234.5C 342.086,235.629 336.586,235.296 331,233.5C 329.415,234.044 327.915,234.711 326.5,235.5C 326.737,234.209 326.404,233.209 325.5,232.5C 326.429,231.685 327.429,230.852 328.5,230C 328.272,229.601 327.938,229.435 327.5,229.5C 328.538,227.481 329.872,227.147 331.5,228.5 Z"/></g>
<g><path style="opacity:0.018" fill="#c3c2c3" d="M 390.5,221.5 C 389.833,221.5 389.5,221.833 389.5,222.5C 388.85,222.196 388.183,221.863 387.5,221.5C 378.166,226.669 368.499,231.169 358.5,235C 349.871,236.792 341.204,236.958 332.5,235.5C 325.143,238.13 317.477,239.13 309.5,238.5C 309.842,237.662 310.508,237.328 311.5,237.5C 316.676,237.817 321.676,237.151 326.5,235.5C 327.915,234.711 329.415,234.044 331,233.5C 336.586,235.296 342.086,235.629 347.5,234.5C 352.637,234.506 357.637,233.673 362.5,232C 371.041,228.48 379.208,224.313 387,219.5C 388.459,219.808 389.626,220.475 390.5,221.5 Z"/></g>
<g><path style="opacity:0.127" fill="#969596" d="M 404.5,200.5 C 404.018,201.416 403.685,202.416 403.5,203.5C 409.727,209.947 413.893,217.613 416,226.5C 419.799,250.752 416.299,273.752 405.5,295.5C 405.5,294.833 405.167,294.5 404.5,294.5C 404.414,293.504 404.748,292.671 405.5,292C 399.856,288.034 393.523,286.534 386.5,287.5C 391.222,274.176 388.555,262.676 378.5,253C 374.663,250.123 370.33,248.623 365.5,248.5C 365.281,249.675 365.614,250.675 366.5,251.5C 378.875,254.403 385.208,262.237 385.5,275C 386.421,283.293 383.087,288.959 375.5,292C 371.886,295.442 368.552,298.942 365.5,302.5C 366.684,299.139 368.517,296.139 371,293.5C 383.914,285.868 386.914,275.201 380,261.5C 376.456,256.478 371.623,253.644 365.5,253C 362.833,251 362.833,249 365.5,247C 370.762,246.575 375.762,248.075 380.5,251.5C 380.427,253.027 381.094,254.027 382.5,254.5C 385.402,257.289 387.568,260.623 389,264.5C 390.412,271.271 390.912,277.938 390.5,284.5C 395.859,284.813 401.026,286.48 406,289.5C 414.564,269.653 417.231,248.986 414,227.5C 412.317,219.798 408.817,213.131 403.5,207.5C 400.167,210.167 397.167,213.167 394.5,216.5C 399.288,220.786 403.122,225.786 406,231.5C 407.363,235.761 407.696,240.095 407,244.5C 405.563,248.73 403.229,249.397 400,246.5C 401.446,236.339 397.946,228.339 389.5,222.5C 389.5,221.833 389.833,221.5 390.5,221.5C 400.077,227.119 403.744,235.453 401.5,246.5C 402.675,246.719 403.675,246.386 404.5,245.5C 405.947,240.018 405.447,234.685 403,229.5C 399.324,224.658 395.158,220.325 390.5,216.5C 394.151,213.349 397.651,210.016 401,206.5C 401.765,204.934 401.598,203.601 400.5,202.5C 401.287,200.896 402.62,200.229 404.5,200.5 Z"/></g>
<g><path style="opacity:0.078" fill="#979696" d="M 327.5,229.5 C 327.938,229.435 328.272,229.601 328.5,230C 327.429,230.852 326.429,231.685 325.5,232.5C 311.918,237.436 304.918,232.603 304.5,218C 304.667,216.167 304.833,214.333 305,212.5C 306.618,208.47 308.118,204.47 309.5,200.5C 308.178,200.33 307.011,200.663 306,201.5C 299.841,212.6 300.008,223.6 306.5,234.5C 301.207,239.416 297.707,245.416 296,252.5C 295.586,252.957 295.086,253.291 294.5,253.5C 291.641,248.474 287.641,244.641 282.5,242C 281.056,241.219 279.723,241.386 278.5,242.5C 286.291,247.057 291.457,253.723 294,262.5C 294.618,271.401 297.784,279.068 303.5,285.5C 302.833,285.5 302.5,285.833 302.5,286.5C 299.441,284.603 297.274,281.936 296,278.5C 294.196,268.616 290.863,259.283 286,250.5C 283.136,248.32 280.136,246.32 277,244.5C 275.835,241.186 277.002,239.186 280.5,238.5C 286.387,241.013 290.887,245.013 294,250.5C 296.646,244.542 299.812,238.876 303.5,233.5C 297.937,221.962 298.437,210.628 305,199.5C 307.796,197.017 309.963,197.683 311.5,201.5C 309.254,206.785 307.588,212.618 306.5,219C 306.357,223.219 307.524,227.052 310,230.5C 315.906,232.762 321.739,232.429 327.5,229.5 Z"/></g>
<g><path style="opacity:0.031" fill="#4c4b4c" d="M 380.5,251.5 C 381.906,251.973 382.573,252.973 382.5,254.5C 381.094,254.027 380.427,253.027 380.5,251.5 Z"/></g>
<g><path style="opacity:0.247" fill="#8a8989" d="M 565.5,173.5 C 569.411,176.908 573.245,180.574 577,184.5C 582.224,193.848 586.058,203.682 588.5,214C 588.167,214.333 587.833,214.667 587.5,215C 588.645,222.121 591.811,228.288 597,233.5C 600.548,239.263 603.548,245.263 606,251.5C 608.765,261.645 607.765,271.312 603,280.5C 600.894,283.118 598.394,285.118 595.5,286.5C 607.18,273.053 608.68,258.386 600,242.5C 595.726,235.228 591.059,228.228 586,221.5C 585.653,202.592 578.487,186.926 564.5,174.5C 564.624,173.893 564.957,173.56 565.5,173.5 Z"/></g>
<g><path style="opacity:0.294" fill="#999898" d="M 311.5,237.5 C 310.508,237.328 309.842,237.662 309.5,238.5C 307.5,240.671 305.666,243.004 304,245.5C 302.558,249.74 301.058,253.573 299.5,257C 299.749,264.2 301.249,271.366 304,278.5C 313.608,285.823 324.108,287.657 335.5,284C 339.619,281.71 343.286,278.876 346.5,275.5C 348.754,276.124 350.421,277.457 351.5,279.5C 348.87,283.132 345.87,286.465 342.5,289.5C 350.307,293.136 357.14,298.136 363,304.5C 363.902,304.257 364.735,303.923 365.5,303.5C 365.938,303.435 366.272,303.601 366.5,304C 365.89,305.947 365.057,307.781 364,309.5C 357.035,300.37 348.202,293.703 337.5,289.5C 341.27,287.197 344.77,284.531 348,281.5C 348.483,280.552 348.649,279.552 348.5,278.5C 347.448,278.351 346.448,278.517 345.5,279C 339.516,285.055 332.183,287.888 323.5,287.5C 315.697,287.841 308.863,285.508 303,280.5C 300.89,277.508 299.557,274.175 299,270.5C 295.905,257.463 299.072,246.296 308.5,237C 309.749,236.26 310.749,236.427 311.5,237.5 Z"/></g>
<g><path style="opacity:0.997" fill="#2b2829" d="M 325.5,232.5 C 326.404,233.209 326.737,234.209 326.5,235.5C 321.676,237.151 316.676,237.817 311.5,237.5C 310.749,236.427 309.749,236.26 308.5,237C 299.072,246.296 295.905,257.463 299,270.5C 299.557,274.175 300.89,277.508 303,280.5C 308.863,285.508 315.697,287.841 323.5,287.5C 332.183,287.888 339.516,285.055 345.5,279C 346.448,278.517 347.448,278.351 348.5,278.5C 348.649,279.552 348.483,280.552 348,281.5C 344.77,284.531 341.27,287.197 337.5,289.5C 348.202,293.703 357.035,300.37 364,309.5C 365.057,307.781 365.89,305.947 366.5,304C 366.272,303.601 365.938,303.435 365.5,303.5C 365.5,303.167 365.5,302.833 365.5,302.5C 368.552,298.942 371.886,295.442 375.5,292C 383.087,288.959 386.421,283.293 385.5,275C 385.208,262.237 378.875,254.403 366.5,251.5C 365.614,250.675 365.281,249.675 365.5,248.5C 370.33,248.623 374.663,250.123 378.5,253C 388.555,262.676 391.222,274.176 386.5,287.5C 393.523,286.534 399.856,288.034 405.5,292C 404.748,292.671 404.414,293.504 404.5,294.5C 389.203,286.764 377.37,290.431 369,305.5C 367.253,310.463 367.087,315.463 368.5,320.5C 369.728,324.015 371.062,327.515 372.5,331C 372.37,332.059 371.87,332.892 371,333.5C 367.632,329.065 365.632,324.065 365,318.5C 361.373,310.043 355.54,303.71 347.5,299.5C 343.786,296.31 339.453,294.143 334.5,293C 327.86,291.869 321.193,290.869 314.5,290C 310.56,289.025 306.893,287.525 303.5,285.5C 297.784,279.068 294.618,271.401 294,262.5C 291.457,253.723 286.291,247.057 278.5,242.5C 279.723,241.386 281.056,241.219 282.5,242C 287.641,244.641 291.641,248.474 294.5,253.5C 295.086,253.291 295.586,252.957 296,252.5C 297.707,245.416 301.207,239.416 306.5,234.5C 300.008,223.6 299.841,212.6 306,201.5C 307.011,200.663 308.178,200.33 309.5,200.5C 308.118,204.47 306.618,208.47 305,212.5C 304.833,214.333 304.667,216.167 304.5,218C 304.918,232.603 311.918,237.436 325.5,232.5 Z"/></g>
<g><path style="opacity:0.014" fill="#cbcaca" d="M 303.5,285.5 C 306.893,287.525 310.56,289.025 314.5,290C 321.193,290.869 327.86,291.869 334.5,293C 339.453,294.143 343.786,296.31 347.5,299.5C 342.743,297.957 338.076,296.124 333.5,294C 326.167,293 318.833,292 311.5,291C 308.177,289.96 305.177,288.46 302.5,286.5C 302.5,285.833 302.833,285.5 303.5,285.5 Z"/></g>
<g><path style="opacity:0.024" fill="#aaa9a9" d="M 404.5,294.5 C 405.167,294.5 405.5,294.833 405.5,295.5C 406.469,300.508 407.636,305.508 409,310.5C 410.145,311.684 411.312,311.684 412.5,310.5C 413.71,310.068 414.71,309.401 415.5,308.5C 417.042,307.699 418.708,307.366 420.5,307.5C 419.775,308.97 418.109,310.136 415.5,311C 411.589,312.791 407.589,314.291 403.5,315.5C 403.5,315.167 403.5,314.833 403.5,314.5C 405.2,313.984 406.533,312.984 407.5,311.5C 406.391,306.768 404.724,302.268 402.5,298C 402.833,297.667 403.167,297.333 403.5,297C 395.096,290.477 386.429,290.477 377.5,297C 374.488,300.154 372.155,303.654 370.5,307.5C 369.833,311.833 369.167,316.167 368.5,320.5C 367.087,315.463 367.253,310.463 369,305.5C 377.37,290.431 389.203,286.764 404.5,294.5 Z"/></g>
<g><path style="opacity:0.019" fill="#b2b1b1" d="M 556.5,265.5 C 557.833,265.5 558.5,266.167 558.5,267.5C 557.923,278.914 551.923,285.414 540.5,287C 535.833,287.333 531.167,287.667 526.5,288C 525.167,289.333 523.833,290.667 522.5,292C 531.275,291.943 539.942,290.776 548.5,288.5C 549.167,288.5 549.5,288.833 549.5,289.5C 539.923,291.607 530.256,293.441 520.5,295C 513.264,300.419 505.931,305.585 498.5,310.5C 497.209,310.737 496.209,310.404 495.5,309.5C 508.272,303.059 519.272,294.392 528.5,283.5C 529.167,283.5 529.5,283.833 529.5,284.5C 530.772,285.434 532.272,286.101 534,286.5C 536.099,285.713 538.266,285.38 540.5,285.5C 542.403,285.204 544.07,284.537 545.5,283.5C 553.189,280.148 556.855,274.148 556.5,265.5 Z"/></g>
<g><path style="opacity:0.004" fill="#8f8e8f" d="M 246.5,253.5 C 246.527,258.618 246.694,263.952 247,269.5C 249.01,276.994 252.843,283.327 258.5,288.5C 256.082,293.922 254.582,299.589 254,305.5C 237.793,324.951 235.459,345.951 247,368.5C 249.667,371.167 252.333,373.833 255,376.5C 253.195,394.123 260.195,406.79 276,414.5C 278.349,423.009 283.182,429.675 290.5,434.5C 285.733,433.406 282.066,430.74 279.5,426.5C 277.25,423.002 275.25,419.336 273.5,415.5C 260.708,408.263 253.708,397.263 252.5,382.5C 252.621,381.106 252.954,379.772 253.5,378.5C 237.106,361.827 233.272,342.493 242,320.5C 245.333,315.167 248.667,309.833 252,304.5C 253.125,299.159 254.625,293.992 256.5,289C 253.384,285.275 250.384,281.442 247.5,277.5C 243.982,269.498 243.649,261.498 246.5,253.5 Z"/></g>
<g><path style="opacity:0.031" fill="#555555" d="M 577.5,296.5 C 577.027,297.906 576.027,298.573 574.5,298.5C 574.973,297.094 575.973,296.427 577.5,296.5 Z"/></g>
<g><path style="opacity:0.396" fill="#949293" d="M 414.5,181.5 C 415.148,182.979 415.481,184.479 415.5,186C 413.2,187.113 412.867,188.613 414.5,190.5C 413.472,194.614 412.139,198.614 410.5,202.5C 419.387,214.871 424.054,228.704 424.5,244C 423.715,262.974 419.382,281.141 411.5,298.5C 412.775,301.373 413.608,304.373 414,307.5C 414.383,308.056 414.883,308.389 415.5,308.5C 414.71,309.401 413.71,310.068 412.5,310.5C 411.815,306.274 410.815,302.107 409.5,298C 413.789,287.13 417.289,275.963 420,264.5C 424.603,241.936 420.77,221.102 408.5,202C 410.326,194.975 412.326,188.142 414.5,181.5 Z"/></g>
<g><path style="opacity:0.154" fill="#b0afaf" d="M 277.5,295.5 C 279.527,297.18 281.861,298.347 284.5,299C 289.452,299.57 294.119,300.07 298.5,300.5C 297.833,301.167 297.167,301.833 296.5,302.5C 288.818,303.492 282.151,301.492 276.5,296.5C 276.5,295.833 276.833,295.5 277.5,295.5 Z"/></g>
<g><path style="opacity:0.146" fill="#cac9c9" d="M 569.5,300.5 C 570.239,300.369 570.906,300.536 571.5,301C 567.27,302.29 562.936,302.79 558.5,302.5C 557.833,302.5 557.5,302.167 557.5,301.5C 557.783,300.711 558.283,300.044 559,299.5C 562.551,300.234 566.051,300.567 569.5,300.5 Z"/></g>
<g><path style="opacity:0.357" fill="#a4a3a3" d="M 277.5,295.5 C 276.833,295.5 276.5,295.833 276.5,296.5C 274.629,296.141 273.129,295.141 272,293.5C 271.333,294.833 271.333,296.167 272,297.5C 279.416,304.613 288.249,307.279 298.5,305.5C 298.715,303.821 298.048,302.821 296.5,302.5C 297.167,301.833 297.833,301.167 298.5,300.5C 301.242,301.558 301.909,303.391 300.5,306C 287.978,308.992 277.312,305.825 268.5,296.5C 269.309,294.929 269.643,293.262 269.5,291.5C 273.037,291.307 275.703,292.64 277.5,295.5 Z"/></g>
<g><path style="opacity:0.973" fill="#282526" d="M 276.5,296.5 C 282.151,301.492 288.818,303.492 296.5,302.5C 298.048,302.821 298.715,303.821 298.5,305.5C 288.249,307.279 279.416,304.613 272,297.5C 271.333,296.167 271.333,294.833 272,293.5C 273.129,295.141 274.629,296.141 276.5,296.5 Z"/></g>
<g><path style="opacity:0.994" fill="#2e2c2d" d="M 558.5,302.5 C 562.936,302.79 567.27,302.29 571.5,301C 570.906,300.536 570.239,300.369 569.5,300.5C 570.209,299.596 571.209,299.263 572.5,299.5C 573.251,300.573 574.251,300.74 575.5,300C 579.948,297.125 584.281,294.291 588.5,291.5C 588.657,292.873 588.49,294.207 588,295.5C 579.815,303.506 569.982,306.84 558.5,305.5C 558.5,304.5 558.5,303.5 558.5,302.5 Z"/></g>
<g><path style="opacity:0.012" fill="#a4a3a3" d="M 587.5,231.5 C 595.681,240.198 600.347,250.532 601.5,262.5C 601.789,272.09 597.789,279.257 589.5,284C 588.707,285.085 588.04,286.252 587.5,287.5C 592.026,293.746 594.36,300.746 594.5,308.5C 608.875,323.157 612.375,340.157 605,359.5C 601.331,365.649 597.165,371.315 592.5,376.5C 591.167,376.833 589.833,377.167 588.5,377.5C 592.117,372.381 596.283,367.714 601,363.5C 609.984,344.551 607.818,327.051 594.5,311C 583.696,310.741 576.029,315.574 571.5,325.5C 570.399,327.102 568.899,328.102 567,328.5C 560.804,325.076 554.137,323.076 547,322.5C 529.879,323.956 521.545,333.289 522,350.5C 521.284,352.879 520.117,354.879 518.5,356.5C 518.167,356.5 517.833,356.5 517.5,356.5C 519.744,349.693 521.244,342.693 522,335.5C 529.412,324.049 539.912,319.549 553.5,322C 557.865,323.4 562.199,324.9 566.5,326.5C 569.962,322.865 573.295,319.032 576.5,315C 581.036,311.732 586.036,309.565 591.5,308.5C 591.5,307.5 591.5,306.5 591.5,305.5C 590.5,305.5 589.5,305.5 588.5,305.5C 588.158,304.662 587.492,304.328 586.5,304.5C 588.158,303.819 589.825,302.985 591.5,302C 590.897,300.175 590.23,298.341 589.5,296.5C 580.781,305.443 570.281,308.776 558,306.5C 554.925,304.978 554.759,303.311 557.5,301.5C 557.5,302.167 557.833,302.5 558.5,302.5C 558.5,303.5 558.5,304.5 558.5,305.5C 569.982,306.84 579.815,303.506 588,295.5C 588.49,294.207 588.657,292.873 588.5,291.5C 584.281,294.291 579.948,297.125 575.5,300C 574.251,300.74 573.251,300.573 572.5,299.5C 572.842,298.662 573.508,298.328 574.5,298.5C 576.027,298.573 577.027,297.906 577.5,296.5C 582.795,294.207 585.795,290.207 586.5,284.5C 598.901,277.473 602.735,267.14 598,253.5C 594.596,245.986 591.096,238.653 587.5,231.5 Z"/></g>
<g><path style="opacity:0.224" fill="#bcbbbb" d="M 586.5,304.5 C 587.492,304.328 588.158,304.662 588.5,305.5C 583.883,306.559 579.716,308.559 576,311.5C 575.536,310.906 575.369,310.239 575.5,309.5C 578.518,306.499 582.185,304.833 586.5,304.5 Z"/></g>
<g><path style="opacity:0.102" fill="#bab9ba" d="M 257.5,308.5 C 258.167,308.5 258.833,308.5 259.5,308.5C 266.779,307.896 273.112,309.896 278.5,314.5C 272.278,311.365 265.611,309.699 258.5,309.5C 257.833,309.5 257.5,309.167 257.5,308.5 Z"/></g>
<g><path style="opacity:0.588" fill="#8e8d8d" d="M 595.5,286.5 C 597.389,293.065 598.889,299.398 600,305.5C 605.088,311.015 608.588,317.348 610.5,324.5C 610.5,325.167 610.167,325.5 609.5,325.5C 607.199,318.229 603.365,311.896 598,306.5C 597.317,300.451 595.817,294.618 593.5,289C 593.684,287.624 594.351,286.791 595.5,286.5 Z"/></g>
<g><path style="opacity:0.306" fill="#969595" d="M 278.5,314.5 C 279.239,314.369 279.906,314.536 280.5,315C 283.971,318.821 287.304,322.654 290.5,326.5C 293.85,325.157 297.183,323.823 300.5,322.5C 300.842,323.338 301.508,323.672 302.5,323.5C 298.174,325.817 293.508,327.317 288.5,328C 285.303,323.317 281.97,318.817 278.5,314.5 Z"/></g>
<g><path style="opacity:0.204" fill="#aaa9a9" d="M 335.5,327.5 C 335.5,328.167 335.167,328.5 334.5,328.5C 326.023,320.592 316.023,316.592 304.5,316.5C 316.236,313.765 326.569,317.432 335.5,327.5 Z"/></g>
<g><path style="opacity:0.212" fill="#adacac" d="M 573.5,311.5 C 573.938,311.435 574.272,311.601 574.5,312C 571.538,315.44 568.705,318.94 566,322.5C 557.712,319.013 549.212,317.013 540.5,316.5C 544.471,316.73 548.638,316.396 553,315.5C 557.016,316.357 561.016,318.024 565,320.5C 567.387,317.043 570.22,314.043 573.5,311.5 Z"/></g>
<g><path style="opacity:0.998" fill="#2a2829" d="M 489.5,314.5 C 490.833,313.833 492.167,313.167 493.5,312.5C 494.363,311.537 495.03,311.537 495.5,312.5C 492.521,318.263 490.021,324.263 488,330.5C 485.667,334.167 483.333,337.833 481,341.5C 479.989,342.337 478.822,342.67 477.5,342.5C 479.784,337.273 482.617,332.273 486,327.5C 487.638,323.278 488.805,318.945 489.5,314.5 Z"/></g>
<g><path style="opacity:0.033" fill="#bcbbbb" d="M 328.5,328.5 C 324.449,326.145 320.116,324.312 315.5,323C 311.113,322.294 306.78,322.46 302.5,323.5C 301.508,323.672 300.842,323.338 300.5,322.5C 308.328,320.821 315.995,321.321 323.5,324C 325.618,325.049 327.284,326.549 328.5,328.5 Z"/></g>
<g><path style="opacity:0.997" fill="#2d2b2b" d="M 299.5,317.5 C 300.878,316.766 302.378,316.099 304,315.5C 304.399,315.728 304.565,316.062 304.5,316.5C 316.023,316.592 326.023,320.592 334.5,328.5C 337.936,334.972 339.77,341.972 340,349.5C 342.408,355.622 346.908,358.622 353.5,358.5C 353.5,359.833 353.5,361.167 353.5,362.5C 347.281,362.308 342.448,359.641 339,354.5C 337.275,348.987 336.275,343.32 336,337.5C 334.404,333.577 331.904,330.577 328.5,328.5C 327.284,326.549 325.618,325.049 323.5,324C 315.995,321.321 308.328,320.821 300.5,322.5C 297.183,323.823 293.85,325.157 290.5,326.5C 287.304,322.654 283.971,318.821 280.5,315C 279.906,314.536 279.239,314.369 278.5,314.5C 273.112,309.896 266.779,307.896 259.5,308.5C 259.5,307.5 259.5,306.5 259.5,305.5C 266.676,304.794 273.343,306.294 279.5,310C 283.71,314.042 287.71,318.208 291.5,322.5C 295.206,320.319 299.206,318.819 303.5,318C 302.207,317.51 300.873,317.343 299.5,317.5 Z"/></g>
<g><path style="opacity:0.451" fill="#979697" d="M 347.5,299.5 C 355.54,303.71 361.373,310.043 365,318.5C 365.632,324.065 367.632,329.065 371,333.5C 371.87,332.892 372.37,332.059 372.5,331C 371.062,327.515 369.728,324.015 368.5,320.5C 369.167,316.167 369.833,311.833 370.5,307.5C 369.46,315.753 370.96,323.42 375,330.5C 383.802,323.952 393.302,318.619 403.5,314.5C 403.5,314.833 403.5,315.167 403.5,315.5C 388.264,322.705 374.431,332.038 362,343.5C 360.821,346.26 358.988,348.26 356.5,349.5C 359.978,343.864 363.978,338.698 368.5,334C 365.392,326.068 362.059,318.234 358.5,310.5C 355.037,306.607 351.37,302.941 347.5,299.5 Z"/></g>
<g><path style="opacity:0.608" fill="#686767" d="M 610.5,324.5 C 612.416,328.163 613.416,332.163 613.5,336.5C 612.833,341.167 612.167,345.833 611.5,350.5C 611.902,342.05 611.235,333.717 609.5,325.5C 610.167,325.5 610.5,325.167 610.5,324.5 Z"/></g>
<g><path style="opacity:0.055" fill="#9b9a9b" d="M 495.5,309.5 C 496.209,310.404 497.209,310.737 498.5,310.5C 495.224,317.215 492.391,324.215 490,331.5C 487.217,335.951 484.05,340.117 480.5,344C 477.875,344.723 476.208,343.723 475.5,341C 480.713,333.739 484.713,325.906 487.5,317.5C 487.376,316.893 487.043,316.56 486.5,316.5C 487.29,315.599 488.29,314.932 489.5,314.5C 488.805,318.945 487.638,323.278 486,327.5C 482.617,332.273 479.784,337.273 477.5,342.5C 478.822,342.67 479.989,342.337 481,341.5C 483.333,337.833 485.667,334.167 488,330.5C 490.021,324.263 492.521,318.263 495.5,312.5C 495.03,311.537 494.363,311.537 493.5,312.5C 493.5,311.833 493.167,311.5 492.5,311.5C 493.29,310.599 494.29,309.932 495.5,309.5 Z"/></g>
<g><path style="opacity:0.996" fill="#2f2c2d" d="M 588.5,305.5 C 589.5,305.5 590.5,305.5 591.5,305.5C 591.5,306.5 591.5,307.5 591.5,308.5C 586.036,309.565 581.036,311.732 576.5,315C 573.295,319.032 569.962,322.865 566.5,326.5C 562.199,324.9 557.865,323.4 553.5,322C 539.912,319.549 529.412,324.049 522,335.5C 521.244,342.693 519.744,349.693 517.5,356.5C 510.107,362.293 501.774,363.96 492.5,361.5C 489.591,361.385 486.925,362.051 484.5,363.5C 481.572,364.591 479.406,366.591 478,369.5C 475.217,373.015 473.717,377.015 473.5,381.5C 473.274,386.562 473.608,391.562 474.5,396.5C 476.427,401.697 479.761,405.697 484.5,408.5C 489.349,411.661 493.682,411.161 497.5,407C 500.382,405.392 503.382,404.059 506.5,403C 505.552,402.517 504.552,402.351 503.5,402.5C 509.5,401.167 515.5,401.167 521.5,402.5C 520.761,402.369 520.094,402.536 519.5,403C 527.628,406.231 535.628,409.731 543.5,413.5C 547.983,413.259 551.649,411.425 554.5,408C 554.272,407.601 553.938,407.435 553.5,407.5C 553.842,406.662 554.508,406.328 555.5,406.5C 556.984,407.473 557.484,408.807 557,410.5C 552.032,416.115 545.865,417.948 538.5,416C 536.423,414.295 534.09,413.128 531.5,412.5C 530.089,410.461 528.089,409.461 525.5,409.5C 514.783,404.542 504.783,405.709 495.5,413C 490.974,413.849 486.64,413.349 482.5,411.5C 478.149,408.311 474.649,404.311 472,399.5C 471.453,392.447 470.286,385.78 468.5,379.5C 468.5,378.833 468.833,378.5 469.5,378.5C 472.078,373.984 474.578,369.317 477,364.5C 478.558,362.641 480.391,361.141 482.5,360C 490.731,358.727 499.064,358.06 507.5,358C 512.235,356.932 515.402,354.099 517,349.5C 516.289,333.201 523.789,322.701 539.5,318C 538.906,317.536 538.239,317.369 537.5,317.5C 538.209,316.596 539.209,316.263 540.5,316.5C 549.212,317.013 557.712,319.013 566,322.5C 568.705,318.94 571.538,315.44 574.5,312C 574.272,311.601 573.938,311.435 573.5,311.5C 573.833,310.5 574.5,309.833 575.5,309.5C 575.369,310.239 575.536,310.906 576,311.5C 579.716,308.559 583.883,306.559 588.5,305.5 Z"/></g>
<g><path style="opacity:0.294" fill="#b0afb0" d="M 492.5,311.5 C 493.167,311.5 493.5,311.833 493.5,312.5C 492.167,313.167 490.833,313.833 489.5,314.5C 488.29,314.932 487.29,315.599 486.5,316.5C 471.543,324.146 456.543,331.48 441.5,338.5C 440.209,338.263 439.209,338.596 438.5,339.5C 437.508,339.328 436.842,339.662 436.5,340.5C 435.833,341.167 435.167,341.833 434.5,342.5C 432.436,342.687 430.436,343.187 428.5,344C 424.759,346.732 420.759,349.066 416.5,351C 414.698,353.387 414.364,355.887 415.5,358.5C 415.672,359.492 415.338,360.158 414.5,360.5C 413.224,358.438 412.39,356.104 412,353.5C 410.229,354.304 408.729,355.471 407.5,357C 410.278,359.603 411.944,362.77 412.5,366.5C 412.5,367.167 412.167,367.5 411.5,367.5C 410.256,364.018 408.256,361.018 405.5,358.5C 404.833,360.167 404.167,361.833 403.5,363.5C 403.338,361.473 403.505,359.473 404,357.5C 408.08,354.543 412.247,351.71 416.5,349C 441.675,336.246 467.008,323.746 492.5,311.5 Z"/></g>
<g><path style="opacity:0.341" fill="#9b9a9a" d="M 335.5,327.5 C 337.223,329.253 338.723,331.253 340,333.5C 340.799,339.968 342.133,346.302 344,352.5C 346.498,354.417 349.165,356.084 352,357.5C 353.646,355.391 354.812,353.057 355.5,350.5C 356.239,350.369 356.906,350.536 357.5,351C 354.714,357.99 355.214,364.824 359,371.5C 362.767,375.776 366.934,379.443 371.5,382.5C 362.434,379.1 356.434,372.766 353.5,363.5C 343.695,363.517 337.528,358.85 335,349.5C 334.727,344.771 334.061,340.104 333,335.5C 331.25,333.266 329.75,330.932 328.5,328.5C 331.904,330.577 334.404,333.577 336,337.5C 336.275,343.32 337.275,348.987 339,354.5C 342.448,359.641 347.281,362.308 353.5,362.5C 353.5,361.167 353.5,359.833 353.5,358.5C 346.908,358.622 342.408,355.622 340,349.5C 339.77,341.972 337.936,334.972 334.5,328.5C 335.167,328.5 335.5,328.167 335.5,327.5 Z"/></g>
<g><path style="opacity:1" fill="#292627" d="M 438.5,339.5 C 440.457,344.639 442.124,349.972 443.5,355.5C 435.297,370.056 434.463,385.056 441,400.5C 443.045,403.423 445.212,406.257 447.5,409C 439.094,415.55 436.261,424.05 439,434.5C 440.706,438.553 442.873,442.386 445.5,446C 442.304,451.737 439.471,457.57 437,463.5C 436.507,457.632 437.673,452.132 440.5,447C 432.215,433.825 432.548,420.992 441.5,408.5C 433.945,396.545 431.445,383.545 434,369.5C 435.451,364.475 437.284,359.642 439.5,355C 437.55,350.421 436.55,345.588 436.5,340.5C 436.842,339.662 437.508,339.328 438.5,339.5 Z"/></g>
<g><path style="opacity:0.071" fill="#4f4f4f" d="M 547.5,351.5 C 545.5,352.833 543.5,352.833 541.5,351.5C 543.388,350.725 545.388,350.725 547.5,351.5 Z"/></g>
<g><path style="opacity:0.061" fill="#abaaaa" d="M 579.5,348.5 C 583.407,349.489 581.074,349.655 572.5,349C 570.382,348.365 568.382,347.531 566.5,346.5C 558.619,351.681 549.953,354.015 540.5,353.5C 540.5,354.5 540.5,355.5 540.5,356.5C 549.727,357.401 558.227,355.401 566,350.5C 574.797,353.58 583.297,353.08 591.5,349C 592.337,347.989 592.67,346.822 592.5,345.5C 590.323,345.586 588.323,346.253 586.5,347.5C 585.537,347.03 585.537,346.363 586.5,345.5C 588.85,343.615 591.35,343.282 594,344.5C 594.84,347.318 594.006,349.484 591.5,351C 583.569,355.02 575.403,355.52 567,352.5C 558.54,356.493 549.706,358.326 540.5,358C 537.598,355.136 537.932,352.969 541.5,351.5C 543.5,352.833 545.5,352.833 547.5,351.5C 550.216,351.322 552.883,350.822 555.5,350C 559.481,348.292 563.147,346.126 566.5,343.5C 570.402,346.029 574.736,347.696 579.5,348.5 Z"/></g>
<g><path style="opacity:0.982" fill="#2d2b2c" d="M 586.5,345.5 C 585.537,346.363 585.537,347.03 586.5,347.5C 588.323,346.253 590.323,345.586 592.5,345.5C 592.67,346.822 592.337,347.989 591.5,349C 583.297,353.08 574.797,353.58 566,350.5C 558.227,355.401 549.727,357.401 540.5,356.5C 540.5,355.5 540.5,354.5 540.5,353.5C 549.953,354.015 558.619,351.681 566.5,346.5C 568.382,347.531 570.382,348.365 572.5,349C 581.074,349.655 583.407,349.489 579.5,348.5C 581.395,346.759 583.728,345.759 586.5,345.5 Z"/></g>
<g><path style="opacity:0.475" fill="#a5a4a4" d="M 293.5,352.5 C 300.747,355.959 308.413,357.293 316.5,356.5C 316.5,355.5 316.5,354.5 316.5,353.5C 306.925,354.274 298.258,351.941 290.5,346.5C 288.617,347.024 286.784,347.691 285,348.5C 284.235,348.43 283.735,348.097 283.5,347.5C 286.002,346.33 288.502,344.997 291,343.5C 295.47,347.234 300.47,349.901 306,351.5C 308.76,351.581 311.593,351.247 314.5,350.5C 318.719,351.896 319.719,354.229 317.5,357.5C 310.728,358.779 304.062,358.279 297.5,356C 295.676,355.34 294.343,354.173 293.5,352.5 Z"/></g>
<g><path style="opacity:0.011" fill="#b9b8b8" d="M 264.5,344.5 C 268.5,344.833 268.5,345.167 264.5,345.5C 265.397,348.99 267.73,351.156 271.5,352C 277.988,352.979 284.322,352.479 290.5,350.5C 292.038,350.453 293.038,351.12 293.5,352.5C 286.607,354.248 279.607,354.748 272.5,354C 268.017,353.109 264.684,350.776 262.5,347C 262.639,345.699 263.305,344.866 264.5,344.5 Z"/></g>
<g><path style="opacity:0.98" fill="#2c292a" d="M 264.5,344.5 C 264.917,343.876 265.584,343.543 266.5,343.5C 268.563,344.512 270.563,345.512 272.5,346.5C 268.9,347.179 269.233,348.013 273.5,349C 277.349,349.859 279.682,349.692 280.5,348.5C 281.209,347.596 282.209,347.263 283.5,347.5C 283.735,348.097 284.235,348.43 285,348.5C 286.784,347.691 288.617,347.024 290.5,346.5C 298.258,351.941 306.925,354.274 316.5,353.5C 316.5,354.5 316.5,355.5 316.5,356.5C 308.413,357.293 300.747,355.959 293.5,352.5C 293.038,351.12 292.038,350.453 290.5,350.5C 284.322,352.479 277.988,352.979 271.5,352C 267.73,351.156 265.397,348.99 264.5,345.5C 268.5,345.167 268.5,344.833 264.5,344.5 Z"/></g>
<g><path style="opacity:0.18" fill="#adacac" d="M 272.5,346.5 C 275.267,346.858 277.933,347.525 280.5,348.5C 279.682,349.692 277.349,349.859 273.5,349C 269.233,348.013 268.9,347.179 272.5,346.5 Z"/></g>
<g><path style="opacity:0.271" fill="#a2a1a1" d="M 537.5,317.5 C 538.239,317.369 538.906,317.536 539.5,318C 523.789,322.701 516.289,333.201 517,349.5C 515.402,354.099 512.235,356.932 507.5,358C 499.064,358.06 490.731,358.727 482.5,360C 480.391,361.141 478.558,362.641 477,364.5C 474.578,369.317 472.078,373.984 469.5,378.5C 470.866,366.35 477.366,358.684 489,355.5C 496.287,358.127 503.453,357.961 510.5,355C 511.667,353.833 512.833,352.667 514,351.5C 514.508,342.123 517.175,333.457 522,325.5C 526.546,321.644 531.712,318.977 537.5,317.5 Z"/></g>
<g><path style="opacity:0.004" fill="#c6c5c6" d="M 517.5,356.5 C 517.833,356.5 518.167,356.5 518.5,356.5C 516.354,360.395 513.021,362.561 508.5,363C 500.453,363.229 492.453,363.729 484.5,364.5C 484.5,364.167 484.5,363.833 484.5,363.5C 486.925,362.051 489.591,361.385 492.5,361.5C 501.774,363.96 510.107,362.293 517.5,356.5 Z"/></g>
<g><path style="opacity:0.102" fill="#929191" d="M 484.5,363.5 C 484.5,363.833 484.5,364.167 484.5,364.5C 477.309,372.746 474.309,382.412 475.5,393.5C 474.833,389.5 474.167,385.5 473.5,381.5C 473.717,377.015 475.217,373.015 478,369.5C 479.406,366.591 481.572,364.591 484.5,363.5 Z"/></g>
<g><path style="opacity:0.192" fill="#949494" d="M 613.5,336.5 C 615.495,347.375 613.661,357.709 608,367.5C 604.678,370.656 601.512,373.989 598.5,377.5C 599.929,383.233 599.263,388.733 596.5,394C 597.566,395.159 597.233,395.992 595.5,396.5C 594.957,396.44 594.624,396.107 594.5,395.5C 596.088,389.293 596.921,382.959 597,376.5C 605.22,369.728 610.053,361.061 611.5,350.5C 612.167,345.833 612.833,341.167 613.5,336.5 Z"/></g>
<g><path style="opacity:0.408" fill="#8c8b8b" d="M 566.5,370.5 C 565.833,370.5 565.167,370.5 564.5,370.5C 561.213,371.264 558.546,373.097 556.5,376C 554.423,377.705 552.09,378.872 549.5,379.5C 548.833,379.5 548.167,379.5 547.5,379.5C 553.059,376.87 557.725,373.036 561.5,368C 563.928,367.253 565.594,368.086 566.5,370.5 Z"/></g>
<g><path style="opacity:0.994" fill="#302d2e" d="M 564.5,370.5 C 571.916,377.895 580.916,380.562 591.5,378.5C 591.5,379.833 591.5,381.167 591.5,382.5C 580.926,383.859 571.592,381.193 563.5,374.5C 550.865,385.826 536.199,389.659 519.5,386C 515.862,385.548 513.528,383.714 512.5,380.5C 521.945,383.306 531.612,384.139 541.5,383C 544.309,381.907 546.976,380.74 549.5,379.5C 552.09,378.872 554.423,377.705 556.5,376C 558.546,373.097 561.213,371.264 564.5,370.5 Z"/></g>
<g><path style="opacity:0.024" fill="#b3b3b3" d="M 564.5,370.5 C 565.167,370.5 565.833,370.5 566.5,370.5C 573.505,375.391 580.838,377.725 588.5,377.5C 589.833,377.167 591.167,376.833 592.5,376.5C 594.582,392.662 588.082,403.995 573,410.5C 571.73,417.994 568.063,423.994 562,428.5C 561.536,427.906 561.369,427.239 561.5,426.5C 566.429,421.875 569.762,416.208 571.5,409.5C 583.309,404.894 589.976,396.228 591.5,383.5C 581.413,384.876 572.08,382.876 563.5,377.5C 547.533,389.371 530.2,391.704 511.5,384.5C 509.9,381.493 510.567,379.159 513.5,377.5C 518.101,379.754 522.601,381.42 527,382.5C 529.851,381.756 532.517,381.756 535,382.5C 539.093,382.055 543.259,381.055 547.5,379.5C 548.167,379.5 548.833,379.5 549.5,379.5C 546.976,380.74 544.309,381.907 541.5,383C 531.612,384.139 521.945,383.306 512.5,380.5C 513.528,383.714 515.862,385.548 519.5,386C 536.199,389.659 550.865,385.826 563.5,374.5C 571.592,381.193 580.926,383.859 591.5,382.5C 591.5,381.167 591.5,379.833 591.5,378.5C 580.916,380.562 571.916,377.895 564.5,370.5 Z"/></g>
<g><path style="opacity:0.173" fill="#cecccc" d="M 473.5,381.5 C 474.167,385.5 474.833,389.5 475.5,393.5C 476.506,393.938 476.506,394.604 475.5,395.5C 475.5,396.167 475.167,396.5 474.5,396.5C 473.608,391.562 473.274,386.562 473.5,381.5 Z"/></g>
<g><path style="opacity:0.21" fill="#c3c3c3" d="M 468.5,383.5 C 469.833,386.167 469.833,388.833 468.5,391.5C 467.167,388.833 467.167,386.167 468.5,383.5 Z"/></g>
<g><path style="opacity:0.349" fill="#999898" d="M 257.5,308.5 C 257.5,309.167 257.833,309.5 258.5,309.5C 244.054,326.607 241.888,345.273 252,365.5C 257.552,371.364 263.719,375.364 270.5,377.5C 268.901,377.232 267.568,377.566 266.5,378.5C 264.565,377.85 262.565,377.517 260.5,377.5C 260.5,378.5 260.5,379.5 260.5,380.5C 259.167,380.833 259.167,381.167 260.5,381.5C 260.573,394.575 266.906,403.575 279.5,408.5C 281.456,413.377 283.789,418.044 286.5,422.5C 290.254,426.647 294.587,429.813 299.5,432C 297.807,450.553 306.14,462.72 324.5,468.5C 328.031,468.461 331.531,468.461 335,468.5C 336.46,466.578 338.127,465.911 340,466.5C 342.862,469.78 345.362,473.28 347.5,477C 352.556,479.768 357.89,481.935 363.5,483.5C 369.633,476.182 377.467,471.848 387,470.5C 391.769,471.753 392.603,474.253 389.5,478C 379.542,477.159 372.875,481.325 369.5,490.5C 371.01,492.689 373.01,494.023 375.5,494.5C 374.209,494.263 373.209,494.596 372.5,495.5C 367.386,493.553 363.719,490.053 361.5,485C 351.674,483.825 344.674,478.825 340.5,470C 322.07,473.033 308.237,466.533 299,450.5C 296.478,444.305 295.978,437.972 297.5,431.5C 289.865,429.926 284.365,425.593 281,418.5C 280.197,415.756 279.197,413.089 278,410.5C 262.799,403.259 256.466,391.259 259,374.5C 245.617,363.692 240.617,349.692 244,332.5C 246.207,323.074 250.707,315.074 257.5,308.5 Z"/></g>
<g><path style="opacity:0.549" fill="#8a8989" d="M 475.5,395.5 C 478.146,400.478 481.813,404.478 486.5,407.5C 485.508,407.328 484.842,407.662 484.5,408.5C 479.761,405.697 476.427,401.697 474.5,396.5C 475.167,396.5 475.5,396.167 475.5,395.5 Z"/></g>
<g><path style="opacity:0.004" fill="#8e8d8d" d="M 468.5,379.5 C 470.286,385.78 471.453,392.447 472,399.5C 474.649,404.311 478.149,408.311 482.5,411.5C 481.833,411.5 481.5,411.833 481.5,412.5C 473.516,407.832 469.182,400.832 468.5,391.5C 469.833,388.833 469.833,386.167 468.5,383.5C 468.5,382.167 468.5,380.833 468.5,379.5 Z"/></g>
<g><path style="opacity:0.196" fill="#999798" d="M 594.5,398.5 C 594.392,400.783 593.559,402.783 592,404.5C 589.597,405.781 587.763,407.614 586.5,410C 585.552,410.483 584.552,410.649 583.5,410.5C 587.214,406.95 590.381,402.95 593,398.5C 593.69,397.262 594.19,397.262 594.5,398.5 Z"/></g>
<g><path style="opacity:0.133" fill="#bdbcbc" d="M 503.5,402.5 C 504.552,402.351 505.552,402.517 506.5,403C 503.382,404.059 500.382,405.392 497.5,407C 493.682,411.161 489.349,411.661 484.5,408.5C 484.842,407.662 485.508,407.328 486.5,407.5C 488.585,408.35 490.585,408.684 492.5,408.5C 495.745,405.711 499.412,403.711 503.5,402.5 Z"/></g>
<g><path style="opacity:0.014" fill="#bfbfbf" d="M 525.5,409.5 C 518.53,407.383 511.53,407.217 504.5,409C 497.751,416.178 490.084,417.345 481.5,412.5C 481.5,411.833 481.833,411.5 482.5,411.5C 486.64,413.349 490.974,413.849 495.5,413C 504.783,405.709 514.783,404.542 525.5,409.5 Z"/></g>
<g><path style="opacity:0.541" fill="#969596" d="M 521.5,402.5 C 528.988,403.994 535.821,406.994 542,411.5C 546.192,411.85 550.026,410.517 553.5,407.5C 553.938,407.435 554.272,407.601 554.5,408C 551.649,411.425 547.983,413.259 543.5,413.5C 535.628,409.731 527.628,406.231 519.5,403C 520.094,402.536 520.761,402.369 521.5,402.5 Z"/></g>
<g><path style="opacity:0.231" fill="#c1c1c1" d="M 525.5,409.5 C 528.089,409.461 530.089,410.461 531.5,412.5C 529.033,412.245 527.033,411.245 525.5,409.5 Z"/></g>
<g><path style="opacity:0.086" fill="#aaa8a9" d="M 531.5,412.5 C 534.09,413.128 536.423,414.295 538.5,416C 545.865,417.948 552.032,416.115 557,410.5C 557.484,408.807 556.984,407.473 555.5,406.5C 555.435,406.062 555.601,405.728 556,405.5C 559.075,406.469 560.075,408.469 559,411.5C 552.383,417.946 544.883,419.78 536.5,417C 534.76,415.483 533.094,413.983 531.5,412.5 Z"/></g>
<g><path style="opacity:0.047" fill="#979596" d="M 438.5,339.5 C 439.209,338.596 440.209,338.263 441.5,338.5C 442.301,344.594 443.968,350.594 446.5,356.5C 439.369,367.575 437.203,379.575 440,392.5C 454.026,401.913 466.192,413.247 476.5,426.5C 475.833,426.5 475.5,426.833 475.5,427.5C 466.134,415.469 455.134,405.135 442.5,396.5C 442.167,396.833 441.833,397.167 441.5,397.5C 443.714,401.433 446.048,405.266 448.5,409C 445.229,412.283 442.729,416.116 441,420.5C 440.333,423.833 440.333,427.167 441,430.5C 451.16,441.55 450.994,452.384 440.5,463C 432,470.167 423.5,477.333 415,484.5C 414.536,483.906 414.369,483.239 414.5,482.5C 421.078,477.1 427.578,471.434 434,465.5C 434.034,458.774 435.2,452.274 437.5,446C 430.517,433.12 430.851,420.453 438.5,408C 428.394,390.893 428.06,373.559 437.5,356C 435.786,351.647 434.786,347.147 434.5,342.5C 435.167,341.833 435.833,341.167 436.5,340.5C 436.55,345.588 437.55,350.421 439.5,355C 437.284,359.642 435.451,364.475 434,369.5C 431.445,383.545 433.945,396.545 441.5,408.5C 432.548,420.992 432.215,433.825 440.5,447C 437.673,452.132 436.507,457.632 437,463.5C 439.471,457.57 442.304,451.737 445.5,446C 442.873,442.386 440.706,438.553 439,434.5C 436.261,424.05 439.094,415.55 447.5,409C 445.212,406.257 443.045,403.423 441,400.5C 434.463,385.056 435.297,370.056 443.5,355.5C 442.124,349.972 440.457,344.639 438.5,339.5 Z M 444.5,440.5 C 442.901,439.201 442.401,437.535 443,435.5C 444.009,437.025 444.509,438.692 444.5,440.5 Z M 445.5,449.5 C 446.097,449.735 446.43,450.235 446.5,451C 445.804,452.893 444.97,454.726 444,456.5C 443.4,453.905 443.9,451.571 445.5,449.5 Z"/></g>
<g><path style="opacity:1" fill="#242021" d="M 475.5,427.5 C 480.248,433.502 483.248,440.335 484.5,448C 484.41,454.342 482.244,459.842 478,464.5C 470.75,471.754 462.917,478.254 454.5,484C 436.502,493.829 418.502,503.329 400.5,512.5C 400.5,513.167 400.167,513.5 399.5,513.5C 399.44,512.957 399.107,512.624 398.5,512.5C 393.895,514.135 389.562,516.135 385.5,518.5C 385.5,519.167 385.167,519.5 384.5,519.5C 384.265,518.903 383.765,518.57 383,518.5C 379.857,519.531 376.691,520.031 373.5,520C 382.438,512.734 391.105,505.067 399.5,497C 399.272,496.601 398.938,496.435 398.5,496.5C 398.5,496.167 398.5,495.833 398.5,495.5C 399.167,495.5 399.5,495.167 399.5,494.5C 399.833,494.5 400.167,494.5 400.5,494.5C 400.897,495.525 401.563,495.692 402.5,495C 406.167,491.833 409.833,488.667 413.5,485.5C 413.043,484.702 412.376,484.369 411.5,484.5C 412.29,483.599 413.29,482.932 414.5,482.5C 414.369,483.239 414.536,483.906 415,484.5C 423.5,477.333 432,470.167 440.5,463C 450.994,452.384 451.16,441.55 441,430.5C 440.333,427.167 440.333,423.833 441,420.5C 442.729,416.116 445.229,412.283 448.5,409C 446.048,405.266 443.714,401.433 441.5,397.5C 441.833,397.167 442.167,396.833 442.5,396.5C 455.134,405.135 466.134,415.469 475.5,427.5 Z"/></g>
<g><path style="opacity:0.263" fill="#a1a0a0" d="M 583.5,410.5 C 582.618,412.384 581.118,413.717 579,414.5C 576.996,418.52 574.996,422.52 573,426.5C 570.76,429.368 567.926,431.368 564.5,432.5C 566.795,429.703 569.295,427.036 572,424.5C 573.597,421.209 575.097,417.875 576.5,414.5C 578.698,412.902 581.031,411.569 583.5,410.5 Z"/></g>
<g><path style="opacity:0.265" fill="#929192" d="M 290.5,434.5 C 291.5,434.5 292.5,434.5 293.5,434.5C 292.596,442.352 294.096,449.685 298,456.5C 302.401,462.403 307.568,467.403 313.5,471.5C 297.575,464.487 289.908,452.154 290.5,434.5 Z"/></g>
<g><path style="opacity:0.986" fill="#282626" d="M 283.5,183.5 C 273.914,195.024 269.081,208.357 269,223.5C 265.333,228.833 261.667,234.167 258,239.5C 254.5,245.498 251.833,251.831 250,258.5C 249.333,261.833 249.333,265.167 250,268.5C 252.72,276.394 257.553,282.727 264.5,287.5C 259.959,293.79 257.625,300.79 257.5,308.5C 250.707,315.074 246.207,323.074 244,332.5C 240.617,349.692 245.617,363.692 259,374.5C 256.466,391.259 262.799,403.259 278,410.5C 279.197,413.089 280.197,415.756 281,418.5C 284.365,425.593 289.865,429.926 297.5,431.5C 295.978,437.972 296.478,444.305 299,450.5C 308.237,466.533 322.07,473.033 340.5,470C 344.674,478.825 351.674,483.825 361.5,485C 363.719,490.053 367.386,493.553 372.5,495.5C 377.277,496.933 381.943,496.599 386.5,494.5C 390.629,493.6 393.962,491.433 396.5,488C 395.906,487.536 395.239,487.369 394.5,487.5C 395.29,486.599 396.29,485.932 397.5,485.5C 397.897,486.525 398.563,486.692 399.5,486C 410.069,477.789 413.736,467.289 410.5,454.5C 409.412,451.571 408.079,448.737 406.5,446C 407.579,443.845 408.913,441.845 410.5,440C 409.906,439.536 409.239,439.369 408.5,439.5C 408.5,438.833 408.833,438.5 409.5,438.5C 411.335,437.878 412.502,436.544 413,434.5C 415.711,424.102 412.878,415.602 404.5,409C 415.225,396.216 417.892,382.049 412.5,366.5C 411.944,362.77 410.278,359.603 407.5,357C 408.729,355.471 410.229,354.304 412,353.5C 412.39,356.104 413.224,358.438 414.5,360.5C 420.854,377.167 419.52,393.167 410.5,408.5C 419.474,420.864 419.808,433.53 411.5,446.5C 417.375,458.964 416.541,470.964 409,482.5C 404.271,487.397 399.438,492.064 394.5,496.5C 385.708,500.872 376.708,501.539 367.5,498.5C 364.668,495.499 362.002,492.333 359.5,489C 350.124,486.98 342.791,481.98 337.5,474C 332.91,474.543 328.243,474.543 323.5,474C 320.28,472.648 316.947,471.814 313.5,471.5C 307.568,467.403 302.401,462.403 298,456.5C 294.096,449.685 292.596,442.352 293.5,434.5C 292.5,434.5 291.5,434.5 290.5,434.5C 283.182,429.675 278.349,423.009 276,414.5C 260.195,406.79 253.195,394.123 255,376.5C 252.333,373.833 249.667,371.167 247,368.5C 235.459,345.951 237.793,324.951 254,305.5C 254.582,299.589 256.082,293.922 258.5,288.5C 252.843,283.327 249.01,276.994 247,269.5C 246.694,263.952 246.527,258.618 246.5,253.5C 246.928,250.215 247.928,247.215 249.5,244.5C 254.868,237.475 260.035,230.142 265,222.5C 265.361,210.817 268.527,199.984 274.5,190C 273.906,189.536 273.239,189.369 272.5,189.5C 272.5,188.833 272.833,188.5 273.5,188.5C 276.41,186.761 278.91,184.428 281,181.5C 281.995,182.066 282.828,182.733 283.5,183.5 Z M 405.5,358.5 C 408.256,361.018 410.256,364.018 411.5,367.5C 411.649,368.552 411.483,369.552 411,370.5C 409.71,368.208 408.043,366.208 406,364.5C 405.505,362.527 405.338,360.527 405.5,358.5 Z"/></g>
<g><path style="opacity:0.008" fill="#999899" d="M 410.5,454.5 C 413.736,467.289 410.069,477.789 399.5,486C 398.563,486.692 397.897,486.525 397.5,485.5C 407.226,478.362 411.226,468.695 409.5,456.5C 410.338,456.158 410.672,455.492 410.5,454.5 Z"/></g>
<g><path style="opacity:0.129" fill="#b8b7b7" d="M 364.5,450.5 C 378.178,458.169 392.511,459.503 407.5,454.5C 408.5,453.167 409.5,453.167 410.5,454.5C 410.672,455.492 410.338,456.158 409.5,456.5C 406.926,456.156 404.259,456.656 401.5,458C 391.679,459.115 382.012,458.448 372.5,456C 369.244,454.884 366.578,453.051 364.5,450.5 Z"/></g>
<g><path style="opacity:0.013" fill="#c3c2c3" d="M 364.5,450.5 C 362.328,450.163 360.495,449.163 359,447.5C 355.404,448.921 351.904,450.588 348.5,452.5C 341.539,454.805 334.539,454.972 327.5,453C 325.416,452.303 323.749,451.136 322.5,449.5C 335.18,454.403 347.18,453.07 358.5,445.5C 361.102,446.434 363.102,448.101 364.5,450.5 Z"/></g>
<g><path style="opacity:0.116" fill="#b1b0b1" d="M 403.5,450.5 C 404.492,450.328 405.158,450.662 405.5,451.5C 402.539,452.323 399.539,452.99 396.5,453.5C 393.615,453.806 390.948,453.473 388.5,452.5C 393.465,451.779 398.465,451.113 403.5,450.5 Z"/></g>
<g><path style="opacity:0.549" fill="#8b8a8a" d="M 408.5,439.5 C 409.239,439.369 409.906,439.536 410.5,440C 408.913,441.845 407.579,443.845 406.5,446C 408.079,448.737 409.412,451.571 410.5,454.5C 409.5,453.167 408.5,453.167 407.5,454.5C 407.715,452.821 407.048,451.821 405.5,451.5C 405.158,450.662 404.492,450.328 403.5,450.5C 404.02,446.259 405.686,442.592 408.5,439.5 Z"/></g>
<g><path style="opacity:0.408" fill="#9d9c9c" d="M 357.5,438.5 C 358.239,438.369 358.906,438.536 359.5,439C 348.776,449.263 336.442,451.763 322.5,446.5C 322.5,447.5 322.5,448.5 322.5,449.5C 321.503,449.53 320.836,449.03 320.5,448C 321.292,446.04 322.625,444.54 324.5,443.5C 327.288,444.978 330.122,446.311 333,447.5C 335.614,446.546 338.447,446.546 341.5,447.5C 343.153,447.34 344.486,446.674 345.5,445.5C 349.96,443.972 353.96,441.638 357.5,438.5 Z"/></g>
<g><path style="opacity:0.035" fill="#525151" d="M 345.5,445.5 C 344.486,446.674 343.153,447.34 341.5,447.5C 342.287,445.896 343.62,445.229 345.5,445.5 Z"/></g>
<g><path style="opacity:0.996" fill="#2e2b2c" d="M 357.5,438.5 C 359.743,437.142 361.409,437.808 362.5,440.5C 361.624,440.369 360.957,440.702 360.5,441.5C 364.099,446.3 368.766,449.133 374.5,450C 373.944,449.617 373.611,449.117 373.5,448.5C 375.153,448.66 376.486,449.326 377.5,450.5C 375.621,450.393 375.288,450.893 376.5,452C 378.066,452.765 379.399,452.598 380.5,451.5C 380.435,451.062 380.601,450.728 381,450.5C 382.302,451.085 383.469,451.751 384.5,452.5C 380.551,452.693 380.551,453.193 384.5,454C 388.689,454.812 392.689,454.645 396.5,453.5C 399.539,452.99 402.539,452.323 405.5,451.5C 407.048,451.821 407.715,452.821 407.5,454.5C 392.511,459.503 378.178,458.169 364.5,450.5C 363.102,448.101 361.102,446.434 358.5,445.5C 347.18,453.07 335.18,454.403 322.5,449.5C 322.5,448.5 322.5,447.5 322.5,446.5C 336.442,451.763 348.776,449.263 359.5,439C 358.906,438.536 358.239,438.369 357.5,438.5 Z"/></g>
<g><path style="opacity:0.714" fill="#949393" d="M 388.5,452.5 C 390.948,453.473 393.615,453.806 396.5,453.5C 392.689,454.645 388.689,454.812 384.5,454C 380.551,453.193 380.551,452.693 384.5,452.5C 386.139,452.074 387.472,452.074 388.5,452.5 Z"/></g>
<g><path style="opacity:0.188" fill="#c9c7c8" d="M 377.5,450.5 C 378.609,450.557 379.609,450.89 380.5,451.5C 379.399,452.598 378.066,452.765 376.5,452C 375.288,450.893 375.621,450.393 377.5,450.5 Z"/></g>
<g><path style="opacity:0.055" fill="#989797" d="M 362.5,440.5 C 365.272,444.387 368.939,447.054 373.5,448.5C 373.611,449.117 373.944,449.617 374.5,450C 368.766,449.133 364.099,446.3 360.5,441.5C 360.957,440.702 361.624,440.369 362.5,440.5 Z"/></g>
<g><path style="opacity:0.017" fill="#c6c6c6" d="M 400.5,435.5 C 394.954,436.741 389.287,436.574 383.5,435C 382.058,434.623 381.058,433.79 380.5,432.5C 386.681,434.252 393.014,434.919 399.5,434.5C 400.045,430.828 400.378,431.162 400.5,435.5 Z"/></g>
<g><path style="opacity:0.992" fill="#312e2f" d="M 377.5,426.5 C 383.584,430.521 390.251,432.021 397.5,431C 398.738,430.31 398.738,429.81 397.5,429.5C 398.793,428.355 399.959,428.689 401,430.5C 401.78,432.387 401.613,434.054 400.5,435.5C 400.378,431.162 400.045,430.828 399.5,434.5C 393.014,434.919 386.681,434.252 380.5,432.5C 377.523,430.533 374.523,428.533 371.5,426.5C 371.5,426.167 371.5,425.833 371.5,425.5C 373.751,424.135 375.751,424.469 377.5,426.5 Z"/></g>
<g><path style="opacity:0.423" fill="#b0afaf" d="M 377.5,426.5 C 377.842,425.662 378.508,425.328 379.5,425.5C 385.311,428.26 391.311,429.593 397.5,429.5C 398.738,429.81 398.738,430.31 397.5,431C 390.251,432.021 383.584,430.521 377.5,426.5 Z"/></g>
<g><path style="opacity:0.4" fill="#a6a5a5" d="M 371.5,426.5 C 374.523,428.533 377.523,430.533 380.5,432.5C 376.594,431.772 373.26,429.938 370.5,427C 370.728,426.601 371.062,426.435 371.5,426.5 Z"/></g>
<g><path style="opacity:0.624" fill="#5a5959" d="M 379.5,425.5 C 378.508,425.328 377.842,425.662 377.5,426.5C 375.751,424.469 373.751,424.135 371.5,425.5C 370.493,423.732 371.159,422.399 373.5,421.5C 375.813,422.5 377.813,423.834 379.5,425.5 Z"/></g>
<g><path style="opacity:0.054" fill="#b3b2b3" d="M 301.5,406.5 C 300.016,407.473 299.516,408.807 300,410.5C 305.187,415.607 311.354,417.94 318.5,417.5C 309.387,419.603 302.387,416.769 297.5,409C 297.998,406.153 299.331,405.319 301.5,406.5 Z"/></g>
<g><path style="opacity:0.008" fill="#aeacad" d="M 378.5,386.5 C 384.668,389.08 390.335,392.414 395.5,396.5C 393.037,396.219 390.87,395.219 389,393.5C 385.593,408.259 376.426,415.425 361.5,415C 348.364,405.091 335.364,405.424 322.5,416C 321.552,416.483 320.552,416.649 319.5,416.5C 329.131,407.24 340.465,404.407 353.5,408C 364.111,416.117 373.611,414.95 382,404.5C 384.602,400.526 386.102,396.193 386.5,391.5C 385.5,391.5 384.5,391.5 383.5,391.5C 383.468,394.994 382.135,397.661 379.5,399.5C 380.447,397.266 381.114,394.932 381.5,392.5C 381.303,390.004 380.303,388.004 378.5,386.5 Z"/></g>
<g><path style="opacity:0.302" fill="#afaeae" d="M 378.5,400.5 C 379.239,400.369 379.906,400.536 380.5,401C 376.878,406.61 371.711,409.777 365,410.5C 357.561,404.744 349.061,402.078 339.5,402.5C 338.833,402.5 338.5,402.167 338.5,401.5C 343.511,401.334 348.511,401.501 353.5,402C 357.989,405.223 362.989,407.39 368.5,408.5C 372.634,406.775 375.967,404.108 378.5,400.5 Z"/></g>
<g><path style="opacity:0.298" fill="#9a9999" d="M 338.5,401.5 C 338.5,402.167 338.833,402.5 339.5,402.5C 332.876,403.883 326.709,406.549 321,410.5C 320.536,409.906 320.369,409.239 320.5,408.5C 325.63,404.229 331.63,401.896 338.5,401.5 Z"/></g>
<g><path style="opacity:0.988" fill="#2f2d2e" d="M 319.5,416.5 C 319.5,417.167 319.167,417.5 318.5,417.5C 311.354,417.94 305.187,415.607 300,410.5C 299.516,408.807 300.016,407.473 301.5,406.5C 304.437,407.472 307.103,408.805 309.5,410.5C 308.448,410.351 307.448,410.517 306.5,411C 310.225,413.95 314.225,414.284 318.5,412C 319.738,411.31 319.738,410.81 318.5,410.5C 318.833,409.5 319.5,408.833 320.5,408.5C 320.369,409.239 320.536,409.906 321,410.5C 326.709,406.549 332.876,403.883 339.5,402.5C 349.061,402.078 357.561,404.744 365,410.5C 371.711,409.777 376.878,406.61 380.5,401C 379.906,400.536 379.239,400.369 378.5,400.5C 378.5,399.833 378.833,399.5 379.5,399.5C 382.135,397.661 383.468,394.994 383.5,391.5C 384.5,391.5 385.5,391.5 386.5,391.5C 386.102,396.193 384.602,400.526 382,404.5C 373.611,414.95 364.111,416.117 353.5,408C 340.465,404.407 329.131,407.24 319.5,416.5 Z"/></g>
<g><path style="opacity:0.085" fill="#bdbcbd" d="M 309.5,410.5 C 312.227,411.211 315.227,411.211 318.5,410.5C 319.738,410.81 319.738,411.31 318.5,412C 314.225,414.284 310.225,413.95 306.5,411C 307.448,410.517 308.448,410.351 309.5,410.5 Z"/></g>
<g><path style="opacity:0.639" fill="#939192" d="M 405.5,358.5 C 405.338,360.527 405.505,362.527 406,364.5C 408.043,366.208 409.71,368.208 411,370.5C 411.483,369.552 411.649,368.552 411.5,367.5C 412.167,367.5 412.5,367.167 412.5,366.5C 417.892,382.049 415.225,396.216 404.5,409C 412.878,415.602 415.711,424.102 413,434.5C 412.502,436.544 411.335,437.878 409.5,438.5C 413.926,426.87 411.593,416.87 402.5,408.5C 403.5,407.167 404.5,405.833 405.5,404.5C 402.136,401.825 398.803,399.158 395.5,396.5C 399.472,398.657 403.472,400.49 407.5,402C 412.244,393.769 414.077,384.936 413,375.5C 408.895,372.23 405.728,368.23 403.5,363.5C 404.167,361.833 404.833,360.167 405.5,358.5 Z"/></g>
<g><path style="opacity:0.016" fill="#b9b9b9" d="M 333.5,381.5 C 336.542,379.593 339.876,378.26 343.5,377.5C 348.825,380.749 348.491,383.583 342.5,386C 324.655,391.531 308.322,388.698 293.5,377.5C 283.109,383.739 272.109,385.073 260.5,381.5C 259.167,381.167 259.167,380.833 260.5,380.5C 272.554,384.065 283.554,382.065 293.5,374.5C 308.244,388.018 324.911,391.018 343.5,383.5C 344.386,382.675 344.719,381.675 344.5,380.5C 341.42,380.748 338.42,381.414 335.5,382.5C 334.584,382.457 333.917,382.124 333.5,381.5 Z"/></g>
<g><path style="opacity:0.247" fill="#b3b1b2" d="M 371.5,382.5 C 374.331,383.079 376.664,384.412 378.5,386.5C 375.674,386.002 373.34,384.669 371.5,382.5 Z"/></g>
<g><path style="opacity:0.129" fill="#adacad" d="M 330.5,382.5 C 321.466,384.927 311.799,383.094 301.5,377C 299.284,374.447 296.784,372.28 294,370.5C 290.693,372.313 287.526,374.313 284.5,376.5C 284.158,375.662 283.492,375.328 282.5,375.5C 286.683,373.472 290.516,370.805 294,367.5C 296.821,368.987 298.987,371.154 300.5,374C 309.747,379.809 319.747,382.643 330.5,382.5 Z"/></g>
<g><path style="opacity:0.132" fill="#b3b3b3" d="M 282.5,375.5 C 283.492,375.328 284.158,375.662 284.5,376.5C 278.635,378.156 272.635,378.823 266.5,378.5C 267.568,377.566 268.901,377.232 270.5,377.5C 274.443,376.514 278.443,375.848 282.5,375.5 Z"/></g>
<g><path style="opacity:1" fill="#2e2b2c" d="M 330.5,382.5 C 331.209,381.596 332.209,381.263 333.5,381.5C 333.917,382.124 334.584,382.457 335.5,382.5C 338.42,381.414 341.42,380.748 344.5,380.5C 344.719,381.675 344.386,382.675 343.5,383.5C 324.911,391.018 308.244,388.018 293.5,374.5C 283.554,382.065 272.554,384.065 260.5,380.5C 260.5,379.5 260.5,378.5 260.5,377.5C 262.565,377.517 264.565,377.85 266.5,378.5C 272.635,378.823 278.635,378.156 284.5,376.5C 287.526,374.313 290.693,372.313 294,370.5C 296.784,372.28 299.284,374.447 301.5,377C 311.799,383.094 321.466,384.927 330.5,382.5 Z"/></g>
<g><path style="opacity:0.067" fill="#999999" d="M 557.5,428.5 C 558.552,428.351 559.552,428.517 560.5,429C 559,430.115 557.333,430.948 555.5,431.5C 556.279,451.801 546.946,464.635 527.5,470C 522.342,470.91 517.342,470.41 512.5,468.5C 510.77,470.793 509.437,473.293 508.5,476C 505.201,479.482 501.201,481.649 496.5,482.5C 496.5,482.167 496.5,481.833 496.5,481.5C 499.447,480.356 502.113,478.689 504.5,476.5C 507.178,473.127 509.844,469.794 512.5,466.5C 529.438,470.887 542.271,465.22 551,449.5C 551.912,446.018 552.745,442.518 553.5,439C 551.196,433.915 552.529,430.415 557.5,428.5 Z"/></g>
<g><path style="opacity:0.216" fill="#a7a6a7" d="M 313.5,471.5 C 316.947,471.814 320.28,472.648 323.5,474C 328.243,474.543 332.91,474.543 337.5,474C 342.791,481.98 350.124,486.98 359.5,489C 362.002,492.333 364.668,495.499 367.5,498.5C 363.243,496.894 359.909,494.061 357.5,490C 348.776,488.426 342.109,483.926 337.5,476.5C 332.29,476.201 326.957,475.701 321.5,475C 318.47,474.422 315.803,473.255 313.5,471.5 Z"/></g>
<g><path style="opacity:0.982" fill="#2c292a" d="M 379.5,473.5 C 382.833,473.5 386.167,473.5 389.5,473.5C 389.5,474.5 389.5,475.5 389.5,476.5C 379.058,475.803 371.558,480.136 367,489.5C 365.327,486.761 365.661,484.095 368,481.5C 371.482,478.161 375.315,475.494 379.5,473.5 Z"/></g>
<g><path style="opacity:0.22" fill="#abaaab" d="M 411.5,484.5 C 412.376,484.369 413.043,484.702 413.5,485.5C 409.833,488.667 406.167,491.833 402.5,495C 401.563,495.692 400.897,495.525 400.5,494.5C 402.167,493.5 403.5,492.167 404.5,490.5C 405.167,490.5 405.5,490.167 405.5,489.5C 406.167,489.5 406.5,489.167 406.5,488.5C 407.833,488.5 408.5,487.833 408.5,486.5C 410.027,486.573 411.027,485.906 411.5,484.5 Z"/></g>
<g><path style="opacity:0.035" fill="#abaaaa" d="M 496.5,438.5 C 497.552,438.351 498.552,438.517 499.5,439C 495.969,443.193 491.802,446.693 487,449.5C 486.517,450.448 486.351,451.448 486.5,452.5C 488.685,452.296 490.685,451.63 492.5,450.5C 490.344,452.841 487.844,454.841 485,456.5C 482.45,461.556 479.284,466.223 475.5,470.5C 479.136,472.243 482.803,474.576 486.5,477.5C 486.565,477.938 486.399,478.272 486,478.5C 482.222,475.861 478.056,474.195 473.5,473.5C 471.312,473.307 469.645,474.141 468.5,476C 475.978,476.431 482.312,479.264 487.5,484.5C 489.957,482.999 489.957,481.332 487.5,479.5C 487.957,478.702 488.624,478.369 489.5,478.5C 490.401,479.29 491.068,480.29 491.5,481.5C 492.919,482.451 494.585,482.784 496.5,482.5C 494.723,483.6 492.723,484.434 490.5,485C 479.796,499.167 467.796,500.167 454.5,488C 452.597,487.226 450.93,487.56 449.5,489C 459.631,500.383 471.631,503.05 485.5,497C 488.206,494.629 490.539,491.963 492.5,489C 502.179,486.917 509.679,481.75 515,473.5C 536.523,475.981 550.856,466.981 558,446.5C 558.173,442.459 558.673,438.459 559.5,434.5C 561.075,433.544 562.742,432.877 564.5,432.5C 563.878,434.335 562.544,435.502 560.5,436C 560.833,437.667 561.167,439.333 561.5,441C 557.573,461.424 545.24,473.257 524.5,476.5C 521.311,475.929 517.978,475.929 514.5,476.5C 509.682,484.299 502.682,488.965 493.5,490.5C 485.615,501.556 475.282,504.722 462.5,500C 456.871,497.602 452.037,494.102 448,489.5C 437.842,494.986 427.675,500.486 417.5,506C 411.756,508.215 406.09,510.382 400.5,512.5C 418.502,503.329 436.502,493.829 454.5,484C 462.917,478.254 470.75,471.754 478,464.5C 482.244,459.842 484.41,454.342 484.5,448C 483.248,440.335 480.248,433.502 475.5,427.5C 475.5,426.833 475.833,426.5 476.5,426.5C 479.135,423.519 482.468,422.186 486.5,422.5C 486.799,424.604 486.466,426.604 485.5,428.5C 483.625,429.54 482.292,431.04 481.5,433C 483.623,437.416 485.623,441.916 487.5,446.5C 491.14,444.525 494.14,441.858 496.5,438.5 Z M 466.5,477.5 C 474.203,477.269 480.703,479.936 486,485.5C 486.667,486.5 486.667,487.5 486,488.5C 478.636,495.669 470.469,496.503 461.5,491C 459.024,489.691 457.024,487.858 455.5,485.5C 459.185,482.809 462.852,480.142 466.5,477.5 Z"/></g>
<g><path style="opacity:0.004" fill="#353434" d="M 496.5,481.5 C 496.5,481.833 496.5,482.167 496.5,482.5C 494.585,482.784 492.919,482.451 491.5,481.5C 493.475,481.178 495.142,481.178 496.5,481.5 Z"/></g>
<g><path style="opacity:0.99" fill="#333132" d="M 486.5,477.5 C 487.791,477.263 488.791,477.596 489.5,478.5C 488.624,478.369 487.957,478.702 487.5,479.5C 489.957,481.332 489.957,482.999 487.5,484.5C 482.312,479.264 475.978,476.431 468.5,476C 469.645,474.141 471.312,473.307 473.5,473.5C 478.056,474.195 482.222,475.861 486,478.5C 486.399,478.272 486.565,477.938 486.5,477.5 Z"/></g>
<g><path style="opacity:0.988" fill="#2e2b2c" d="M 496.5,438.5 C 498.79,437.133 500.456,437.8 501.5,440.5C 500.226,441.189 500.226,442.023 501.5,443C 509.742,448.241 518.742,449.908 528.5,448C 530.345,446.872 532.345,446.372 534.5,446.5C 534.719,447.675 534.386,448.675 533.5,449.5C 524.615,453.035 515.615,453.369 506.5,450.5C 504.196,448.343 501.529,446.676 498.5,445.5C 495.898,446.434 493.898,448.101 492.5,450.5C 490.685,451.63 488.685,452.296 486.5,452.5C 486.351,451.448 486.517,450.448 487,449.5C 491.802,446.693 495.969,443.193 499.5,439C 498.552,438.517 497.552,438.351 496.5,438.5 Z"/></g>
<g><path style="opacity:0.055" fill="#aeacad" d="M 506.5,450.5 C 503.72,450.193 501.22,449.193 499,447.5C 497.14,449.201 494.973,450.201 492.5,450.5C 493.898,448.101 495.898,446.434 498.5,445.5C 501.529,446.676 504.196,448.343 506.5,450.5 Z"/></g>
<g><path style="opacity:0.145" fill="#b0aeaf" d="M 501.5,440.5 C 511.47,447.943 521.803,448.943 532.5,443.5C 536.426,446.31 536.426,449.143 532.5,452C 523.492,455.35 514.825,454.85 506.5,450.5C 515.615,453.369 524.615,453.035 533.5,449.5C 534.386,448.675 534.719,447.675 534.5,446.5C 532.345,446.372 530.345,446.872 528.5,448C 518.742,449.908 509.742,448.241 501.5,443C 500.226,442.023 500.226,441.189 501.5,440.5 Z"/></g>
<g><path style="opacity:0.925" fill="#302d2e" d="M 481.5,424.5 C 482.5,424.5 483.5,424.5 484.5,424.5C 484.621,427.541 483.121,429.208 480,429.5C 478.941,429.37 478.108,428.87 477.5,428C 479.093,427.051 480.426,425.885 481.5,424.5 Z"/></g>
<g><path style="opacity:0.31" fill="#a09f9f" d="M 394.5,487.5 C 395.239,487.369 395.906,487.536 396.5,488C 393.962,491.433 390.629,493.6 386.5,494.5C 386.158,493.662 385.492,493.328 384.5,493.5C 388.42,492.538 391.753,490.538 394.5,487.5 Z"/></g>
<g><path style="opacity:0.176" fill="#939292" d="M 415.5,358.5 C 424.04,375.832 423.04,392.665 412.5,409C 418.801,416.371 420.968,424.871 419,434.5C 417.421,438.655 415.588,442.655 413.5,446.5C 420.041,460.773 418.375,474.106 408.5,486.5C 407.5,486.833 406.833,487.5 406.5,488.5C 405.833,488.5 405.5,488.833 405.5,489.5C 404.833,489.5 404.5,489.833 404.5,490.5C 402.251,491.08 400.585,492.413 399.5,494.5C 398.833,494.5 398.5,494.833 398.5,495.5C 397.167,495.833 395.833,496.167 394.5,496.5C 399.438,492.064 404.271,487.397 409,482.5C 416.541,470.964 417.375,458.964 411.5,446.5C 419.808,433.53 419.474,420.864 410.5,408.5C 419.52,393.167 420.854,377.167 414.5,360.5C 415.338,360.158 415.672,359.492 415.5,358.5 Z"/></g>
<g><path style="opacity:0.999" fill="#2a2728" d="M 474.5,106.5 C 488.555,105.035 501.722,107.702 514,114.5C 514.464,113.906 514.631,113.239 514.5,112.5C 516.909,113.701 518.909,115.367 520.5,117.5C 519.475,117.897 519.308,118.563 520,119.5C 524.06,123.292 527.393,127.626 530,132.5C 533.764,134.632 537.264,137.132 540.5,140C 550.024,148.178 556.191,158.345 559,170.5C 560.554,172.927 561.721,172.927 562.5,170.5C 563.833,171.167 564.833,172.167 565.5,173.5C 564.957,173.56 564.624,173.893 564.5,174.5C 578.487,186.926 585.653,202.592 586,221.5C 591.059,228.228 595.726,235.228 600,242.5C 608.68,258.386 607.18,273.053 595.5,286.5C 594.351,286.791 593.684,287.624 593.5,289C 595.817,294.618 597.317,300.451 598,306.5C 603.365,311.896 607.199,318.229 609.5,325.5C 611.235,333.717 611.902,342.05 611.5,350.5C 610.053,361.061 605.22,369.728 597,376.5C 596.921,382.959 596.088,389.293 594.5,395.5C 594.624,396.107 594.957,396.44 595.5,396.5C 595.672,397.492 595.338,398.158 594.5,398.5C 594.19,397.262 593.69,397.262 593,398.5C 590.381,402.95 587.214,406.95 583.5,410.5C 581.031,411.569 578.698,412.902 576.5,414.5C 575.097,417.875 573.597,421.209 572,424.5C 569.295,427.036 566.795,429.703 564.5,432.5C 562.742,432.877 561.075,433.544 559.5,434.5C 558.673,438.459 558.173,442.459 558,446.5C 550.856,466.981 536.523,475.981 515,473.5C 509.679,481.75 502.179,486.917 492.5,489C 490.539,491.963 488.206,494.629 485.5,497C 471.631,503.05 459.631,500.383 449.5,489C 450.93,487.56 452.597,487.226 454.5,488C 467.796,500.167 479.796,499.167 490.5,485C 492.723,484.434 494.723,483.6 496.5,482.5C 501.201,481.649 505.201,479.482 508.5,476C 509.437,473.293 510.77,470.793 512.5,468.5C 517.342,470.41 522.342,470.91 527.5,470C 546.946,464.635 556.279,451.801 555.5,431.5C 557.333,430.948 559,430.115 560.5,429C 559.552,428.517 558.552,428.351 557.5,428.5C 558.671,427.655 560.005,426.989 561.5,426.5C 561.369,427.239 561.536,427.906 562,428.5C 568.063,423.994 571.73,417.994 573,410.5C 588.082,403.995 594.582,392.662 592.5,376.5C 597.165,371.315 601.331,365.649 605,359.5C 612.375,340.157 608.875,323.157 594.5,308.5C 594.36,300.746 592.026,293.746 587.5,287.5C 588.04,286.252 588.707,285.085 589.5,284C 597.789,279.257 601.789,272.09 601.5,262.5C 600.347,250.532 595.681,240.198 587.5,231.5C 586.277,228.726 584.777,226.059 583,223.5C 582.85,209.384 578.517,196.717 570,185.5C 566.225,180.887 561.725,177.22 556.5,174.5C 553.801,161.276 547.134,150.442 536.5,142C 530.777,139.254 526.61,135.087 524,129.5C 520.025,123.003 514.525,118.67 507.5,116.5C 502.599,113.765 497.265,111.931 491.5,111C 481.283,110.129 471.283,110.629 461.5,112.5C 451.629,115.202 445.129,121.536 442,131.5C 441.039,140.274 441.539,148.941 443.5,157.5C 442.411,167.146 442.245,176.812 443,186.5C 444.125,192.377 445.959,198.044 448.5,203.5C 438.061,215.483 433.395,229.483 434.5,245.5C 435.039,262.695 438.706,279.195 445.5,295C 444.991,296.169 444.158,297.002 443,297.5C 435.742,283.473 431.742,268.473 431,252.5C 428.361,233.889 432.528,217.055 443.5,202C 440.502,195.505 439.002,188.672 439,181.5C 439.927,165.786 439.594,150.119 438,134.5C 439.914,120.759 447.414,111.759 460.5,107.5C 465.193,107.46 469.859,107.127 474.5,106.5 Z M 480.5,257.5 C 476.184,262.441 474.518,268.108 475.5,274.5C 479.554,270.354 481.887,265.354 482.5,259.5C 482.253,258.287 481.586,257.62 480.5,257.5 Z M 542.5,239.5 C 546.164,237.798 548.997,238.798 551,242.5C 554.248,247.888 556.415,253.554 557.5,259.5C 557.675,261.621 557.341,263.621 556.5,265.5C 556.855,274.148 553.189,280.148 545.5,283.5C 543.302,283.12 541.635,283.787 540.5,285.5C 538.266,285.38 536.099,285.713 534,286.5C 532.272,286.101 530.772,285.434 529.5,284.5C 535.948,275.49 537.782,265.49 535,254.5C 532.916,248.661 530.083,243.327 526.5,238.5C 525.15,237.176 525.317,236.176 527,235.5C 531.832,237.948 536.998,239.281 542.5,239.5 Z M 451.5,218.5 C 452.035,220.446 453.368,221.446 455.5,221.5C 455.5,222.167 455.5,222.833 455.5,223.5C 451.53,229.578 449.696,236.244 450,243.5C 451.25,247.133 453.583,248.133 457,246.5C 457.758,244.231 457.591,242.064 456.5,240C 457.132,235.57 458.965,231.737 462,228.5C 470.209,233.229 476.375,239.896 480.5,248.5C 469.747,257 465.414,268 467.5,281.5C 462.084,286.627 455.917,290.627 449,293.5C 448.228,293.355 447.561,293.022 447,292.5C 439.137,274.655 435.803,255.988 437,236.5C 437.623,228.668 439.79,221.335 443.5,214.5C 445.955,216.297 448.622,217.63 451.5,218.5 Z"/></g>
<g><path style="opacity:0.009" fill="#333333" d="M 545.5,283.5 C 544.07,284.537 542.403,285.204 540.5,285.5C 541.635,283.787 543.302,283.12 545.5,283.5 Z"/></g>
<g><path style="opacity:0.231" fill="#929191" d="M 526.5,238.5 C 530.083,243.327 532.916,248.661 535,254.5C 537.782,265.49 535.948,275.49 529.5,284.5C 529.5,283.833 529.167,283.5 528.5,283.5C 535.657,268.832 534.99,254.498 526.5,240.5C 526.5,239.833 526.5,239.167 526.5,238.5 Z"/></g>
<g><path style="opacity:0.357" fill="#989798" d="M 547.5,199.5 C 548.5,199.5 549.5,199.5 550.5,199.5C 551.496,199.414 552.329,199.748 553,200.5C 553.471,202.246 554.138,203.913 555,205.5C 556.622,210.645 557.788,215.812 558.5,221C 557.617,225.653 555.95,229.986 553.5,234C 557.312,239.124 560.479,244.624 563,250.5C 566.408,245.258 570.908,241.258 576.5,238.5C 578.965,239.132 580.631,240.632 581.5,243C 576.83,245.916 572.664,249.416 569,253.5C 566.079,258.849 564.579,264.016 564.5,269C 562.745,274.605 560.411,279.938 557.5,285C 554.968,286.765 552.301,288.265 549.5,289.5C 549.5,288.833 549.167,288.5 548.5,288.5C 552.509,286.901 555.675,284.235 558,280.5C 560.232,271.236 563.232,262.236 567,253.5C 569.419,249.248 572.919,246.248 577.5,244.5C 578.386,243.675 578.719,242.675 578.5,241.5C 575.072,241.547 572.072,242.713 569.5,245C 566.639,247.894 564.139,251.061 562,254.5C 559.948,246.719 556.114,240.052 550.5,234.5C 557.369,222.937 557.036,211.604 549.5,200.5C 549.167,201.167 548.833,201.833 548.5,202.5C 550.485,207.757 551.818,213.091 552.5,218.5C 553.119,224.427 551.119,229.26 546.5,233C 544.333,233.167 542.167,233.333 540,233.5C 534.667,233.219 529.5,232.219 524.5,230.5C 525.833,229.833 527.167,229.167 528.5,228.5C 545.622,236.893 552.789,231.56 550,212.5C 548.305,209.082 546.805,205.582 545.5,202C 545.639,200.699 546.305,199.866 547.5,199.5 Z"/></g>
<g><path style="opacity:0.68" fill="#5f5e5e" d="M 558.5,256.5 C 559.833,260.167 559.833,263.833 558.5,267.5C 558.5,266.167 557.833,265.5 556.5,265.5C 557.341,263.621 557.675,261.621 557.5,259.5C 558.404,258.791 558.737,257.791 558.5,256.5 Z"/></g>
<g><path style="opacity:0.998" fill="#2e2a2b" d="M 479.5,251.5 C 481.344,252.204 481.844,253.537 481,255.5C 473.783,261.802 470.45,269.802 471,279.5C 470.586,279.957 470.086,280.291 469.5,280.5C 467.422,268.986 470.755,259.319 479.5,251.5 Z"/></g>
<g><path style="opacity:0.408" fill="#a0a0a0" d="M 558.5,256.5 C 558.737,257.791 558.404,258.791 557.5,259.5C 556.415,253.554 554.248,247.888 551,242.5C 548.997,238.798 546.164,237.798 542.5,239.5C 541.833,238.833 541.167,238.167 540.5,237.5C 545.242,235.18 549.075,236.18 552,240.5C 555.83,245.157 557.997,250.491 558.5,256.5 Z"/></g>
<g><path style="opacity:1" fill="#2b2829" d="M 548.5,288.5 C 539.942,290.776 531.275,291.943 522.5,292C 523.833,290.667 525.167,289.333 526.5,288C 531.167,287.667 535.833,287.333 540.5,287C 551.923,285.414 557.923,278.914 558.5,267.5C 559.833,263.833 559.833,260.167 558.5,256.5C 557.997,250.491 555.83,245.157 552,240.5C 549.075,236.18 545.242,235.18 540.5,237.5C 538.143,237.663 535.81,237.497 533.5,237C 529.486,234.863 525.486,233.03 521.5,231.5C 522.325,230.614 523.325,230.281 524.5,230.5C 529.5,232.219 534.667,233.219 540,233.5C 542.167,233.333 544.333,233.167 546.5,233C 551.119,229.26 553.119,224.427 552.5,218.5C 551.818,213.091 550.485,207.757 548.5,202.5C 548.833,201.833 549.167,201.167 549.5,200.5C 557.036,211.604 557.369,222.937 550.5,234.5C 556.114,240.052 559.948,246.719 562,254.5C 564.139,251.061 566.639,247.894 569.5,245C 572.072,242.713 575.072,241.547 578.5,241.5C 578.719,242.675 578.386,243.675 577.5,244.5C 572.919,246.248 569.419,249.248 567,253.5C 563.232,262.236 560.232,271.236 558,280.5C 555.675,284.235 552.509,286.901 548.5,288.5 Z"/></g>
<g><path style="opacity:0.098" fill="#bebdbd" d="M 528.5,228.5 C 527.167,229.167 525.833,229.833 524.5,230.5C 523.325,230.281 522.325,230.614 521.5,231.5C 525.486,233.03 529.486,234.863 533.5,237C 535.81,237.497 538.143,237.663 540.5,237.5C 541.167,238.167 541.833,238.833 542.5,239.5C 536.998,239.281 531.832,237.948 527,235.5C 525.317,236.176 525.15,237.176 526.5,238.5C 526.5,239.167 526.5,239.833 526.5,240.5C 523.152,237.149 520.152,233.482 517.5,229.5C 518.5,229.5 519.5,229.5 520.5,229.5C 521.458,229.047 522.292,228.381 523,227.5C 524.714,227.205 526.547,227.538 528.5,228.5 Z"/></g>
<g><path style="opacity:0.98" fill="#312e2f" d="M 457.5,224.5 C 458.995,224.415 459.995,225.081 460.5,226.5C 458.501,228.493 457.001,230.827 456,233.5C 455.828,237.871 455.328,242.204 454.5,246.5C 453.522,246.023 452.689,245.357 452,244.5C 450.887,237.007 452.721,230.34 457.5,224.5 Z"/></g>
<g><path style="opacity:0.102" fill="#7d7c7c" d="M 498.5,211.5 C 506.439,216.774 513.772,222.774 520.5,229.5C 519.5,229.5 518.5,229.5 517.5,229.5C 511.211,224.219 504.878,218.886 498.5,213.5C 497.227,212.743 497.227,212.077 498.5,211.5 Z"/></g>
<g><path style="opacity:0.29" fill="#b5b4b4" d="M 451.5,218.5 C 453.404,218.738 454.738,219.738 455.5,221.5C 453.368,221.446 452.035,220.446 451.5,218.5 Z"/></g>
<g><path style="opacity:0.047" fill="#5e5e5e" d="M 550.5,199.5 C 549.5,199.5 548.5,199.5 547.5,199.5C 548.5,196.833 549.5,196.833 550.5,199.5 Z"/></g>
<g><path style="opacity:0.014" fill="#c2c1c2" d="M 533.5,186.5 C 533.5,186.833 533.5,187.167 533.5,187.5C 533.063,189.074 532.063,190.241 530.5,191C 527.343,192.578 524.009,193.578 520.5,194C 511.563,194.276 502.73,195.109 494,196.5C 491.167,196.333 488.333,196.167 485.5,196C 484.944,195.617 484.611,195.117 484.5,194.5C 487.302,194.982 490.135,195.316 493,195.5C 503.015,193.204 513.182,192.037 523.5,192C 527.311,190.93 530.644,189.097 533.5,186.5 Z"/></g>
<g><path style="opacity:0.061" fill="#8c8a8b" d="M 533.5,187.5 C 533.5,187.167 533.5,186.833 533.5,186.5C 534.434,184.761 534.434,183.095 533.5,181.5C 527.914,187.631 520.914,190.297 512.5,189.5C 512.5,188.833 512.167,188.5 511.5,188.5C 515.619,187.262 519.953,186.429 524.5,186C 527.938,183.602 531.271,181.102 534.5,178.5C 538.296,181.825 537.963,184.825 533.5,187.5 Z"/></g>
<g><path style="opacity:0.51" fill="#9e9d9e" d="M 463.5,126.5 C 463.5,127.167 463.833,127.5 464.5,127.5C 464.351,128.552 464.517,129.552 465,130.5C 471.733,133.357 476.733,138.024 480,144.5C 480.667,146.833 480.667,149.167 480,151.5C 473.751,155.389 470.584,161.056 470.5,168.5C 470.521,179.887 475.187,188.553 484.5,194.5C 475.291,191.129 470.124,184.463 469,174.5C 468.086,168.97 468.753,163.637 471,158.5C 473.171,155.018 475.671,151.852 478.5,149C 477.966,145.057 476.466,141.557 474,138.5C 470.688,135.344 467.021,132.677 463,130.5C 462.235,128.934 462.402,127.601 463.5,126.5 Z"/></g>
<g><path style="opacity:0.38" fill="#908f90" d="M 493.5,166.5 C 495.361,167.507 498.028,167.84 501.5,167.5C 498.375,168.479 495.042,168.813 491.5,168.5C 491.5,169.5 491.5,170.5 491.5,171.5C 489.137,169.917 489.137,168.084 491.5,166C 492.437,165.308 493.103,165.475 493.5,166.5 Z"/></g>
<g><path style="opacity:0.991" fill="#2b2829" d="M 491.5,171.5 C 491.5,170.5 491.5,169.5 491.5,168.5C 495.042,168.813 498.375,168.479 501.5,167.5C 502.167,167.5 502.833,167.5 503.5,167.5C 508.653,165.752 513.653,163.752 518.5,161.5C 518.67,162.822 518.337,163.989 517.5,165C 509.62,170.303 500.954,172.47 491.5,171.5 Z"/></g>
<g><path style="opacity:0.114" fill="#c4c2c3" d="M 501.5,166.5 C 502.492,166.328 503.158,166.662 503.5,167.5C 502.833,167.5 502.167,167.5 501.5,167.5C 498.028,167.84 495.361,167.507 493.5,166.5C 496.266,165.768 498.932,165.768 501.5,166.5 Z"/></g>
<g><path style="opacity:0.31" fill="#a4a3a3" d="M 482.5,154.5 C 482.5,154.833 482.5,155.167 482.5,155.5C 475.917,162.751 474.251,170.751 477.5,179.5C 477.607,181.379 477.107,181.712 476,180.5C 472.361,172.922 472.694,165.588 477,158.5C 478.451,156.536 480.284,155.203 482.5,154.5 Z"/></g>
<g><path style="opacity:0.525" fill="#9a999a" d="M 491.5,171.5 C 500.954,172.47 509.62,170.303 517.5,165C 518.337,163.989 518.67,162.822 518.5,161.5C 513.653,163.752 508.653,165.752 503.5,167.5C 503.158,166.662 502.492,166.328 501.5,166.5C 507.126,165.185 512.126,162.518 516.5,158.5C 521.199,159.544 522.199,161.877 519.5,165.5C 512.761,170.068 505.261,172.734 497,173.5C 494.779,173.607 492.946,172.94 491.5,171.5 Z"/></g>
<g><path style="opacity:0.008" fill="#646464" d="M 444.5,161.5 C 444.214,167.259 444.548,172.925 445.5,178.5C 444.186,176.085 443.519,173.252 443.5,170C 443.502,166.979 443.836,164.146 444.5,161.5 Z"/></g>
<g><path style="opacity:0.017" fill="#c0bfbf" d="M 520.5,145.5 C 521.167,145.5 521.5,145.833 521.5,146.5C 512.039,149.189 502.373,151.022 492.5,152C 489.101,153.077 485.767,154.244 482.5,155.5C 482.5,155.167 482.5,154.833 482.5,154.5C 487.396,151.765 492.73,149.932 498.5,149C 506.03,148.93 513.364,147.763 520.5,145.5 Z"/></g>
<g><path style="opacity:0.998" fill="#2b2829" d="M 464.5,127.5 C 466.216,127.629 467.883,127.962 469.5,128.5C 476.308,132.476 480.975,138.143 483.5,145.5C 483.5,146.5 483.5,147.5 483.5,148.5C 495.556,146.659 507.556,144.493 519.5,142C 521.35,139.982 523.35,138.149 525.5,136.5C 527.885,137.813 528.052,139.48 526,141.5C 523.985,142.697 522.151,144.03 520.5,145.5C 513.364,147.763 506.03,148.93 498.5,149C 492.73,149.932 487.396,151.765 482.5,154.5C 480.284,155.203 478.451,156.536 477,158.5C 472.694,165.588 472.361,172.922 476,180.5C 477.107,181.712 477.607,181.379 477.5,179.5C 478.401,180.29 479.068,181.29 479.5,182.5C 477.972,182.517 477.472,183.184 478,184.5C 480.483,187.823 483.649,190.157 487.5,191.5C 489.452,191.995 491.452,192.328 493.5,192.5C 499.708,190.698 506.041,189.698 512.5,189.5C 520.914,190.297 527.914,187.631 533.5,181.5C 534.434,183.095 534.434,184.761 533.5,186.5C 530.644,189.097 527.311,190.93 523.5,192C 513.182,192.037 503.015,193.204 493,195.5C 490.135,195.316 487.302,194.982 484.5,194.5C 475.187,188.553 470.521,179.887 470.5,168.5C 470.584,161.056 473.751,155.389 480,151.5C 480.667,149.167 480.667,146.833 480,144.5C 476.733,138.024 471.733,133.357 465,130.5C 464.517,129.552 464.351,128.552 464.5,127.5 Z"/></g>
<g><path style="opacity:0.133" fill="#a7a6a6" d="M 511.5,188.5 C 512.167,188.5 512.5,188.833 512.5,189.5C 506.041,189.698 499.708,190.698 493.5,192.5C 491.452,192.328 489.452,191.995 487.5,191.5C 487.842,190.662 488.508,190.328 489.5,190.5C 492.409,190.075 495.242,190.075 498,190.5C 500.343,189.873 502.51,188.873 504.5,187.5C 506.747,188.374 509.08,188.708 511.5,188.5 Z"/></g>
<g><path style="opacity:0.506" fill="#8d8c8c" d="M 479.5,182.5 C 482.176,186.046 485.509,188.713 489.5,190.5C 488.508,190.328 487.842,190.662 487.5,191.5C 483.649,190.157 480.483,187.823 478,184.5C 477.472,183.184 477.972,182.517 479.5,182.5 Z"/></g>
<g><path style="opacity:0.28" fill="#9a9999" d="M 507.5,116.5 C 514.525,118.67 520.025,123.003 524,129.5C 526.61,135.087 530.777,139.254 536.5,142C 547.134,150.442 553.801,161.276 556.5,174.5C 561.725,177.22 566.225,180.887 570,185.5C 578.517,196.717 582.85,209.384 583,223.5C 584.777,226.059 586.277,228.726 587.5,231.5C 586.504,231.586 585.671,231.252 585,230.5C 581.148,224.131 579.148,217.131 579,209.5C 575.642,194.162 567.309,182.496 554,174.5C 550.715,159.726 542.881,148.059 530.5,139.5C 527.792,142.209 524.792,144.542 521.5,146.5C 521.5,145.833 521.167,145.5 520.5,145.5C 522.151,144.03 523.985,142.697 526,141.5C 528.052,139.48 527.885,137.813 525.5,136.5C 523.35,138.149 521.35,139.982 519.5,142C 507.556,144.493 495.556,146.659 483.5,148.5C 483.5,147.5 483.5,146.5 483.5,145.5C 483.5,144.833 483.833,144.5 484.5,144.5C 488.33,145.953 491.997,145.62 495.5,143.5C 499.525,143.623 503.525,143.623 507.5,143.5C 510.308,142.03 513.308,141.197 516.5,141C 521.567,139.63 523.733,136.463 523,131.5C 521.333,129.167 519.667,126.833 518,124.5C 514.342,121.934 510.842,119.268 507.5,116.5 Z"/></g>
<g><path style="opacity:0.475" fill="#818081" d="M 469.5,127.5 C 477.643,130.314 482.643,135.98 484.5,144.5C 483.833,144.5 483.5,144.833 483.5,145.5C 480.975,138.143 476.308,132.476 469.5,128.5C 469.5,128.167 469.5,127.833 469.5,127.5 Z"/></g>
<g><path style="opacity:0.149" fill="#a09fa0" d="M 469.5,127.5 C 469.5,127.833 469.5,128.167 469.5,128.5C 467.883,127.962 466.216,127.629 464.5,127.5C 463.833,127.5 463.5,127.167 463.5,126.5C 464.097,125.861 464.93,125.528 466,125.5C 467.699,125.387 468.866,126.053 469.5,127.5 Z"/></g>
<g><path style="opacity:0.048" fill="#c8c8c8" d="M 507.5,116.5 C 492.476,111.193 477.143,110.193 461.5,113.5C 461.5,113.167 461.5,112.833 461.5,112.5C 471.283,110.629 481.283,110.129 491.5,111C 497.265,111.931 502.599,113.765 507.5,116.5 Z"/></g>
<g><path style="opacity:0.055" fill="#c1bfc0" d="M 384.5,493.5 C 385.492,493.328 386.158,493.662 386.5,494.5C 381.943,496.599 377.277,496.933 372.5,495.5C 373.209,494.596 374.209,494.263 375.5,494.5C 378.545,494.492 381.545,494.159 384.5,493.5 Z"/></g>
<g><path style="opacity:0.251" fill="#b4b3b4" d="M 394.5,496.5 C 392.948,498.959 390.615,500.459 387.5,501C 382.167,501.667 376.833,501.667 371.5,501C 369.934,500.392 368.6,499.558 367.5,498.5C 376.708,501.539 385.708,500.872 394.5,496.5 Z"/></g>
<g><path style="opacity:0.161" fill="#bbbaba" d="M 399.5,513.5 C 395.042,515.728 390.375,517.395 385.5,518.5C 389.562,516.135 393.895,514.135 398.5,512.5C 399.107,512.624 399.44,512.957 399.5,513.5 Z"/></g>
<g><path style="opacity:0.643" fill="#888788" d="M 398.5,496.5 C 398.938,496.435 399.272,496.601 399.5,497C 391.105,505.067 382.438,512.734 373.5,520C 376.691,520.031 379.857,519.531 383,518.5C 383.765,518.57 384.265,518.903 384.5,519.5C 380.01,521.111 375.343,521.778 370.5,521.5C 370.561,518.27 372.228,516.437 375.5,516C 382.746,508.914 390.412,502.414 398.5,496.5 Z"/></g>
</svg>
