<?xml version="1.0" encoding="UTF-8" standalone="no"?>
<!-- Created with Inkscape (http://www.inkscape.org/) -->

<svg
   version="1.1"
   id="svg2"
   width="4242.7202"
   height="946.93335"
   viewBox="0 0 4242.7202 946.93335"
   sodipodi:docname="vector file.eps"
   xmlns:inkscape="http://www.inkscape.org/namespaces/inkscape"
   xmlns:sodipodi="http://sodipodi.sourceforge.net/DTD/sodipodi-0.dtd"
   xmlns="http://www.w3.org/2000/svg"
   xmlns:svg="http://www.w3.org/2000/svg">
  <defs
     id="defs6" />
  <sodipodi:namedview
     id="namedview4"
     pagecolor="#ffffff"
     bordercolor="#000000"
     borderopacity="0.25"
     inkscape:showpageshadow="2"
     inkscape:pageopacity="0.0"
     inkscape:pagecheckerboard="0"
     inkscape:deskcolor="#d1d1d1" />
  <g
     id="g8"
     inkscape:groupmode="layer"
     inkscape:label="ink_ext_XXXXXX"
     transform="matrix(1.3333333,0,0,-1.3333333,0,946.93333)">
    <g
       id="g10"
       transform="scale(0.1)">
      <path
         d="m 28721.5,6548.72 c 43.5,-15.25 84.8,-34.87 122.8,-58.82 -37.4,24.69 -79,44.17 -122.8,58.82"
         style="fill:#211c1d;fill-opacity:1;fill-rule:nonzero;stroke:none"
         id="path12" />
      <path
         d="m 29210.4,2454.06 c 0.1,0.12 0.2,0.24 0.4,0.36 -2.2,-1.85 -4.5,-3.62 -6.7,-5.42 2.1,1.71 4.2,3.3 6.3,5.06"
         style="fill:#211c1d;fill-opacity:1;fill-rule:nonzero;stroke:none"
         id="path14" />
      <path
         d="m 29194.2,2441.03 c -4.4,-3.29 -8.8,-6.38 -13.3,-9.5 4.5,3.1 8.9,6.2 13.3,9.5"
         style="fill:#211c1d;fill-opacity:1;fill-rule:nonzero;stroke:none"
         id="path16" />
      <path
         d="m 28017.5,6068.48 c -0.6,1.96 -1.1,3.99 -1.7,5.97 0.5,-2.6 0.9,-5.19 1.4,-7.79 0.1,0.59 0.2,1.23 0.3,1.82"
         style="fill:#211c1d;fill-opacity:1;fill-rule:nonzero;stroke:none"
         id="path18" />
      <path
         d="m 27523.4,2154.18 c 16.5,14.07 37.9,26.73 55.6,43.97 2.4,2.39 4.6,4.98 7,7.44 -16.1,-14.9 -33.3,-28.75 -51.8,-41.3 -3.5,-3.46 -7.1,-6.79 -10.8,-10.11"
         style="fill:#211c1d;fill-opacity:1;fill-rule:nonzero;stroke:none"
         id="path20" />
      <path
         d="m 28464.4,2069.51 c -13,-4.84 -26.4,-8.85 -40.6,-11.45 14.1,1.96 27.6,5.74 40.6,11.45"
         style="fill:#211c1d;fill-opacity:1;fill-rule:nonzero;stroke:none"
         id="path22" />
      <path
         d="m 27514.5,2146.28 c -57.1,-49.55 -124.9,-80.91 -191.6,-89.82 66.6,0.57 138.8,36.58 191.6,89.82"
         style="fill:#211c1d;fill-opacity:1;fill-rule:nonzero;stroke:none"
         id="path24" />
      <path
         d="m 27112.9,5558.25 c -36.8,0 -76.5,6.81 -117.9,20.24 -41.7,13.54 -86.1,14.19 -129.1,14.83 -86.4,1.27 -167.9,2.48 -229.1,102.69 -2.8,4.58 -3.6,9.95 -2.4,15.14 1.3,5.15 4.5,9.48 9,12.19 3.2,1.98 6.8,3.01 10.5,3.01 7,0 13.2,-3.55 16.8,-9.46 50.7,-82.84 141.8,-85.31 222.2,-87.49 41.6,-1.11 81,-2.18 114.2,-12.93 37.3,-12.13 72.8,-18.3 105.6,-18.3 26.8,0 52.1,4.13 75.3,12.26 47.9,16.97 87.2,51.78 114.4,101.19 11.6,-5.9 23.6,-11.86 35.8,-17.82 -23.9,-43.87 -65.9,-95.76 -137,-120.94 -27.4,-9.7 -57.1,-14.61 -88.3,-14.61"
         style="fill:#211c1d;fill-opacity:1;fill-rule:nonzero;stroke:none"
         id="path26" />
      <path
         d="m 27075.3,5833.25 c -92.6,0 -192.8,36.66 -249.3,91.21 -6.4,6.17 -8.1,13.04 -5.2,20.45 3.3,8.18 11.8,14.35 19.6,14.35 4.6,0 9,-2.01 13.1,-5.97 41,-39.67 113.6,-70.05 186.1,-78.02 17.8,-13.85 36.6,-27.69 56.3,-41.36 -6.7,-0.43 -13.6,-0.66 -20.6,-0.66 v 0"
         style="fill:#211c1d;fill-opacity:1;fill-rule:nonzero;stroke:none"
         id="path28" />
      <path
         d="m 27125.5,5892.24 c 7.6,-5.34 15.5,-10.69 23.4,-16.04 -4.9,8.19 -12.8,14.33 -23.4,16.04"
         style="fill:#211c1d;fill-opacity:1;fill-rule:nonzero;stroke:none"
         id="path30" />
      <path
         d="m 27301.6,6197.83 c -1.2,2.22 -2.1,4.33 -2.8,6.31 -4.3,12.91 -8.1,26.08 -11.8,40.94 35.1,43 82,74.16 143.2,95.1 2.7,0.96 5.3,1.42 7.7,1.42 10.4,0 16.8,-9.23 18.2,-17.8 1,-5.96 0.7,-16.7 -13,-21.42 -60.3,-20.74 -104.5,-51.86 -135.2,-95.17 -2.1,-3 -4.2,-6.12 -6.3,-9.38"
         style="fill:#211c1d;fill-opacity:1;fill-rule:nonzero;stroke:none"
         id="path32" />
      <path
         d="m 27197.1,3970.13 c -28.7,46.9 -49.1,93.28 -60.9,138.08 -53.8,190.68 -257,342.36 -472.7,353.11 -95.9,0.01 -247.7,39.45 -287.1,113.5 -22.9,43.15 -38.8,89.97 -47.2,139.16 -37.3,141.62 -70.2,237.21 -186.7,286.53 -12.8,5.39 -12.8,15.65 -11.7,21.3 1.8,8.62 8.6,17.35 18.3,17.35 2.7,0 5.6,-0.64 8.6,-1.93 71,-30.04 115.4,-70.02 148.5,-133.68 l 19.8,-38.04 10.5,41.6 c 19.8,78.72 58.8,146.12 112.9,194.95 l 11.3,10.11 -9.3,11.94 c -76.1,98.26 -75.2,211.84 3.1,368.33 3.6,7.38 9.1,11.1 16.3,11.1 7.5,0 15.5,-4.37 19.3,-10.62 3.4,-5.41 3.4,-11.6 0,-18.39 -53.5,-107.3 -94.5,-232.06 7.8,-343.61 l 3.2,-3.5 4.6,-1.22 c 26,-6.95 49.9,-10.32 73,-10.32 48,0 92.6,14.69 140.5,46.24 3.7,2.56 7.6,3.8 11.6,3.8 1.4,0 2.9,-0.15 4.3,-0.46 61.4,-13.1 115.6,-19.46 165.7,-19.45 107.5,0 203.1,28.25 319.5,94.45 l 0.9,0.29 0.7,0.43 c 140.6,64.27 245.9,164.43 349.1,270.93 -3.7,-7.61 -7.5,-14.83 -11.5,-21.66 l -15.7,-27 17.7,-17.81 c -48.1,-48.16 -87.4,-84.34 -126.1,-116.18 l -17.6,-14.46 19.3,-11.97 c 103.3,-63.85 187.6,-192.86 149,-315.91 -3.6,-11.47 -11.6,-13.87 -17.7,-13.87 -7.3,0 -14.5,3.47 -18.4,8.81 -3.4,4.57 -4,10.21 -2,16.77 35,111.34 -52.7,232.38 -157.8,285.08 l -8.7,4.36 -7.9,-5.57 c -43.8,-30.64 -87.4,-55.8 -133.5,-76.91 -123.6,-70.1 -224.4,-99.73 -338.4,-99.73 -49.3,0 -101.8,5.68 -160.5,17.37 l -6.3,1.26 -5.5,-3.36 c -49.5,-30.55 -98.7,-45.39 -150.3,-45.39 -24.7,0 -49.9,3.25 -77,9.93 l -7.8,1.94 -6.3,-5.09 c -145.5,-117.8 -153,-345.59 -76.5,-489.09 27.8,-52.22 144.8,-81.14 183.5,-87.15 22.8,-3.5 45.6,-5.26 67.7,-5.26 101.3,0 188.4,35.8 252.2,103.5 4.1,4.4 8.7,6.63 13.5,6.63 8,0 16.3,-5.84 19.8,-13.9 3.1,-7.08 1.6,-13.87 -4.3,-20.18 -32.4,-34.46 -70.6,-61.72 -113.4,-81.01 l -36.4,-16.37 37.4,-13.77 c 111.4,-41.02 207.9,-112.07 271.7,-200.08 l 20.7,-28.61 8.3,34.35 c 4.1,17.2 9.8,34.11 16.9,50.25 31.1,70.9 91.8,129.7 166.6,161.36 l 5,2.12 2.7,4.7 c 50.6,87.25 51,212.19 0.8,303.84 -38.9,71.22 -101.8,112.28 -176.9,115.62 -5.4,0.22 -10.3,2.53 -13.9,6.46 -3.6,3.92 -5.4,9 -5.2,14.31 0.4,10.7 9.2,19.08 19.9,19.08 79.7,-3.59 149,-43.94 196.1,-113.63 59.3,-87.71 75.2,-208.45 40.5,-307.6 l -8.7,-24.73 26,3.19 c 12,1.47 24,2.2 35.7,2.2 62.7,0 119.4,-21.23 160.6,-59.96 -5.9,-13.34 -11.9,-26.27 -18.1,-38.76 -35,37.79 -85.5,58.83 -143.7,58.83 -12.9,0 -26.1,-1.05 -39.3,-3.12 -93.8,-14.85 -174.8,-76.01 -211.5,-159.64 -28.1,-63.88 -42.6,-169.26 43.4,-312.12 -11,-7.98 -21.7,-16.03 -32,-24.05"
         style="fill:#211c1d;fill-opacity:1;fill-rule:nonzero;stroke:none"
         id="path34" />
      <path
         d="m 26516.1,3704.64 c -81.1,0 -173.4,29.48 -229.8,73.36 l -8.5,6.62 -9.4,-5.23 c -36.3,-20.14 -79.9,-30.79 -126,-30.79 -61.6,0 -120.7,19.61 -162.1,53.82 -8.7,7.23 -8.3,15.2 -6.3,20.61 3.1,8.66 11.5,15.2 19.5,15.2 4.2,0 8.4,-1.69 12.4,-5.01 34.4,-28.55 84.3,-44.91 136.8,-44.91 47.9,0 92.3,13.45 125,37.9 3.5,2.59 7.9,3.15 10.9,3.15 6.8,0 12.5,-2.68 14.2,-4.49 51.7,-52.78 151.3,-80.34 223.2,-80.33 14.1,0 27.3,1 39.4,3.01 1.4,0.22 2.8,0.33 4.1,0.33 13.4,0 17.9,-11.89 18.5,-18.92 0.3,-4.2 0.2,-18.12 -16.2,-20.82 -14.2,-2.32 -29.6,-3.5 -45.7,-3.5 v 0"
         style="fill:#211c1d;fill-opacity:1;fill-rule:nonzero;stroke:none"
         id="path36" />
      <path
         d="m 26531.8,3018.18 c -56.7,0 -108.3,24.25 -153.5,72.07 -5.8,6.24 -7.3,12.98 -4.2,20.01 3.4,8.03 11.7,13.87 19.7,13.87 4.9,0 9.5,-2.26 13.7,-6.68 37.7,-39.92 78.4,-59.32 124.5,-59.32 21,0 43.5,4.26 66.8,12.66 l 2.4,0.86 2,1.57 c 86.8,67.08 191.8,105.55 287.9,105.55 82.6,0 156.6,-28.72 214.1,-83.06 l 4.5,-4.26 6.2,-0.2 c 2.4,-0.06 4.7,-0.09 7.1,-0.09 137.5,0 210.4,113.47 223.1,228.92 12.1,-7 24.6,-14.19 37.2,-21.55 -19.8,-124.83 -106.9,-247.35 -261.1,-247.35 -7.6,0 -15.3,0.3 -23.1,0.9 -5.6,0.51 -8.6,1.96 -12.4,5.97 -50.9,53 -118.5,81 -195.6,81 -88.2,0 -188.4,-37.66 -268,-100.72 -1.2,-0.96 -1.9,-1.58 -2.6,-2.02 -0.6,-0.3 -1.3,-0.53 -2.4,-0.91 -29.9,-11.47 -58.8,-17.22 -86.3,-17.22"
         style="fill:#211c1d;fill-opacity:1;fill-rule:nonzero;stroke:none"
         id="path38" />
      <path
         d="m 27467.8,2808.74 c -92.8,0 -193.1,36.69 -249.5,91.31 -3.9,3.7 -6.1,8.63 -6.2,13.93 -0.1,5.31 1.8,10.35 5.5,14.17 3.8,3.97 9,6.15 14.5,6.15 5.2,0 10.1,-1.97 13.8,-5.53 48.8,-47.2 140,-80.17 221.7,-80.17 14.2,0 27.8,1.05 40.2,3.1 1.5,0.24 2.9,0.37 4.3,0.37 13.3,0 17.8,-11.89 18.3,-18.9 0.4,-4.21 0.2,-18.16 -16.2,-20.86 -14.4,-2.36 -30,-3.57 -46.4,-3.57 v 0"
         style="fill:#211c1d;fill-opacity:1;fill-rule:nonzero;stroke:none"
         id="path40" />
      <path
         d="m 27422.4,2547.37 c -36.4,0 -73.1,3.64 -109,10.81 -99.4,19.91 -188.7,66.51 -244.9,127.8 l -10.2,11.18 -11.9,-9.43 c -49.8,-39.6 -106.9,-65.27 -169.7,-76.29 -21.9,-3.84 -44.5,-5.8 -67,-5.8 -56.1,0 -112.8,12.37 -155.6,33.95 -9.8,5 -13.8,17.02 -8.8,26.78 3.4,6.83 10.2,11.01 17.7,11.01 3.1,0 6.1,-0.73 8.9,-2.16 38.1,-19.13 86.7,-29.65 136.8,-29.65 20.5,0 41.1,1.78 61.3,5.3 66.6,11.58 127.8,42.86 176.9,90.46 l 16.9,16.38 13.3,-19.04 c 47.9,-68.19 136.8,-119.67 243.9,-141.24 34,-6.79 68.5,-10.22 102.6,-10.22 69,0 133.8,14.23 187.8,41.17 6.7,-11.27 12.5,-22.87 17.5,-34.67 -8,-3.23 -15.5,-6.96 -22.6,-11.18 -54.5,-23.01 -118.1,-35.16 -183.9,-35.16"
         style="fill:#211c1d;fill-opacity:1;fill-rule:nonzero;stroke:none"
         id="path42" />
      <path
         d="m 26304.9,4288.49 c -56.8,0 -119.3,17 -176.1,47.87 -30.8,16.75 -59.9,37.69 -84.7,61.01 6.5,13.56 11.2,27.69 14,42.01 24.7,-26.03 55.6,-49.53 89.8,-68.16 51.1,-27.69 106.7,-42.92 156.7,-42.92 16.6,0 32.8,1.67 48,4.94 1.3,0.27 2.7,0.42 4.1,0.42 9.3,0 17.5,-6.65 19.4,-15.81 1.1,-5.2 0.1,-10.51 -2.8,-14.97 -2.9,-4.46 -7.4,-7.52 -12.6,-8.61 -17.7,-3.84 -36.5,-5.78 -55.8,-5.78"
         style="fill:#211c1d;fill-opacity:1;fill-rule:nonzero;stroke:none"
         id="path44" />
      <path
         d="m 27000.6,3642.2 c -48.7,1.7 -87.5,14.16 -124.3,39.76 -66.6,46.04 -71.1,102.05 -76.4,166.91 -5.2,62.56 -11.5,140.25 -109.7,207.41 -58.1,39.79 -122,59.98 -190,59.98 l -3.7,-0.02 c -69,-0.86 -142.7,-22.96 -219.3,-65.7 -2.3,-1.32 -5,-1.99 -8,-1.99 -8.6,0 -17.8,5.79 -21,13.19 -28.6,68.83 -85.5,129.52 -156.2,166.37 -42.3,22.1 -85.7,33.79 -125.6,33.79 -2.3,0 -4.6,-0.05 -6.9,-0.13 -8.8,1.01 -17,1.5 -24.9,1.5 -6.4,0 -12.8,-0.29 -19.1,-0.83 l 6.9,6.95 -0.2,17.05 c 0,2.04 0,4.23 0.1,6.55 6.4,2.05 12.8,4.44 18.9,7.13 8.1,0.87 16.5,1.33 25,1.33 46.5,0 96.5,-13.16 144.4,-38.09 67.4,-35.16 123.8,-89.77 158.9,-153.75 l 7.5,-13.66 14,6.9 c 70,34.54 139,52.39 205.3,53.02 l 4.3,0.03 c 75.8,0 147.2,-22.42 212.1,-66.65 114,-77.93 120.6,-158.92 127.1,-237.25 4,-50.17 8.1,-102.08 59.1,-137.29 35,-24.32 71.9,-30.76 100.6,-32.24 -0.9,-13.49 -0.5,-26.94 1.1,-40.27"
         style="fill:#211c1d;fill-opacity:1;fill-rule:nonzero;stroke:none"
         id="path46" />
      <path
         d="m 26678.3,3354.27 c -36.6,0 -73.4,3.67 -109.5,10.91 -99.4,19.91 -188.6,66.49 -244.9,127.8 l -10.2,11.2 -11.9,-9.47 c -49.9,-39.79 -106.9,-65.46 -169.5,-76.29 -22.1,-3.89 -44.8,-5.85 -67.4,-5.85 -41,0 -81.9,6.44 -118.1,18.62 l -13.9,4.7 c -1.5,0.57 -3,1.12 -4.5,1.67 1.6,12.75 3.9,24.88 7.1,36.19 l 1.4,4.71 c 38,-17.59 79.8,-26.48 124.8,-26.48 20.6,0 42,1.92 63.7,5.71 68.3,12.04 127.9,42.56 177.2,90.67 3.6,3.54 8.5,5.5 13.8,5.5 6.6,0 12.7,-3.09 16.3,-8.22 46.6,-68.14 135.5,-119.61 244,-141.21 33.9,-6.78 68.4,-10.21 102.4,-10.21 71.7,0 138.7,15.27 193.9,44.16 2.9,1.51 5.9,2.28 9.1,2.28 7.4,0 14.2,-4.09 17.6,-10.68 2.5,-4.67 3,-10.06 1.4,-15.17 -1.6,-5.1 -5.1,-9.25 -9.8,-11.72 -61,-31.93 -134.7,-48.82 -213,-48.82 v 0"
         style="fill:#211c1d;fill-opacity:1;fill-rule:nonzero;stroke:none"
         id="path48" />
      <path
         d="m 27157.6,2171.47 c -10.9,11.34 -20.6,24.45 -29.2,39.25 24.8,64.38 74.1,102.36 111.8,123.08 34.2,18.7 89.7,37.61 136.2,37.61 8,0 15.4,-0.57 22.2,-1.68 17,-2.74 16.6,-18.1 16.4,-21.14 -0.3,-3.07 -2.3,-18.31 -19.2,-18.31 -1.6,0 -3.3,0.15 -5.1,0.42 -4.7,0.62 -9.6,0.94 -14.9,0.94 -27.3,0 -72.2,-8.67 -116.3,-32.96 -38.2,-20.81 -86.3,-59.63 -101.9,-127.21"
         style="fill:#211c1d;fill-opacity:1;fill-rule:nonzero;stroke:none"
         id="path50" />
      <path
         d="m 28443.5,2857.62 c -7.3,10.95 -14.9,21.88 -22.7,32.69 21.4,11.29 39.7,24.19 54.4,38.47 3.7,3.55 8.6,5.52 13.7,5.52 5.5,0 10.6,-2.18 14.4,-6.15 3.7,-3.82 5.7,-8.84 5.6,-14.17 -0.2,-5.3 -2.3,-10.21 -6.1,-13.85 -16.1,-15.57 -36,-29.84 -59.3,-42.51"
         style="fill:#211c1d;fill-opacity:1;fill-rule:nonzero;stroke:none"
         id="path52" />
      <path
         d="m 28517.8,2592.98 c 4.6,16.17 7.2,32.16 8,47.82 50.4,25.89 91.1,59.59 118,97.87 l 13.4,19.04 16.8,-16.37 c 49.1,-47.64 110.4,-78.91 177.2,-90.47 20,-3.52 40.6,-5.3 61.1,-5.3 50.1,0 98.6,10.52 136.6,29.6 2.9,1.48 5.9,2.21 9,2.21 7.6,0 14.3,-4.18 17.7,-10.89 5,-9.88 1,-21.9 -8.8,-26.93 -42.7,-21.55 -99.4,-33.92 -155.4,-33.92 v 0 c -22.6,0 -45.2,1.96 -67.1,5.8 -62.9,11.02 -119.9,36.69 -169.5,76.28 l -11.9,9.46 -10.3,-11.18 c -34.3,-37.37 -80.5,-69.15 -134.8,-93.02"
         style="fill:#211c1d;fill-opacity:1;fill-rule:nonzero;stroke:none"
         id="path54" />
      <path
         d="m 29205,3704.64 c -16.1,0 -31.5,1.18 -45.7,3.5 -16.5,2.72 -16.6,16.7 -16.3,20.91 0.6,7 5.1,18.83 18.4,18.83 1.3,0 2.7,-0.11 4.2,-0.35 12,-1.99 25.3,-2.99 39.4,-2.99 71.8,0 171.5,27.56 223,80.24 1.8,1.89 7.6,4.58 14.3,4.58 3.1,0 7.5,-0.56 11,-3.22 32.7,-24.38 77.1,-37.83 125,-37.83 52.5,0 102.3,16.38 136.8,44.91 4,3.32 8.1,5.01 12.3,5.01 8,0 16.4,-6.54 19.6,-15.2 1.9,-5.41 2.4,-13.38 -6.4,-20.63 -41.3,-34.19 -100.4,-53.8 -162,-53.8 -46.1,0 -89.7,10.65 -126,30.79 l -9.4,5.23 -8.5,-6.62 c -56.5,-43.88 -148.8,-73.36 -229.7,-73.36"
         style="fill:#211c1d;fill-opacity:1;fill-rule:nonzero;stroke:none"
         id="path56" />
      <path
         d="m 28441.3,3867.79 c -7.9,0 -16.3,5.59 -19.9,13.3 -3.1,6.68 -2,13.33 3.4,19.75 84.3,100.62 128.7,197.7 131.9,288.75 31.3,16.93 62.3,33.86 93.1,51.33 -29.8,-41.28 -51.9,-85.95 -65,-132.41 -20.1,-76.42 -63.6,-154.79 -129.4,-233.24 -4.2,-4.96 -8.9,-7.48 -14.1,-7.48 v 0"
         style="fill:#211c1d;fill-opacity:1;fill-rule:nonzero;stroke:none"
         id="path58" />
      <path
         d="m 28608.1,5558.25 c -31.3,0 -61,4.91 -88.3,14.61 -116,41.08 -167.3,157.34 -176.7,252.46 -10.8,107.51 24.3,184.32 110.5,241.78 l 8.7,5.82 -1.7,10.34 c -8.1,49.81 -23.6,90.37 -47.6,123.98 -30.6,43.28 -74.9,74.4 -135.2,95.14 -13.6,4.72 -14,15.42 -12.9,21.39 1.4,8.59 7.7,17.83 18.3,17.83 2.4,0 5,-0.46 7.7,-1.4 68.2,-23.38 118.8,-59.34 154.6,-109.96 23.8,-33.48 40.3,-72.31 50.4,-118.74 l 4,-18.46 17.6,6.68 c 62.1,23.49 130.2,30.06 196,36.42 99.4,9.67 201.8,19.66 259.2,104.41 l 1,-2.41 12.4,-6.93 c 6.8,-3.77 14,-8.01 22.1,-13.04 -62.2,-99.32 -173.5,-110.18 -291,-121.65 -116,-11.38 -231.9,-32.3 -293.6,-107.63 -33.6,-41.02 -47.4,-94.76 -40.9,-159.75 8.3,-82.97 52.2,-183.99 150.4,-218.69 23.1,-8.15 48.4,-12.28 75.2,-12.28 32.7,0 68.2,6.17 105.6,18.3 33.2,10.75 72.5,11.82 114.2,12.93 80.4,2.18 171.6,4.66 222.1,87.39 3.6,5.98 10,9.56 16.9,9.56 3.6,0 7.3,-1.03 10.4,-2.97 4.6,-2.75 7.8,-7.03 9,-12.12 1.3,-5.2 0.4,-10.63 -2.4,-15.25 -61.1,-100.21 -142.7,-101.42 -229.1,-102.69 -42.9,-0.64 -87.4,-1.29 -129.1,-14.83 -41.4,-13.43 -81.1,-20.24 -117.8,-20.24"
         style="fill:#211c1d;fill-opacity:1;fill-rule:nonzero;stroke:none"
         id="path60" />
      <path
         d="m 28931.8,4438.8 c 23.5,22.28 44.3,44.72 62.8,67.62 20.9,-3.42 42.4,-5.14 64.3,-5.14 22,0 44.5,1.75 67,5.2 38.8,6.01 155.8,34.93 183.6,87.17 76.4,143.45 69,371.22 -76.4,489.05 l -6.2,5.11 -7.9,-1.94 c -27.2,-6.68 -52.4,-9.93 -77.1,-9.93 -51.6,0 -100.8,14.86 -150.4,45.39 l -5.5,3.36 -6.3,-1.26 c -11.9,-2.4 -23.6,-4.45 -35.2,-6.31 -9.5,11.64 -19.6,23.45 -30.6,35.65 23,3.12 46.8,7.32 71.9,12.69 1.5,0.31 2.9,0.46 4.3,0.46 4.1,0 8,-1.24 11.3,-3.57 48.3,-31.78 93,-46.47 140.9,-46.47 23.1,0 47,3.37 73.1,10.3 l 4.6,1.24 3.2,3.52 c 102.2,111.56 61.2,236.31 7.6,343.62 -3.4,6.76 -3.4,12.95 0,18.37 3.9,6.24 11.8,10.61 19.4,10.61 7.1,0 12.6,-3.72 16.3,-11.07 78.2,-156.5 79.2,-270.1 3.2,-368.37 l -9.2,-11.91 11.2,-10.12 c 54,-48.89 93,-116.3 112.8,-194.96 l 10.4,-41.46 19.8,37.87 c 33.4,63.78 77.8,103.77 148.5,133.71 3,1.29 5.9,1.93 8.6,1.93 9.7,0 16.6,-8.75 18.4,-17.4 1.1,-5.63 1.1,-15.87 -11.6,-21.25 -116.6,-49.3 -149.6,-144.9 -186.5,-285.12 -8.7,-50.59 -24.6,-97.41 -47.6,-140.57 -39.2,-74.06 -191,-113.49 -285.4,-113.49 -42.7,-2.1 -85.5,-9.73 -127.3,-22.53"
         style="fill:#211c1d;fill-opacity:1;fill-rule:nonzero;stroke:none"
         id="path62" />
      <path
         d="m 27980.8,2705.77 c 5.1,-12.14 11.1,-23.84 17.6,-35.23 1.3,2.14 2.5,4.34 3.9,6.46 -7.7,9.02 -14.8,18.75 -21.5,28.77"
         style="fill:#211c1d;fill-opacity:1;fill-rule:nonzero;stroke:none"
         id="path64" />
      <path
         d="m 29700.2,4526.01 c -0.4,-1.1 -1,-2.17 -1.4,-3.26 29.3,20.25 54.4,41.28 75.4,63.28 -17.2,-13.72 -36.5,-27.11 -58.2,-40.13 -7.7,-4.63 -13.2,-11.83 -15.8,-19.89"
         style="fill:#211c1d;fill-opacity:1;fill-rule:nonzero;stroke:none"
         id="path66" />
      <path
         d="m 28152.5,4973.25 c -6.1,0 -14.1,2.4 -17.6,13.79 -24.6,78.39 0,169.02 65.9,244.95 11.1,-8.29 21.7,-16.45 31.9,-24.38 -58.2,-65.53 -80.5,-142.5 -59.8,-208.77 2.1,-6.57 1.4,-12.21 -1.9,-16.78 -4,-5.34 -11.2,-8.81 -18.5,-8.81 v 0"
         style="fill:#211c1d;fill-opacity:1;fill-rule:nonzero;stroke:none"
         id="path68" />
      <path
         d="m 28325,4569.84 c -28.3,138.65 33.8,291.13 143.9,351.3 4.3,-13.12 7.7,-26.31 10.1,-39.4 -82.9,-49.68 -131.2,-164.19 -117.4,-279.92 -11.3,-10.59 -23.4,-21.18 -36.6,-31.98"
         style="fill:#211c1d;fill-opacity:1;fill-rule:nonzero;stroke:none"
         id="path70" />
      <path
         d="m 29416,4288.49 c -19.3,0 -38,1.94 -55.7,5.76 -5.3,1.11 -9.8,4.17 -12.7,8.62 -2.9,4.47 -3.9,9.78 -2.8,14.98 2,9.16 10.2,15.81 19.6,15.81 1.4,0 2.8,-0.15 4.2,-0.43 15.1,-3.26 31.2,-4.93 47.9,-4.93 50,0 105.6,15.23 156.7,42.92 46.8,25.45 86.3,59.21 113.4,96.62 7.4,-11.09 14.3,-23.84 20.6,-38.11 -30.1,-36.56 -69.6,-68.72 -115.1,-93.35 -56.7,-30.89 -119.3,-47.89 -176.1,-47.89"
         style="fill:#211c1d;fill-opacity:1;fill-rule:nonzero;stroke:none"
         id="path72" />
      <path
         d="m 29042.7,3354.27 c -78.4,0 -152.1,16.89 -213.1,48.82 -9.7,5.11 -13.5,17.18 -8.4,26.91 3.5,6.57 10.2,10.66 17.6,10.66 3.2,0 6.3,-0.77 9.1,-2.28 55.2,-28.89 122.3,-44.16 193.9,-44.16 34.1,0 68.6,3.43 102.5,10.21 108.6,21.64 197.5,73.12 244,141.25 3.5,5.09 9.6,8.18 16.3,8.18 5.3,0 10.2,-1.93 13.7,-5.43 48.6,-47.47 109.9,-78.81 177.2,-90.72 21.3,-3.74 42.4,-5.62 62.7,-5.62 24.1,0 47.6,2.63 70.3,7.83 2.7,-12.47 4.4,-25.66 5.2,-39.43 -25.4,-5.23 -51.6,-7.87 -78.1,-7.87 -22.5,0 -45.1,1.94 -67,5.8 -62.6,10.83 -119.6,36.5 -169.5,76.29 l -11.8,9.47 -10.3,-11.2 c -56.2,-61.31 -145.5,-107.89 -244.9,-127.8 -36.1,-7.24 -72.9,-10.91 -109.4,-10.91"
         style="fill:#211c1d;fill-opacity:1;fill-rule:nonzero;stroke:none"
         id="path74" />
      <path
         d="m 29189.2,3018.18 c -27.5,0 -56.4,5.75 -86,17.09 -1.4,0.5 -2.1,0.72 -2.7,1.02 -0.5,0.37 -1.2,0.96 -2.2,1.82 -80,63.29 -180.3,100.94 -268.4,100.94 -77.2,0 -144.8,-28 -195.6,-80.94 -3.8,-4.07 -6.9,-5.52 -12.7,-6.04 -7.6,-0.61 -15.3,-0.89 -22.8,-0.89 -166.2,0 -253.7,142.56 -264.6,275.02 -8.4,100.21 33,250.77 114.3,319.29 36.8,30.89 75.7,44.07 130,44.07 21.3,0 42.6,-1.89 65.3,-3.91 20.6,-1.81 41,-3.62 61.5,-3.62 29.9,0 74.5,3.38 116.8,32.69 50.9,35.21 55.1,87.11 59.1,137.3 6.4,78.32 13.1,159.3 127.1,237.25 64.9,44.21 136.3,66.63 212.2,66.63 l 4.3,-0.03 c 66.1,-0.63 135.2,-18.48 205.3,-53.04 l 14,-6.88 7.5,13.69 c 34.9,63.98 91.4,118.58 158.9,153.74 41.9,21.82 85.6,34.62 127.4,37.39 0.4,-5.3 0.5,-10.13 0.4,-14.31 l -0.1,-17.05 7.5,-7.54 c -37.3,-1.64 -77.5,-13.22 -116.8,-33.76 -70.6,-36.85 -127.6,-97.54 -156.2,-166.5 -3.1,-7.27 -12.4,-13.06 -21,-13.06 -2.9,0 -5.7,0.67 -8,1.99 -76.5,42.74 -150.3,64.84 -219.2,65.7 l -3.7,0.02 c -67.8,0 -131.8,-20.17 -190.1,-59.96 -98.2,-67.18 -104.5,-144.88 -109.6,-207.32 -5.3,-65.01 -9.9,-120.99 -76.4,-167 -39.9,-27.67 -81.8,-40 -136,-40 -22.6,0 -45.5,2.04 -67.7,4.01 -19.7,1.78 -39.6,3.56 -58.8,3.56 -28,0 -69.5,-3.36 -105.7,-32.43 l -0.9,-0.74 -0.8,-0.9 c -72.5,-78.42 -109.2,-182.71 -100.9,-286.12 9.8,-118.57 82.9,-238.2 224.1,-238.2 2.3,0 4.7,0.03 7.1,0.09 l 6.2,0.2 4.5,4.26 c 57.5,54.34 131.5,83.06 214.1,83.06 96.1,0 201,-38.47 287.9,-105.55 l 2,-1.57 2.4,-0.86 c 23.3,-8.4 45.8,-12.66 66.9,-12.66 45.9,0 86.7,19.4 124.5,59.3 4.2,4.45 8.8,6.68 13.6,6.68 8,0 16.2,-5.8 19.7,-13.83 3,-7.03 1.6,-13.78 -4.3,-20.04 -45.1,-47.81 -96.7,-72.06 -153.4,-72.06"
         style="fill:#211c1d;fill-opacity:1;fill-rule:nonzero;stroke:none"
         id="path76" />
      <path
         d="m 28645.8,5833.25 c -16.4,0 -32.1,1.21 -46.6,3.61 -16.5,2.72 -16.7,16.69 -16.4,20.92 0.6,6.98 5.1,18.81 18.4,18.81 1.3,0 2.8,-0.11 4.2,-0.35 12.4,-2.05 26,-3.08 40.2,-3.08 81.9,0 173.1,32.98 221.9,80.18 4.1,3.91 8.5,5.92 13,5.92 8,0 16.4,-6.2 19.7,-14.41 3,-7.4 1.3,-14.25 -5.1,-20.39 -56.5,-54.55 -156.7,-91.21 -249.3,-91.21 v 0"
         style="fill:#211c1d;fill-opacity:1;fill-rule:nonzero;stroke:none"
         id="path78" />
      <path
         d="m 28540.5,2225.91 c -18.2,29.45 -45,54.29 -78.9,72.81 -44.2,24.26 -89.2,32.92 -116.4,32.92 -5.4,0 -10.3,-0.32 -14.6,-0.89 -2.1,-0.32 -3.8,-0.47 -5.4,-0.47 v 0 c -6.3,0 -10.6,2.22 -13.4,5.08 14.9,11.93 29.2,23.82 42.5,35.51 44.7,-2.34 95.1,-19.97 126.5,-37.1 38.1,-20.88 69,-48.91 90.7,-81.84 l -20.2,-3.25 c 0,0 -10.2,-21.69 -10.8,-22.77"
         style="fill:#211c1d;fill-opacity:1;fill-rule:nonzero;stroke:none"
         id="path80" />
      <path
         d="m 27560.6,7035.75 118.8,-17.89 c -43,10.05 -82.3,15.96 -118.8,17.89"
         style="fill:#211c1d;fill-opacity:1;fill-rule:nonzero;stroke:none"
         id="path82" />
      <path
         d="m 27402.1,6519.82 c 75.5,-5.74 141.3,-46.04 187.9,-116.43 40.9,-61.83 62.3,-139.72 63.6,-223.26 0.8,-47.91 -5,-97.65 -17.8,-147.37 -2.2,-8.3 -4.4,-16.61 -7,-24.91 l -1.6,-5.53 0.9,-5.7 c 1.3,-7.43 2.4,-15.15 3.6,-22.88 0.9,-6.56 1.8,-13.23 2.6,-19.98 2.3,-18.85 4.3,-38.32 5.6,-58.36 0.5,-6.32 0.9,-12.69 1.2,-19.1 1.7,-31.84 1.7,-64.65 0.6,-97.48 -1.5,-43.48 -5.3,-87.01 -12.4,-128.57 -1,-5.55 -2,-11.1 -3,-16.58 -3.3,-16.66 -7.1,-32.84 -11.4,-48.59 -1.5,-5.32 -3,-10.66 -4.6,-15.86 -9.7,-31.88 -21.8,-61.35 -36.7,-86.95 l -9.4,-16.21 13.2,-13.29 c 2.3,-2.39 4.5,-4.98 6.8,-7.42 199.1,-210.35 168.5,-605.6 72.1,-891.81 -19.7,-58.43 -42.1,-112.42 -65.9,-159.24 l -5,-9.76 4,-10.21 c 9.9,-25.33 22.1,-59.18 34.1,-98.78 5.2,-17.2 10.3,-35.36 15.2,-54.57 0.2,0.09 0.5,0.19 0.7,0.29 14.4,6.15 29.4,12.46 44.7,18.9 -14.8,57.14 -31.6,106.04 -45.2,141.78 147.1,297.14 235.8,820.27 -14.2,1091.97 11.7,22.68 21.5,47.75 29.9,74.23 1.6,5.22 3.3,10.38 4.9,15.72 4.5,15.68 8.3,31.93 11.8,48.46 1.2,5.46 2.4,10.88 3.4,16.41 13.4,71.15 18,148 16.1,221.2 -0.2,6.25 -0.3,12.53 -0.5,18.71 -0.8,19.52 -2.2,38.6 -3.9,57.27 -0.6,6.56 -1.2,13.06 -1.9,19.49 -2.1,18.54 -4.4,36.61 -7.3,53.77 46.1,156.51 28.8,317.28 -46.5,431.16 -18.7,28.32 -40.6,52.53 -64.8,72.59 -21,17.42 -43.8,31.75 -68,42.46 -28.5,-4.21 -62.7,-11.86 -95.8,-25.57"
         style="fill:#211c1d;fill-opacity:1;fill-rule:nonzero;stroke:none"
         id="path84" />
      <path
         d="m 27065.2,2189.93 c 37.9,-73.29 97.6,-118.93 173.3,-132.27 14.9,-2.64 30.2,-3.93 45.7,-3.93 12.8,0 25.7,0.99 38.7,2.73 66.7,8.91 134.5,40.27 191.6,89.82 3,2.59 6,5.21 8.9,7.9 3.7,3.32 7.3,6.65 10.8,10.11 18.5,12.55 35.7,26.4 51.8,41.3 65.4,60.71 109.7,139.35 124.2,223.35 7.8,45.08 6.8,89.42 -2.5,131.99 -4.6,20.83 -11.2,41.23 -19.8,61.08 -8.1,18.85 -17.9,37.25 -29.6,54.99 47.8,55.89 76.8,132.74 78.3,209.65 0.8,36.14 -4.7,70.89 -15.3,103.62 -9.8,30.43 -24.3,58.94 -43.3,84.93 -9.2,12.55 -19,24.7 -30.2,35.97 4.4,5.23 8.3,10.84 12.4,16.31 3.3,4.35 6.7,8.55 9.8,13.05 9.2,13.32 17.4,27.45 25.2,41.94 2.6,4.81 5.2,9.58 7.6,14.51 24.2,49.24 40.1,104.27 47,162.42 0.8,6.32 1.6,12.63 2.1,19.02 0.1,1.93 0.5,3.81 0.6,5.75 1.3,18.24 1.5,36.45 1.1,54.62 -0.2,7.2 -0.5,14.38 -1,21.55 -5.6,92.71 -33.3,182.19 -80.3,254.6 5.6,12.72 10.5,25.63 14.9,38.63 -15.7,-9.68 -31.5,-19.36 -47,-29.41 -3.5,-2.26 -6.8,-4.76 -10.3,-7.13 -4.1,-2.85 -8.3,-5.6 -12.3,-8.58 l 4.7,-6.78 2.1,-2.99 c 37.5,-54.01 62.9,-121.91 74.1,-193.32 0.7,-4.55 1.2,-9.14 1.8,-13.71 0.5,-3.47 1,-6.92 1.4,-10.39 2.4,-21.93 3.3,-44.01 2.9,-66.09 -0.1,-6.87 -0.2,-13.74 -0.6,-20.59 -0.1,-2.28 0,-4.57 -0.2,-6.84 -4.3,-58.86 -19,-114.31 -42.3,-163.55 -2.3,-4.95 -4.5,-10.01 -7,-14.84 -7.7,-14.62 -16.3,-28.4 -25.6,-41.68 -3.1,-4.46 -6,-9.05 -9.3,-13.34 -7.4,-9.79 -15.3,-19.22 -23.6,-28.08 l -17.4,-18.53 18.3,-15.85 0.9,-0.8 c 59.7,-51.67 91.6,-123.9 90,-203.44 -0.1,-0.28 -0.1,-0.57 -0.1,-0.85 -1.6,-71.6 -30.7,-142.76 -78,-190.5 l -14.8,-14.87 12.5,-16.84 c 3,-4.09 5.5,-8.33 8.3,-12.5 38.6,-57.62 55.6,-122.62 49.4,-190.17 -0.7,-8.18 -1.6,-16.37 -3,-24.61 -16,-92.27 -73.3,-177.47 -157.1,-233.77 l -3.6,-2.97 c -72.4,-72.09 -172.2,-109.34 -254.4,-94.79 -20.1,3.54 -38.6,10.32 -55.7,19.57 -33.1,17.9 -60.4,46.22 -80.7,84 -2.3,4.29 -4.8,8.41 -6.9,12.94 l -5.5,11.71 -12.8,2.05 c -56.8,9.07 -104,26.54 -141.7,52.04 -38.9,26.29 -67.5,61.22 -85.5,104.6 -1.3,3.03 -2.6,6.01 -3.8,9.12 l -8,21.55 -22,-6.68 c -118.2,-35.94 -248,-6.65 -347.1,78.36 -9.4,8.06 -18.2,16.57 -26.6,25.29 -79.4,82.08 -115.3,191.53 -96.4,299.37 l 1.4,7.75 2.1,12.33 -19.1,7.05 c -38.8,14.3 -72.6,34.41 -100.8,59.5 -48.5,43.15 -80.5,101.12 -92.5,170.18 l -1.6,9.11 -1,5.95 -14.7,4.23 c -40.6,11.67 -77.4,33.98 -108.9,63.01 -85.2,78.44 -130.9,207.45 -99.4,319.39 l 4.7,16.65 -14.1,9.96 c -101,70.91 -163,182.73 -174.6,314.84 -14.2,161.75 48.2,333.88 163,449.18 l 7.2,7.25 -0.1,10.23 c -0.2,28.27 5.8,78.82 23.6,128.15 10.4,28.69 23.3,53.21 38.4,72.87 l 15.7,20.4 -21.2,14.59 c -185.7,127.78 -202.7,286.1 -57.1,529.36 39.1,65.22 85,129.2 125.5,185.63 l 4.9,6.82 -0.3,8.38 c -4.2,107.19 25.4,224.24 83.1,329.59 37.3,67.69 83.7,125.44 133.6,167.43 25,21.08 50.9,38.27 76.9,50.59 l 13.1,6.2 0.5,9.15 0.3,5.36 c 6,106.52 77.7,218.52 168.3,306.93 48.8,47.59 102.9,88.46 155.4,117.69 l 7.5,4.17 2.2,5.28 1.1,2.66 c 19.8,48.6 48.7,90.65 83.9,126.51 2.5,26.15 7.5,52.11 14.6,77.75 -60.2,-46.34 -109.1,-105.44 -140.4,-177.86 -122.1,-70.17 -251.2,-198.24 -309.6,-334.59 -10.4,-24.33 -18.7,-48.89 -24.2,-73.47 -2.8,-12.69 -5.1,-25.38 -6.4,-38.02 -82.4,-43.37 -161.8,-127.18 -219.6,-232.26 -32.6,-59.42 -56.5,-122.44 -71.4,-185.7 -11.4,-47.98 -17.4,-96.01 -17.7,-142.8 -0.1,-6 -0.4,-12.08 -0.3,-18.04 -39.8,-55.53 -84.3,-117.92 -122.9,-182.27 -56.2,-93.82 -112.6,-212.02 -102.1,-330.79 7.6,-85.93 50.1,-172.16 153.5,-249.67 -12,-19.18 -22.4,-41.04 -31.2,-65.26 -18.1,-49.98 -25.4,-101.56 -26.4,-134.94 -80.3,-83.55 -135.7,-193.03 -159.4,-307.86 -11.7,-57.16 -15.7,-115.62 -10.7,-172.92 12.4,-140.7 76.6,-260.96 181.5,-340.56 -1.3,-6.14 -2.1,-12.35 -3.1,-18.54 -5.4,-33.18 -5.7,-66.86 -1.3,-100.1 17.6,-133.96 109.4,-259.35 235.9,-302.77 2.5,-11.61 5.6,-22.85 9.1,-33.88 0.3,-1.18 0.7,-2.38 1.1,-3.55 30.8,-94.82 97.6,-167.12 192.9,-207.63 -1.4,-12.25 -2.1,-24.49 -2.4,-36.7 -1.3,-54.48 9.1,-108.24 30.3,-158.47 24.5,-57.95 63.1,-111.2 114.4,-155.22 105.9,-90.85 243.3,-125.16 371.7,-93.89 8.5,-18.76 18.8,-36.04 30.6,-51.97 0.9,-1.23 1.9,-2.42 2.8,-3.63 47.1,-61.18 118.8,-100.96 214.6,-118.51"
         style="fill:#211c1d;fill-opacity:1;fill-rule:nonzero;stroke:none"
         id="path86" />
      <path
         d="m 27702.4,4159.52 c -15.3,-6.41 -29.9,-12.64 -44.1,-18.74 -0.6,-0.27 -1.2,-0.54 -1.9,-0.81 17.5,-95.84 24.4,-204.71 2,-308.41 3,1.8 6,3.48 9,5.26 15.4,9.14 30.8,18.17 46.3,27.02 14.7,101.53 6,204.83 -11.3,295.68"
         style="fill:#211c1d;fill-opacity:1;fill-rule:nonzero;stroke:none"
         id="path88" />
      <path
         d="m 28047.7,4308.96 c -6.1,-2.9 -12.2,-5.63 -18.3,-8.49 -13.8,-6.5 -27.7,-13.04 -41.5,-19.32 -24.3,-82.79 -47,-188.88 -48.3,-299.5 10.8,5.23 21.6,10.38 32.4,15.54 5.6,2.68 11.2,5.4 16.9,8.06 4.8,115.78 32.9,225.44 58.8,303.71"
         style="fill:#211c1d;fill-opacity:1;fill-rule:nonzero;stroke:none"
         id="path90" />
      <path
         d="m 27988.3,3714.95 c -59.6,-91.95 -88.8,-211.61 -80.2,-330.78 1,-14.02 2.6,-27.85 4.7,-41.53 1.1,-7.65 2.6,-15.16 4.1,-22.68 4.9,-25.05 11.6,-49.33 19.9,-72.69 3.2,-9.1 6.7,-18.01 10.4,-26.8 17,-40.13 38.9,-77.13 65.5,-109.3 -29.1,-29.35 -51.3,-63.35 -66.3,-100.48 -2.2,-5.47 -4,-11.12 -5.9,-16.72 -6,-17.66 -10.4,-35.91 -13,-54.71 -1,-6.76 -2.1,-13.48 -2.6,-20.36 -0.8,-10.61 -1.1,-21.36 -0.9,-32.22 1.2,-64.52 22,-128.82 56.8,-180.91 6.7,-10.02 13.8,-19.75 21.5,-28.77 -1.4,-2.12 -2.6,-4.32 -3.9,-6.46 -39.1,-61.91 -56.9,-130.86 -52.4,-202.53 l 45.3,38.78 3.8,3.29 c 0.3,4.01 0.8,7.98 1.3,11.96 4.1,36.27 15,71.37 32.7,104.39 7,13.05 15,25.79 24.1,38.14 l 12.5,16.84 -14.8,14.87 c -42.9,43.28 -70.6,105.83 -76.7,170.5 -0.6,6.95 -1.2,13.91 -1.4,20.88 0,1.68 0.2,3.3 0.2,4.96 -0.1,21.06 2.4,41.5 6.9,61.24 0.2,0.65 0.3,1.31 0.5,1.96 1.4,6.12 2.8,12.28 4.7,18.24 11.7,36.99 31.9,70.67 59.3,99.4 5.8,6.07 11.9,12 18.3,17.61 l 19.2,16.65 -17.3,18.53 c -9.3,9.84 -17.8,20.46 -26,31.44 -8.6,11.53 -16.4,23.74 -23.8,36.4 -15.1,26.19 -27.8,54.43 -37.3,84.56 -2.5,7.92 -4.6,16.07 -6.7,24.2 -7,27.28 -11.9,55.6 -14,84.85 -8,111.63 21.7,227.87 79.4,310.98 l 8,11.55 -6,12.74 c -28.5,61.08 -42.9,126.81 -47.9,192.66 -5.9,-2.83 -11.8,-5.73 -17.7,-8.59 -9.7,-4.73 -19.5,-9.44 -29.2,-14.22 6.2,-60.45 20,-120.74 44.9,-177.87"
         style="fill:#211c1d;fill-opacity:1;fill-rule:nonzero;stroke:none"
         id="path92" />
      <path
         d="m 28011.9,5357.75 c 2.6,4.72 5.3,9.47 8.1,14.08 8.6,13.95 18,27.31 28,40.23 3.3,4.33 6.6,8.69 10.1,12.9 8,9.57 16.3,18.91 25.1,27.81 l 13.2,13.31 -9.4,16.19 c -5.2,8.94 -10,18.49 -14.5,28.3 -10.7,23.09 -19.7,48.39 -27,75.28 -7.4,27.42 -13.3,56.33 -17.6,86.16 -1,6.65 -2,13.29 -2.8,20.01 -2.3,19.18 -4,38.63 -5.1,58.16 -0.4,6.34 -0.8,12.67 -1.1,19.02 -3.4,80.02 2,160.27 13.5,227.42 l 1,5.7 -1.7,5.53 c -5.9,19.58 -10.7,39.22 -14.5,58.81 -0.5,2.6 -0.9,5.19 -1.4,7.79 -22.1,122.21 -3,241.58 54.8,328.92 15.2,23.04 32.6,42.82 51.6,59.28 43.8,37.92 96.8,57.99 154.8,57.99 6,0 12.1,-0.22 18.2,-0.65 l 3.9,-0.27 3.7,0.92 c 248.8,61.32 562.6,-13.87 671.8,-243.61 3.1,-6.4 6,-12.87 8.8,-19.51 l 3.2,-7.92 7.5,-4.17 c 12,-6.66 24,-14.12 36.1,-21.92 139.1,-89.96 278.9,-251.83 287.4,-402.7 l 0.9,-14.51 13.1,-6.2 c 77.8,-36.88 154.5,-116.33 210.4,-218.01 57.8,-105.28 87.4,-222.34 83.3,-329.63 v -8.75 l 4.9,-6.79 c 42.7,-59.73 86.8,-121.5 125.1,-185.24 122.5,-204.4 129.9,-348.84 18.9,-465.65 -21,-22 -46.1,-43.03 -75.4,-63.28 -0.2,-0.15 -0.4,-0.3 -0.6,-0.45 l -21.2,-14.59 8.7,-11.4 6.9,-9 c 12.8,-16.64 23.9,-36.95 33.4,-60.13 1.7,-4.2 3.5,-8.31 5.1,-12.71 12.4,-34.43 19,-69.25 21.8,-96.86 1.2,-11.99 1.8,-22.76 1.7,-31.32 l -0.1,-10.23 7.2,-7.25 c 8.3,-8.32 16.3,-17.02 24,-25.92 99.4,-114.32 152.4,-273.27 139.1,-423.37 -11.6,-132.07 -73.6,-243.85 -174.6,-314.73 l -14.2,-9.96 4.3,-15.04 0.4,-1.63 c 6.5,-22.99 9.4,-46.73 9.7,-70.59 1.8,-135.27 -90.1,-275.04 -217.9,-311.79 l -14.8,-4.23 -2.6,-15.1 c -18.8,-109.16 -87.4,-190.73 -193,-229.64 l -19.2,-7.03 3.5,-20.07 c 20.8,-119.36 -25.3,-240.74 -123.1,-324.69 -99.1,-85.01 -228.9,-114.32 -347.1,-78.36 l -22,6.68 -8,-21.55 c -31.7,-85.17 -101.9,-139.49 -208.9,-161.71 -7.3,-1.49 -14.6,-2.85 -22.2,-4.05 l -12.7,-2.05 -5.5,-11.71 c -5.2,-10.98 -11.1,-20.98 -17.3,-30.53 -30.5,-47.03 -73.4,-76.71 -126,-85.98 -82.3,-14.47 -182.1,22.71 -254.4,94.79 l -3.6,2.97 c -5.5,3.65 -10.8,7.43 -16,11.31 -2.7,-1.73 -5.7,-3.48 -8.5,-5.21 -11.7,-7.31 -23.6,-14.64 -35.9,-22.01 10,-8.17 20.4,-15.99 31.2,-23.34 71.5,-70.47 163.7,-110.54 250,-110.54 15.5,0 30.8,1.29 45.7,3.93 0.6,0.1 1.1,0.3 1.7,0.4 14.2,2.6 27.6,6.61 40.6,11.45 55.7,20.74 100.5,61.45 131,120.42 122.3,22.4 205.6,80.88 248,174.11 115,-28.01 237.1,-3.28 337.5,67.49 4.5,3.12 8.9,6.21 13.3,9.5 3.3,2.56 6.6,5.31 9.9,7.97 2.2,1.8 4.5,3.57 6.7,5.42 1.4,1.2 2.9,2.3 4.3,3.51 105.7,90.7 158,220.41 142.4,350.37 107.6,45.73 178.9,131.8 202.9,245.09 164,56.24 270.1,249.72 231.6,421.4 104.9,79.57 169.1,199.78 181.5,340.43 15.2,172.43 -49.9,355.7 -170.1,480.91 -1.1,33.37 -8.3,84.96 -26.4,134.98 -8.8,24.2 -19.3,46.04 -31.3,65.22 246.5,184.75 148.4,418.83 51.5,580.49 -37.9,63.04 -80.8,123.41 -122.8,182.23 2.6,113.64 -29.1,236.35 -89.6,346.57 -57.7,105.06 -137.1,188.87 -219.5,232.24 -18.1,174.4 -185,356.97 -340,446.08 -38.1,88 -102.3,156.35 -181,205.96 -38,23.95 -79.3,43.57 -122.8,58.82 -134.8,47.26 -289.8,53.21 -426.7,20.26 -106.2,6.22 -202.5,-44.25 -265,-138.65 -5.1,-7.83 -10,-15.92 -14.6,-24.17 -62.7,-111.81 -74.7,-261.23 -31.9,-406.98 -10,-60.84 -15.2,-131.62 -13.8,-203.69 0.1,-6.24 0.4,-12.48 0.6,-18.72 0.7,-19.11 1.8,-38.21 3.5,-57.24 0.6,-6.49 1.1,-12.98 1.8,-19.43 9,-83.34 28,-163.3 60.5,-226.18 -7.1,-7.69 -13.8,-15.65 -20.4,-23.73 -3.4,-4.26 -6.6,-8.67 -9.9,-13.03 -9.9,-13.04 -19.2,-26.48 -27.8,-40.39 -2.8,-4.62 -5.6,-9.31 -8.3,-14.01 -163.8,-284.33 -80.6,-729.87 50.4,-996.93 10.4,5 20.7,10.12 31.1,15.23 4.2,2.11 8.5,4.15 12.8,6.29 -122.2,249.52 -204.4,682.95 -51.9,950.4"
         style="fill:#211c1d;fill-opacity:1;fill-rule:nonzero;stroke:none"
         id="path94" />
      <path
         d="m 27688.2,4224.2 c -15.4,-6.43 -30.2,-12.71 -44.6,-18.85 -0.3,-0.13 -0.6,-0.27 -0.9,-0.4 -5.1,-2.18 -10.2,-4.36 -15.2,-6.51 -40.1,-17.4 -75.9,-33.76 -105.9,-49.43 -70.2,-36.68 -174.7,-91.39 -270.6,-159.21 -19.9,-14.02 -39.3,-28.61 -58.1,-43.72 -89.5,-72.26 -161.8,-156.38 -175.3,-247.72 -0.1,-0.67 -0.3,-1.34 -0.4,-2.02 -3.3,-23.92 -2.3,-47.45 2.7,-70.54 10.5,-48.34 39.1,-94.73 85.6,-138.56 27.7,-26.11 100.1,-67.65 200.2,-125.13 8.4,-4.83 17.2,-9.89 26,-14.94 22.1,-12.71 45.3,-26.11 69.3,-40.09 67.5,-39.34 141,-83.3 214.3,-130.56 9.2,13.25 17.9,27.02 25.5,41.69 -81.6,52.6 -163.4,101.13 -236.8,143.65 -25.8,14.97 -50.7,29.23 -74,42.62 -0.4,0.26 -0.9,0.51 -1.3,0.78 -89.3,51.26 -166.3,95.49 -189.7,117.54 -36.9,34.81 -59.9,69.85 -69.5,105.93 -5.3,19.95 -6.7,40.21 -3.9,60.95 0.6,3.84 1.4,7.66 2.2,11.48 15,72.34 76.6,142.32 153.2,204.43 18.6,15.05 38,29.65 57.9,43.69 95.6,67.67 200.9,122.77 265.3,156.44 26.6,13.89 58.3,28.51 93.9,44.04 5,2.17 10.1,4.4 15.3,6.61 0.5,0.22 1,0.45 1.5,0.67 14.3,6.13 28.9,12.36 44.2,18.79 4.9,2.06 10.1,4.2 15.1,6.29 2.8,1.17 5.8,2.41 8.6,3.59 13.1,5.46 26.2,10.93 40,16.64 66.5,27.63 138.8,57.69 211.7,90.61 6.5,2.96 13.1,5.93 19.6,8.94 14.2,6.5 28.4,13.25 42.5,19.98 6.1,2.92 12.3,5.71 18.4,8.66 7,3.38 14,6.75 20.9,10.18 18.5,9.12 36.8,18.53 54.9,28.07 49.9,26.22 98.2,54.05 143.2,83.65 42.8,28.12 82.6,57.83 117.8,89.3 62,55.4 110.3,116.15 135.9,183.22 20.4,53.36 25.8,108.43 16.2,164.61 -4,23.06 -10.5,46.32 -19.5,69.71 -4.1,10.55 -8.5,21.11 -13.6,31.71 -8.3,17.46 -18.4,35.24 -29.8,52.88 -42,64.98 -103.7,130.54 -186.7,198.13 -18.7,15.2 -38.5,30.52 -59.3,45.94 -35.7,26.37 -74.4,53.07 -116.5,80.22 -11.3,7.27 -22.9,14.6 -34.7,21.96 -3.1,1.96 -6.4,3.92 -9.6,5.88 -4.1,2.51 -8.1,5.03 -12.2,7.54 -10.1,-12.86 -19.5,-26.14 -28.1,-40.08 5.4,-3.31 10.7,-6.61 16.1,-9.91 2.6,-1.63 5.4,-3.28 8,-4.9 11.6,-7.24 23,-14.44 34,-21.57 38.3,-24.63 73.7,-49.04 106.6,-73.22 20.3,-14.93 39.7,-29.77 58,-44.51 82.2,-66.28 143.7,-130.54 183.4,-192.01 10.3,-15.88 19.3,-31.87 26.8,-47.45 4.2,-8.76 7.8,-17.42 11.2,-26.06 9.4,-24.02 15.6,-47.56 18.9,-70.76 6.3,-44.54 1.5,-87.84 -14.8,-130.67 -20.1,-52.49 -56.3,-101.25 -103.3,-146.66 -19.4,-18.74 -40.8,-36.86 -63.6,-54.48 -7.1,-5.48 -14.3,-10.92 -21.7,-16.3 -61.9,-45.18 -133.3,-86.69 -208,-124.81 -4.9,-2.47 -9.7,-4.94 -14.6,-7.38 -4.2,-2.13 -8.5,-4.16 -12.8,-6.28 -14.1,-6.96 -28.2,-13.92 -42.4,-20.66 -6.9,-3.29 -13.8,-6.56 -20.8,-9.8 -85.8,-39.99 -172.5,-76 -250.9,-108.56 -11.3,-4.69 -22.1,-9.22 -33,-13.75 -2.6,-1.07 -5.3,-2.18 -7.8,-3.25 -5.1,-2.11 -10.1,-4.19 -15,-6.27"
         style="fill:#211c1d;fill-opacity:1;fill-rule:nonzero;stroke:none"
         id="path96" />
      <path
         d="m 28936.1,4538.26 c -16.3,-19.4 -34.4,-38.12 -53.7,-56.15 -0.8,-0.77 -1.6,-1.51 -2.5,-2.28 -74.1,-68.61 -166.4,-127.43 -254.3,-177.74 -8.3,-4.72 -16.5,-9.37 -24.7,-13.94 -22.4,-12.58 -44.4,-24.61 -65.6,-36.1 -8.4,-4.58 -16.8,-9.1 -25,-13.51 l -9.2,-4.99 c -116.8,-63.12 -240.1,-119.99 -359.2,-174.99 -32.1,-14.76 -64.4,-29.85 -96.6,-44.91 -13.6,-6.33 -27,-12.46 -40.6,-18.86 -5.4,-2.59 -10.9,-5.26 -16.4,-7.85 -5.6,-2.68 -11.2,-5.4 -16.8,-8.08 -10.7,-5.07 -21.3,-10.12 -31.9,-15.28 -5.4,-2.58 -10.7,-5.24 -16,-7.85 -60.4,-29.57 -120.4,-60.49 -179.3,-93.36 -5.2,-2.94 -10.6,-5.8 -15.8,-8.78 -6.1,-3.45 -12.1,-7.06 -18.2,-10.56 -15.9,-9.19 -31.7,-18.63 -47.4,-28.15 -3.2,-1.99 -6.6,-3.87 -9.8,-5.87 -6.9,-4.18 -13.6,-8.47 -20.4,-12.72 -9.3,-5.86 -18.8,-11.51 -28,-17.5 -40.2,-26.1 -78.3,-56.6 -85.1,-102.69 -10.7,-73.44 58.5,-156.7 169.2,-247.99 -0.2,23.25 -2.3,46.42 -5.6,69.32 -71.8,64.12 -121.9,125.88 -115.2,171.62 2.5,17.56 15.8,33.05 33.2,47.24 8.2,6.67 17.3,13.05 26.6,19.21 1.2,0.77 2.3,1.56 3.5,2.32 3.3,2.17 6.8,4.19 10.1,6.34 17.7,11.33 35.5,22.56 53.6,33.41 6.6,4.01 13.4,7.79 20.1,11.73 6.1,3.57 12.3,6.99 18.3,10.51 63,36.37 127.6,70.41 192.9,102.73 5.2,2.56 10.4,5.14 15.5,7.68 10,4.9 20.1,9.72 30.1,14.56 5.7,2.78 11.4,5.6 17.2,8.36 5.3,2.55 10.6,5.09 15.9,7.62 12.8,6.08 25.6,12.01 38.3,18.02 39.8,18.72 79.6,37.22 119,55.43 119.9,55.31 243.9,112.5 362,176.37 l 9.2,4.98 c 2.4,1.26 4.8,2.56 7.1,3.83 60.5,32.69 128.5,69.71 195.4,111.87 36.2,22.8 72,47.09 106,73.04 55.3,42.1 105.8,88.55 145.9,139.84 63.5,81.33 100.6,174.83 87.2,282.88 -12,95.92 -57.5,193 -137.3,292.55 -17.5,21.78 -36.8,43.69 -57.5,65.72 -77.6,82.3 -178,166.43 -302.5,253.19 -11.1,7.7 -22.2,15.36 -33.5,22.96 -108.3,73.45 -236.2,150.77 -391.1,236.41 -11.6,6.43 -23.2,12.82 -34.7,19.13 -10.5,5.73 -20.8,11.22 -31.2,16.87 -16.9,9.16 -33.8,18.41 -50.6,27.4 1.4,-19.81 3.4,-39.42 6,-58.77 17.4,-9.39 34.8,-18.76 52.3,-28.36 1.9,-1.01 3.7,-2.03 5.6,-3.04 9.6,-5.31 19.3,-10.64 29,-15.98 153.5,-84.92 280.2,-161.5 387.3,-234.1 11.1,-7.49 22.1,-15.03 32.9,-22.6 106.6,-74.24 194.7,-146.03 265.3,-215.93 23.8,-23.53 45.5,-46.83 65.3,-69.94 85.9,-100.41 134.4,-197.11 146.2,-291.56 12.3,-99.27 -26.1,-186.37 -90.5,-262.71"
         style="fill:#211c1d;fill-opacity:1;fill-rule:nonzero;stroke:none"
         id="path98" />
      <path
         d="m 27588.8,6871.31 c 4.6,-0.7 10,-1.01 15.7,-1.01 32,0 76.7,9.26 86.7,11.43 l 130.3,28.16 -346.4,52.2 46.1,-50.82 c 3.2,-3.52 32.4,-34.66 67.6,-39.96"
         style="fill:#211c1d;fill-opacity:1;fill-rule:nonzero;stroke:none"
         id="path100" />
      <path
         d="m 26797.5,6477.57 c -8.1,-24.87 -13.9,-50.16 -17.5,-75.63 0,-0.24 0,-0.47 -0.1,-0.7 -1.1,-7.77 -2,-15.54 -2.7,-23.34 -2.3,-27.84 -2.1,-55.82 1.3,-83.67 3.1,-25.8 9,-53.57 18.7,-82.89 11.2,-33.82 27.4,-69.73 50.4,-107.15 41.2,-67.32 104.3,-139.52 198.3,-213.21 27.8,-21.76 58.3,-43.64 91.7,-65.57 46.6,-30.61 99,-61.3 157.8,-91.85 20.8,-10.81 42.4,-21.59 64.9,-32.35 24.8,-11.9 50.5,-23.78 77.4,-35.61 56.3,-24.71 110.3,-49.24 162.3,-73.57 4.3,15.76 8,32.01 11.2,48.71 -49.5,23.03 -100.7,46.23 -153.9,69.59 -27.6,12.11 -53.8,24.26 -79.1,36.42 -22.9,10.97 -44.7,21.95 -65.7,32.94 -61.7,32.24 -116,64.5 -163.6,96.51 -7.9,5.35 -15.8,10.7 -23.4,16.04 -97.1,68.32 -164.2,135.25 -210.1,198.07 -21.8,29.86 -38.9,58.79 -51.9,86.48 -21.1,44.72 -32,86.25 -36.5,123.29 -5,41.52 -2.4,83.43 6.8,124.63 1.6,7.53 3.5,15.02 5.7,22.5 2,7.02 4.6,13.94 7,20.9 5.8,16.98 12.3,33.84 20.5,50.33 4,8.17 8.3,16.27 12.9,24.29 9.6,16.86 20.5,33.31 32.5,49.36 29.2,39.17 65.1,75.71 107.3,108.09 64.9,49.81 115.2,103.87 163.8,156.14 99,106.49 182.6,196.41 351.2,196.41 59.1,0 128.7,-11.07 213.2,-36.39 18.6,-5.59 36.8,-9.87 54.2,-12.73 314.8,-51.74 336.3,-113.97 335.4,-131.8 -5.4,-107.57 -501.2,-250.75 -601,-256.87 -2.7,-0.17 -5.7,-0.42 -8.6,-0.64 -37.7,-2.86 -88,-10.3 -137.6,-28.76 -11.4,-4.21 -22.7,-9.09 -33.8,-14.52 -0.3,-0.15 -0.6,-0.32 -0.9,-0.48 -20.7,-10.22 -40.8,-22.59 -59.1,-37.86 -5.4,-4.51 -10.6,-9.3 -15.6,-14.31 -11.1,-10.91 -21.3,-22.98 -30.4,-36.44 -49.2,-73.07 -54.5,-170.89 -15.9,-290.74 0.9,-2.59 1.6,-5.14 2.5,-7.75 7,-20.91 23.1,-42.68 47.5,-65.92 60.8,-57.85 174.5,-125.11 338.4,-213.06 -1.6,20.21 -3.7,39.91 -6.2,58.79 -146,79.11 -265.7,150.72 -313.3,204.48 -9.9,11.2 -16.9,21.68 -20.1,31.23 -5.8,17.32 -10.2,33.85 -14.1,50.01 -20,84.92 -13,154.09 21.7,205.66 14.4,21.24 32.7,38.34 53,52.31 6.7,4.65 13.6,9.06 20.7,13.01 33.5,18.62 70.3,29.83 103.1,36.62 1.1,0.23 2.1,0.39 3.2,0.61 10,2 19.7,3.66 28.6,4.93 15.6,2.18 29.3,3.41 39.9,4.07 8.2,0.5 27.4,3.73 53.7,9.22 158.2,33.03 585.9,151.14 593.1,293.93 4.2,81.63 -115.4,139.62 -376.3,182.49 -15.3,2.52 -31.5,6.32 -48.1,11.31 -354.1,106.22 -474.6,-23.42 -614.2,-173.54 -47.2,-50.79 -96,-103.34 -157.7,-150.64 -73.4,-56.25 -129.6,-124.13 -166.1,-197.48 -6.1,-12.44 -11.9,-24.99 -17,-37.72 -3.4,-8.66 -6.5,-17.4 -9.4,-26.18"
         style="fill:#211c1d;fill-opacity:1;fill-rule:nonzero;stroke:none"
         id="path102" />
      <path
         d="m 28082.2,2198.76 c 13,7.76 25.6,15.48 38,23.17 1.9,1.18 3.9,2.37 5.8,3.54 5,3.09 9.8,6.15 14.6,9.23 56.8,35.91 106.9,70.95 150.6,105.12 20.5,16.05 39.6,31.9 57.2,47.56 70.1,62.22 117.5,121.33 142,177.12 13,29.79 19.4,58.63 19.3,86.5 0,15.58 -2,30.87 -6.2,45.84 -12.1,43.69 -34,90.11 -65.6,139.51 -12.5,19.53 -26.3,39.48 -41.9,59.99 -55.2,72.74 -130.1,151.75 -225.3,238.08 -10.7,9.69 -21.5,19.34 -32.4,28.93 -23.2,20.55 -62.3,48.12 -108.8,79.93 -9.5,6.48 -19.2,13.07 -29.2,19.89 12.7,-34.24 29.5,-65.83 50,-93.83 6.7,-4.73 12.9,-9.24 18.9,-13.62 14.8,-10.92 27.4,-20.73 36.8,-28.99 10.7,-9.45 21.4,-18.95 31.9,-28.5 v 0 c 88.1,-79.89 157.8,-152.69 210,-219.4 16.6,-21.16 31.5,-41.72 44.5,-61.67 31.2,-47.72 52.6,-92.1 64.1,-133.43 4.7,-16.99 5.3,-34.87 2.7,-53.42 -3.8,-26.69 -14.7,-54.88 -33.4,-84.58 -51.7,-82.32 -160.2,-175.61 -322.5,-276.97 -3.8,-2.32 -7.5,-4.65 -11.3,-6.97 -1,-0.6 -1.9,-1.19 -2.9,-1.79 -13.8,-8.52 -28.1,-17.11 -42.7,-25.75 -4.7,-2.79 -9.4,-5.58 -14.2,-8.38 -0.5,-0.26 -0.9,-0.52 -1.4,-0.77 -18.5,-10.81 -37.5,-21.68 -57.2,-32.65 l -306.1,-153.67 -7.5,-4.36 -12.6,-5.74 c -90.3,-41.25 -171.1,-75.27 -233.1,-100.21 l 298.7,254.16 232,198.75 13.5,11.61 18.7,16.02 23,19.69 14.2,12.18 44.8,38.32 0.7,0.67 1,0.95 c 25.4,26.44 44.6,54.07 57.7,82.8 10.4,22.65 16.8,45.99 19.5,69.98 5,44.65 -3.1,91.52 -24.7,140.42 -7.9,18.03 -17.9,36.61 -29.5,55.23 -13.6,21.7 -29.9,43.69 -48.4,65.98 -12.8,15.52 -26.5,31.17 -41.8,47.06 -3.4,-17.54 -5,-35.71 -4.6,-54.29 0.1,-4.94 0.6,-9.84 1,-14.76 13.9,-16.24 26.4,-32.19 37.5,-47.84 5.3,-7.42 10.3,-14.8 14.9,-22.07 10.4,-16.64 19.2,-33.15 26.2,-49.03 13.5,-30.59 20.6,-59.83 21.6,-87.94 2,-54.12 -19.1,-104 -63.8,-150.86 l -15.7,-13.42 -16.5,-14.13 -10,-8.57 -36.4,-31.17 -14.8,-12.68 -240.1,-205.68 -11.7,-10.06 -251.6,-214.11 -221.5,-188.44 89.1,16.03 c 20.1,3.63 180.9,64.41 370.4,150.97 l 328.8,165.04 c 21.4,11.92 42,23.74 62,35.5 3,1.73 6.1,3.48 9,5.22 5,2.93 9.8,5.84 14.7,8.76"
         style="fill:#211c1d;fill-opacity:1;fill-rule:nonzero;stroke:none"
         id="path104" />
      <g
         id="g106"
         transform="scale(10)">
        <g
           aria-label="MENTAL"
           transform="matrix(1,0,0,-1,2436.1,43.277)"
           id="text110"
           style="font-size:136.096px;font-family:Cinzel;-inkscape-font-specification:Cinzel-Regular;fill:#100f0d">
          <path
             d="m 13.357077,-99.214511 h 20.00239 l 25.318639,67.516372 25.451546,-67.516372 H 104.13204 V 0 H 91.040777 V -87.120042 L 65.456325,-19.072046 H 51.966341 L 26.381889,-87.120042 V 0 H 13.357077 Z"
             id="path186" />
          <path
             d="m 170.0033,-99.214511 h 62.73175 V -87.91748 H 183.42683 V -58.5452 H 230.675 v 11.297031 h -47.24817 v 35.951138 h 50.50438 V 0 H 170.0033 Z"
             id="path188" />
          <path
             d="m 277.11114,-99.214511 h 18.07525 l 43.99196,82.999949 v -82.999949 h 13.02481 V 0 H 334.12791 L 290.13595,-82.999949 V 0 h -13.02481 z"
             id="path190" />
          <path
             d="m 407.75155,-99.214511 h 83.93029 V -87.91748 H 456.46169 V 0 H 442.9717 v -87.91748 h -35.22015 z"
             id="path192" />
          <path
             d="m 559.18961,-85.990339 -18.20816,49.374669 h 36.48277 z m -7.57566,-13.224172 h 15.21777 L 604.64354,0 h -13.95515 l -9.03763,-25.451546 H 536.92781 L 527.89019,0 h -14.15452 z"
             id="path194" />
          <path
             d="m 652.86935,-99.214511 h 13.42353 v 87.91748 H 714.6043 V 0 h -61.73495 z"
             id="path196" />
        </g>
        <g
           aria-label="MENTAL"
           transform="matrix(1,0,0,-1,0,71.0141)"
           id="text114"
           style="font-size:150.173px;font-family:CenturyGothic;-inkscape-font-specification:CenturyGothic;fill:#100f0d">
          <path
             d="m 14.738659,-109.47671 h 22.071325 l 27.937459,74.499892 28.084111,-74.499892 H 114.90288 V 0 H 100.45753 V -96.131254 L 72.226762,-21.044752 H 57.34145 L 29.110685,-96.131254 V 0 H 14.738659 Z"
             id="path199" />
          <path
             d="m 173.76361,-109.47671 h 69.22037 v 12.465536 h -54.40839 v 32.410385 h 52.13526 v 12.465532 h -52.13526 v 39.669724 h 55.72827 V 0 h -70.54025 z"
             id="path201" />
          <path
             d="m 275.30052,-109.47671 h 19.94485 l 48.54225,91.585004 v -91.585004 h 14.37203 V 0 H 338.21479 L 289.67254,-91.585001 V 0 h -14.37202 z"
             id="path203" />
          <path
             d="m 392.23692,-109.47671 h 92.61157 v 12.465536 H 445.98536 V 0 h -14.88531 v -97.011174 h -38.86313 z"
             id="path205" />
          <path
             d="m 528.97042,-94.884701 -20.09151,54.48171 h 40.25634 z m -8.35924,-14.592009 h 16.7918 L 579.12585,0 h -15.39859 l -9.97243,-28.084112 H 504.40599 L 494.43356,0 h -15.61858 z"
             id="path207" />
          <path
             d="m 624.49342,-109.47671 h 14.81199 v 97.011177 h 53.30848 V 0 h -68.12047 z"
             id="path209" />
        </g>
      </g>
      <path
         d="m 3081.67,5887.34 -0.06,0.05 c 0.03,-0.02 0.06,-0.04 0.09,-0.06 z m -104.16,447.16 c 5.86,4.05 11.85,7.89 18.04,11.33 29.15,16.2 61.19,25.95 89.71,31.87 0.95,0.19 1.83,0.34 2.77,0.53 8.71,1.74 17.11,3.18 24.92,4.28 13.52,1.9 25.45,2.97 34.71,3.54 7.16,0.45 23.8,3.25 46.7,8.03 137.7,28.74 509.84,131.52 516.16,255.78 3.61,71.04 -100.44,121.5 -327.46,158.81 -13.32,2.19 -27.41,5.49 -41.88,9.84 -308.14,92.43 -413.01,-20.38 -534.46,-151.02 -41.1,-44.2 -83.6,-89.92 -137.28,-131.08 -63.84,-48.95 -112.73,-108.03 -144.48,-171.85 -5.38,-10.83 -10.42,-21.75 -14.8,-32.83 -2.98,-7.54 -5.69,-15.14 -8.2,-22.78 -7.1,-21.65 -12.09,-43.65 -15.24,-65.82 -0.03,-0.2 -0.04,-0.41 -0.07,-0.61 -0.95,-6.76 -1.78,-13.52 -2.35,-20.31 -2.04,-24.22 -1.83,-48.57 1.09,-72.81 2.72,-22.45 7.85,-46.61 16.28,-72.13 9.72,-29.43 23.9,-60.68 43.86,-93.24 35.91,-58.58 90.78,-121.41 172.59,-185.54 24.15,-18.93 50.69,-37.97 79.76,-57.06 40.6,-26.64 86.15,-53.35 137.33,-79.93 18.1,-9.4 36.96,-18.78 56.49,-28.14 21.61,-10.37 43.92,-20.71 67.35,-30.99 44.27,-19.44 86.74,-38.73 127.94,-57.9 l 6.38,-6.13 c 0,0 0.42,1.11 1.01,2.72 1.94,-0.9 3.98,-1.81 5.92,-2.72 3.71,13.71 6.94,27.85 9.7,42.39 -1.35,0.63 -2.77,1.26 -4.13,1.89 9.61,43.73 20.03,120.03 13.17,228.29 0.44,-0.24 0.85,-0.46 1.28,-0.69 -1.39,17.59 -3.2,34.73 -5.44,51.16 -126.99,68.84 -231.2,131.16 -272.59,177.94 -8.63,9.75 -14.71,18.87 -17.5,27.18 -5.05,15.07 -8.92,29.45 -12.24,43.52 -17.45,73.9 -11.36,134.09 18.89,178.96 12.46,18.49 28.42,33.37 46.07,45.52"
         style="fill:#211c1d;fill-opacity:1;fill-rule:nonzero;stroke:none"
         id="path116" />
      <path
         d="m 2391.6,5646.99 c -3.09,5.15 -8.56,8.24 -14.63,8.24 -3.2,0 -6.35,-0.9 -9.16,-2.62 -3.9,-2.36 -6.66,-6.13 -7.75,-10.61 -1.1,-4.51 -0.37,-9.19 2.05,-13.18 53.23,-87.2 124.21,-88.25 199.37,-89.36 37.4,-0.55 76.08,-1.12 112.32,-12.9 36.07,-11.69 70.59,-17.61 102.6,-17.61 27.18,0 53.02,4.27 76.81,12.71 61.93,21.91 98.48,67.07 119.28,105.24 -10.65,5.19 -21.06,10.38 -31.15,15.51 -23.7,-43 -57.9,-73.29 -99.6,-88.06 -20.12,-7.07 -42.17,-10.67 -65.51,-10.67 -28.51,0 -59.43,5.37 -91.91,15.93 -28.87,9.36 -63.11,10.28 -99.36,11.25 -69.97,1.9 -149.27,4.04 -193.36,76.13"
         style="fill:#211c1d;fill-opacity:1;fill-rule:nonzero;stroke:none"
         id="path118" />
      <path
         d="m 2743.68,5748.26 c 6.11,0 12.09,0.19 17.94,0.56 -17.11,11.91 -33.51,23.95 -49.01,36 -63.04,6.93 -126.25,33.37 -161.95,67.9 -3.58,3.44 -7.41,5.19 -11.37,5.19 -6.83,0 -14.15,-5.37 -17.03,-12.49 -2.6,-6.45 -1.1,-12.42 4.47,-17.79 49.18,-47.47 136.36,-79.37 216.94,-79.37 h 0.01"
         style="fill:#211c1d;fill-opacity:1;fill-rule:nonzero;stroke:none"
         id="path120" />
      <path
         d="m 3059.23,6190.62 c -2.08,0 -4.31,-0.4 -6.69,-1.23 -53.24,-18.23 -94.06,-45.34 -124.59,-82.76 3.2,-12.93 6.51,-24.39 10.27,-35.62 0.58,-1.73 1.39,-3.56 2.43,-5.5 1.78,2.84 3.59,5.55 5.43,8.17 26.7,37.68 65.2,64.77 117.68,82.81 11.87,4.11 12.19,13.46 11.31,18.65 -1.25,7.45 -6.75,15.48 -15.84,15.48"
         style="fill:#211c1d;fill-opacity:1;fill-rule:nonzero;stroke:none"
         id="path122" />
      <path
         d="m 2100.77,4942.32 -9.09,-36.21 -17.23,33.11 c -28.82,55.4 -67.47,90.19 -129.22,116.33 -2.63,1.12 -5.15,1.68 -7.5,1.68 -8.45,0 -14.41,-7.6 -15.92,-15.1 -1,-4.92 -1,-13.84 10.14,-18.53 101.39,-42.92 130.06,-126.11 162.48,-249.35 7.29,-42.81 21.11,-83.55 41.08,-121.09 34.32,-64.44 166.41,-98.76 249.84,-98.78 187.73,-9.35 364.55,-141.34 411.37,-307.27 10.22,-38.99 28.01,-79.35 52.93,-120.16 8.97,6.98 18.29,13.98 27.88,20.93 -74.84,124.32 -62.22,216.02 -37.79,271.61 31.93,72.77 102.45,125.99 184.06,138.92 11.47,1.8 22.99,2.71 34.25,2.71 50.6,0 94.56,-18.31 124.99,-51.19 5.39,10.86 10.66,22.12 15.81,33.73 -35.86,33.7 -85.2,52.17 -139.79,52.17 -10.21,0 -20.65,-0.63 -31.03,-1.91 l -22.64,-2.78 7.54,21.52 c 30.2,86.29 16.38,191.36 -35.2,267.68 -40.99,60.65 -101.36,95.76 -170.73,98.89 -9.3,0 -16.89,-7.3 -17.29,-16.61 -0.2,-4.62 1.41,-9.04 4.54,-12.46 3.14,-3.41 7.42,-5.42 12.08,-5.62 65.42,-2.9 120.11,-38.63 153.99,-100.61 43.61,-79.75 43.32,-188.48 -0.72,-264.4 l -2.38,-4.1 -4.36,-1.84 c -65.1,-27.55 -117.92,-78.72 -144.93,-140.41 -6.16,-14.05 -11.12,-28.76 -14.72,-43.74 l -7.2,-29.89 -18.05,24.9 c -55.53,76.59 -139.5,138.42 -236.42,174.11 l -32.53,11.99 31.61,14.24 c 37.27,16.79 70.5,40.51 98.76,70.5 5.14,5.49 6.4,11.4 3.72,17.56 -3.03,7.02 -10.28,12.09 -17.21,12.09 -4.24,0 -8.21,-1.93 -11.81,-5.77 -55.46,-58.91 -131.33,-90.06 -219.39,-90.06 -19.27,0 -39.09,1.53 -58.92,4.58 -33.76,5.23 -135.56,30.39 -159.75,75.84 -66.56,124.87 -60.03,323.09 66.57,425.6 l 5.47,4.43 6.84,-1.69 c 23.59,-5.81 45.51,-8.63 67,-8.63 44.94,0 87.73,12.91 130.83,39.49 l 4.74,2.92 5.47,-1.09 c 51.08,-10.17 96.77,-15.11 139.68,-15.11 99.2,0 186.95,25.78 294.49,86.79 40.1,18.36 78.09,40.25 116.14,66.92 l 6.92,4.85 7.56,-3.8 c 91.41,-45.86 167.76,-151.19 137.32,-248.08 -1.78,-5.7 -1.2,-10.62 1.72,-14.59 3.42,-4.65 9.71,-7.67 16.04,-7.67 5.31,0 12.27,2.09 15.35,12.07 33.63,107.08 -39.74,219.34 -129.6,274.91 l -16.86,10.42 15.31,12.58 c 33.72,27.71 67.93,59.19 109.79,101.1 l -15.39,15.5 13.67,23.5 c 3.45,5.93 6.77,12.22 9.96,18.85 -89.78,-92.69 -181.38,-179.85 -303.74,-235.77 l -0.64,-0.38 -0.79,-0.24 c -101.3,-57.62 -184.44,-82.2 -277.99,-82.2 -43.67,-0.01 -90.84,5.52 -144.26,16.93 -1.22,0.26 -2.46,0.4 -3.69,0.4 -3.52,0 -6.92,-1.08 -10.13,-3.31 -41.64,-27.46 -80.48,-40.24 -122.23,-40.24 -20.13,0 -40.91,2.93 -63.56,8.98 l -4,1.06 -2.79,3.05 c -89.02,97.07 -53.35,205.64 -6.74,299.01 2.93,5.91 2.93,11.3 0.01,16 -3.37,5.44 -10.31,9.25 -16.87,9.25 -6.22,0 -10.99,-3.24 -14.18,-9.66 -68.09,-136.18 -68.92,-235.02 -2.67,-320.52 l 8.05,-10.4 -9.76,-8.8 c -47.1,-42.49 -81.09,-101.14 -98.29,-169.64"
         style="fill:#211c1d;fill-opacity:1;fill-rule:nonzero;stroke:none"
         id="path124" />
      <path
         d="m 2294.88,3933.55 c -1.17,0 -2.39,-0.1 -3.6,-0.3 -10.5,-1.74 -22.06,-2.61 -34.32,-2.61 -62.52,-0.01 -149.26,23.97 -194.17,69.9 -1.52,1.58 -6.5,3.9 -12.37,3.9 -2.65,0 -6.47,-0.48 -9.53,-2.74 -28.44,-21.27 -67.06,-32.97 -108.77,-32.97 -45.66,0 -89.05,14.24 -119.05,39.08 -3.5,2.89 -7.11,4.36 -10.73,4.36 -6.99,0 -14.31,-5.69 -17.03,-13.23 -1.69,-4.71 -2.11,-11.64 5.51,-17.94 36.05,-29.77 87.45,-46.83 141.02,-46.83 40.15,0 78.07,9.27 109.65,26.79 l 8.18,4.55 7.4,-5.75 c 49.1,-38.19 129.47,-63.84 199.97,-63.84 h 0.01 c 14.06,0 27.44,1.02 39.78,3.04 14.28,2.35 14.41,14.46 14.11,18.12 -0.5,6.11 -4.44,16.47 -16.06,16.47"
         style="fill:#211c1d;fill-opacity:1;fill-rule:nonzero;stroke:none"
         id="path126" />
      <path
         d="m 2270.73,3298.55 c 23.92,0 49.08,5.01 75.11,14.99 0.93,0.33 1.54,0.52 2.04,0.79 0.65,0.38 1.25,0.92 2.3,1.75 69.31,54.88 156.49,87.65 233.21,87.65 67.1,0 125.93,-24.36 170.19,-70.48 3.32,-3.49 5.99,-4.75 10.83,-5.19 6.8,-0.53 13.5,-0.79 20.06,-0.79 134.18,0 209.98,106.62 227.25,215.24 -11,6.41 -21.81,12.66 -32.37,18.75 -11.09,-100.46 -74.52,-199.2 -194.18,-199.2 -2.05,0 -4.08,0.03 -6.15,0.08 l -5.4,0.17 -3.93,3.71 c -49.97,47.29 -114.39,72.28 -186.27,72.28 -83.65,0 -174.98,-33.48 -250.56,-91.85 l -1.76,-1.37 -2.1,-0.75 c -20.23,-7.31 -39.79,-11.02 -58.12,-11.02 -40.07,0 -75.51,16.89 -108.32,51.63 -3.64,3.84 -7.65,5.81 -11.91,5.81 -6.94,0 -14.17,-5.08 -17.19,-12.07 -2.64,-6.12 -1.38,-11.98 3.73,-17.41 39.26,-41.62 84.19,-62.72 133.54,-62.72"
         style="fill:#211c1d;fill-opacity:1;fill-rule:nonzero;stroke:none"
         id="path128" />
      <path
         d="m 3123.82,3154 c -1.19,0 -2.44,-0.11 -3.73,-0.32 -10.86,-1.79 -22.64,-2.7 -35.03,-2.7 -71.11,0 -150.46,28.69 -192.92,69.76 -3.23,3.1 -7.49,4.82 -11.99,4.82 -4.8,0 -9.28,-1.9 -12.61,-5.36 -3.2,-3.32 -4.91,-7.7 -4.81,-12.33 0.1,-4.6 1.97,-8.9 5.36,-12.12 49.12,-47.52 136.41,-79.45 217.18,-79.45 0.01,0 0.02,0 0.02,0 14.2,0 27.78,1.05 40.36,3.1 14.28,2.35 14.42,14.49 14.12,18.16 -0.5,6.1 -4.42,16.44 -15.95,16.44"
         style="fill:#211c1d;fill-opacity:1;fill-rule:nonzero;stroke:none"
         id="path130" />
      <path
         d="m 3205.79,2919.45 c 6.17,3.66 12.73,6.92 19.62,9.72 -4.33,10.27 -9.41,20.36 -15.2,30.17 -46.95,-23.44 -103.38,-35.83 -163.43,-35.83 -29.64,0 -59.66,2.99 -89.24,8.9 -93.2,18.77 -170.55,63.57 -212.25,122.91 l -11.63,16.57 -14.66,-14.26 c -42.71,-41.42 -95.96,-68.64 -154,-78.72 -17.52,-3.05 -35.46,-4.6 -53.29,-4.6 -43.63,0 -85.86,9.14 -119.03,25.79 -2.44,1.25 -5.06,1.88 -7.77,1.88 -6.55,0 -12.43,-3.64 -15.4,-9.57 -4.33,-8.5 -0.88,-18.96 7.63,-23.31 37.24,-18.78 86.59,-29.55 135.4,-29.55 19.63,0 39.25,1.71 58.31,5.06 54.65,9.59 104.33,31.92 147.68,66.38 l 10.34,8.21 8.92,-9.73 c 48.92,-53.34 126.59,-93.89 213.08,-111.21 31.29,-6.24 63.21,-9.41 94.86,-9.41 57.25,0 112.57,10.57 160.06,30.6"
         style="fill:#211c1d;fill-opacity:1;fill-rule:nonzero;stroke:none"
         id="path132" />
      <path
         d="m 1846.34,4498.73 c 21.57,-20.28 46.87,-38.51 73.73,-53.08 49.36,-26.87 103.79,-41.66 153.26,-41.66 16.79,0 33.1,1.69 48.54,5.02 4.52,0.96 8.41,3.62 10.94,7.5 2.52,3.88 3.4,8.5 2.44,13.03 -1.68,7.97 -8.79,13.75 -16.92,13.75 -1.21,0 -2.42,-0.12 -3.54,-0.36 -13.25,-2.85 -27.32,-4.3 -41.81,-4.3 -43.43,0 -91.84,13.26 -136.3,37.35 -29.81,16.21 -56.65,36.66 -78.16,59.32 -2.41,-12.47 -6.5,-24.76 -12.18,-36.57"
         style="fill:#211c1d;fill-opacity:1;fill-rule:nonzero;stroke:none"
         id="path134" />
      <path
         d="m 1751.07,4382.04 c 6.86,0 13.95,-0.43 21.64,-1.3 1.98,0.07 3.97,0.11 5.97,0.11 34.72,0 72.54,-10.17 109.37,-29.41 61.45,-32.06 110.99,-84.88 135.89,-144.77 2.75,-6.44 10.79,-11.48 18.3,-11.48 2.58,0 4.92,0.59 6.98,1.73 66.58,37.19 130.76,56.43 190.8,57.17 l 3.2,0.02 c 59.15,0 114.8,-17.56 165.39,-52.19 85.42,-58.44 90.94,-126.05 95.39,-180.49 4.61,-56.44 8.59,-105.18 66.49,-145.25 32.09,-22.28 65.81,-33.12 108.22,-34.6 -1.41,11.6 -1.74,23.31 -0.99,35.04 -24.96,1.29 -57.05,6.9 -87.55,28.06 -44.33,30.64 -47.95,75.81 -51.44,119.47 -5.6,68.16 -11.39,138.65 -110.57,206.46 -56.5,38.49 -118.61,58 -184.59,58 l -3.71,-0.03 c -57.67,-0.55 -117.78,-16.08 -178.65,-46.14 l -12.17,-6 -6.53,11.88 c -30.55,55.68 -79.67,103.2 -138.29,133.8 -41.72,21.69 -85.18,33.15 -125.69,33.15 -7.37,0 -14.67,-0.4 -21.73,-1.16 -5.36,-2.34 -10.87,-4.42 -16.46,-6.2 -0.06,-2.02 -0.09,-3.93 -0.07,-5.71 l 0.16,-14.83 -6.05,-6.05 c 5.5,0.47 11.06,0.72 16.69,0.72"
         style="fill:#211c1d;fill-opacity:1;fill-rule:nonzero;stroke:none"
         id="path136" />
      <path
         d="m 1761.7,3657.96 c 31.5,-10.6 67.01,-16.21 102.71,-16.21 19.72,0 39.46,1.71 58.7,5.1 54.44,9.42 104.06,31.76 147.47,66.39 l 10.34,8.23 8.94,-9.74 c 48.93,-53.35 126.6,-93.89 213.1,-111.22 31.4,-6.29 63.45,-9.49 95.25,-9.49 0,0 0,0 0.02,0 68.16,0 132.26,14.7 185.37,42.49 4.08,2.14 7.09,5.75 8.48,10.2 1.38,4.44 0.97,9.13 -1.17,13.2 -3.01,5.73 -8.87,9.28 -15.31,9.28 -2.78,0 -5.45,-0.66 -7.96,-1.97 -48.01,-25.15 -106.35,-38.44 -168.71,-38.44 -29.63,0 -59.63,2.99 -89.14,8.89 -94.37,18.79 -171.77,63.59 -212.35,122.88 -3.08,4.47 -8.36,7.15 -14.14,7.15 -4.62,0 -8.89,-1.7 -12.04,-4.78 -42.88,-41.87 -94.75,-68.43 -154.18,-78.9 -18.86,-3.3 -37.51,-4.97 -55.44,-4.97 -39.17,0 -75.54,7.73 -108.63,23.04 l -1.16,-4.1 c -2.77,-9.84 -4.85,-20.39 -6.21,-31.49 1.33,-0.47 2.65,-0.96 3.95,-1.46 l 12.11,-4.08"
         style="fill:#211c1d;fill-opacity:1;fill-rule:nonzero;stroke:none"
         id="path138" />
      <path
         d="m 3005.73,2735.73 c -40.47,0 -88.74,-16.46 -118.57,-32.73 -32.75,-18.04 -75.66,-51.08 -97.24,-107.11 7.44,-12.88 15.91,-24.29 25.35,-34.15 13.64,58.8 55.43,92.58 88.67,110.7 38.4,21.13 77.47,28.67 101.23,28.67 4.65,0 8.9,-0.27 13.03,-0.81 1.52,-0.24 2.97,-0.36 4.35,-0.36 14.72,0 16.53,13.26 16.74,15.93 0.21,2.64 0.52,16.01 -14.26,18.39 -5.88,0.97 -12.37,1.47 -19.3,1.47"
         style="fill:#211c1d;fill-opacity:1;fill-rule:nonzero;stroke:none"
         id="path140" />
      <path
         d="m 3961.94,3220.76 c -12.86,-12.43 -28.74,-23.65 -47.4,-33.48 6.85,-9.41 13.45,-18.92 19.78,-28.45 20.26,11.03 37.56,23.44 51.58,36.99 3.3,3.17 5.19,7.45 5.28,12.05 0.1,4.64 -1.6,9.01 -4.81,12.33 -3.34,3.46 -7.78,5.36 -12.53,5.36 -4.45,0 -8.69,-1.72 -11.9,-4.8"
         style="fill:#211c1d;fill-opacity:1;fill-rule:nonzero;stroke:none"
         id="path142" />
      <path
         d="m 4116.29,3009.49 8.94,9.72 10.33,-8.23 c 43.19,-34.45 92.82,-56.78 147.5,-66.37 19.1,-3.35 38.73,-5.06 58.39,-5.06 48.77,0 98.09,10.77 135.26,29.52 8.57,4.38 12.02,14.84 7.64,23.43 -2.92,5.84 -8.8,9.48 -15.35,9.48 -2.71,0 -5.32,-0.63 -7.86,-1.92 -33.07,-16.61 -75.28,-25.75 -118.88,-25.75 -17.81,0 -35.72,1.55 -53.18,4.6 -58.13,10.07 -111.44,37.27 -154.19,78.74 l -14.64,14.24 -11.64,-16.57 c -23.4,-33.31 -58.79,-62.64 -102.69,-85.17 -0.68,-13.63 -2.99,-27.54 -6.92,-41.61 47.22,20.77 87.39,48.42 117.29,80.95"
         style="fill:#211c1d;fill-opacity:1;fill-rule:nonzero;stroke:none"
         id="path144" />
      <path
         d="m 5068.6,3998.94 c -2.71,7.54 -10.03,13.23 -17.02,13.23 -3.62,0 -7.23,-1.47 -10.73,-4.36 -30,-24.83 -73.38,-39.08 -119,-39.08 -41.68,0 -80.31,11.7 -108.76,32.92 -3.12,2.31 -6.94,2.79 -9.6,2.79 -5.87,0 -10.85,-2.33 -12.44,-3.98 -44.84,-45.84 -131.56,-69.82 -194.04,-69.82 -12.28,0 -23.85,0.87 -34.31,2.6 -1.28,0.21 -2.49,0.31 -3.67,0.31 -11.56,0 -15.49,-10.3 -15.97,-16.39 -0.3,-3.67 -0.17,-15.83 14.18,-18.2 12.32,-2.02 25.69,-3.04 39.72,-3.04 70.45,0 150.77,25.65 199.87,63.84 l 7.39,5.75 8.2,-4.55 c 31.58,-17.52 69.51,-26.79 109.7,-26.79 53.62,0 104.99,17.06 140.96,46.82 7.62,6.31 7.21,13.24 5.52,17.95"
         style="fill:#211c1d;fill-opacity:1;fill-rule:nonzero;stroke:none"
         id="path146" />
      <path
         d="m 3932.37,4037.89 c 4.55,0 8.67,2.19 12.3,6.51 57.29,68.27 95.15,136.47 112.6,202.97 11.43,40.42 30.61,79.3 56.59,115.23 -26.81,-15.21 -53.77,-29.94 -81.01,-44.68 -2.83,-79.23 -41.43,-163.7 -114.81,-251.27 -4.68,-5.59 -5.66,-11.37 -2.93,-17.19 3.13,-6.71 10.38,-11.57 17.26,-11.57"
         style="fill:#211c1d;fill-opacity:1;fill-rule:nonzero;stroke:none"
         id="path148" />
      <path
         d="m 4425.73,6083.21 c -7.03,4.38 -13.29,8.07 -19.2,11.35 l -10.83,6.04 -0.85,2.08 c -49.93,-73.75 -139.08,-82.44 -225.58,-90.85 -57.27,-5.54 -116.5,-11.25 -170.53,-31.69 l -15.38,-5.82 -3.48,16.07 c -8.76,40.4 -23.1,74.2 -43.83,103.33 -31.17,44.05 -75.17,75.34 -134.56,95.68 -2.35,0.82 -4.61,1.22 -6.7,1.22 -9.16,0 -14.68,-8.04 -15.94,-15.51 -0.87,-5.19 -0.57,-14.51 11.27,-18.62 52.5,-18.04 91.01,-45.13 117.69,-82.78 20.82,-29.26 34.35,-64.55 41.4,-107.9 l 1.45,-8.99 -7.58,-5.07 c -74.99,-50 -105.54,-116.84 -96.14,-210.4 8.16,-82.77 52.85,-183.94 153.77,-219.69 23.79,-8.44 49.62,-12.71 76.8,-12.71 32.01,0 66.53,5.92 102.6,17.61 36.24,11.78 74.92,12.35 112.33,12.9 75.15,1.11 146.13,2.16 199.36,89.36 2.45,4.03 3.2,8.75 2.07,13.27 -1.08,4.43 -3.82,8.16 -7.8,10.55 -2.78,1.69 -5.92,2.59 -9.09,2.59 -6.04,0 -11.55,-3.12 -14.73,-8.32 -43.93,-71.99 -123.27,-74.15 -193.27,-76.05 -36.26,-0.97 -70.51,-1.89 -99.36,-11.25 -32.51,-10.56 -63.43,-15.93 -91.93,-15.93 -23.33,0 -45.32,3.6 -65.39,10.69 -85.48,30.19 -123.67,118.1 -130.88,190.3 -5.66,56.56 6.3,103.33 35.56,139.02 53.72,65.56 154.57,83.76 255.54,93.67 102.26,9.97 199.1,19.43 253.21,105.85"
         style="fill:#211c1d;fill-opacity:1;fill-rule:nonzero;stroke:none"
         id="path150" />
      <path
         d="m 4610.06,5134.03 -4.02,-1.07 c -22.68,-6.04 -43.49,-8.97 -63.62,-8.97 -41.68,0 -80.54,12.78 -122.59,40.44 -2.92,2.03 -6.32,3.11 -9.85,3.11 -1.22,0 -2.46,-0.14 -3.72,-0.4 -21.9,-4.68 -42.59,-8.33 -62.59,-11.05 9.53,-10.61 18.36,-20.89 26.65,-31.02 10.04,1.62 20.21,3.4 30.64,5.49 l 5.46,1.09 4.75,-2.92 c 43.19,-26.57 86.03,-39.49 130.91,-39.49 21.49,0 43.44,2.82 67.08,8.63 l 6.85,1.69 5.46,-4.44 c 126.47,-102.54 132.96,-300.75 66.43,-425.58 -24.2,-45.46 -125.99,-70.62 -159.77,-75.85 -19.56,-3.01 -39.17,-4.53 -58.31,-4.53 -19,0 -37.77,1.5 -55.92,4.47 -16.09,-19.93 -34.24,-39.45 -54.7,-58.84 36.41,11.14 73.68,17.78 110.77,19.61 82.2,0 214.25,34.3 248.44,98.76 19.97,37.56 33.79,78.3 41.35,122.32 32.16,122.02 60.84,205.21 162.36,248.12 11.05,4.67 11.02,13.59 10.04,18.49 -1.54,7.52 -7.52,15.14 -15.98,15.14 -2.35,0 -4.87,-0.56 -7.5,-1.68 -61.54,-26.06 -100.19,-60.85 -129.24,-116.36 l -17.25,-32.95 -9.05,36.08 c -17.19,68.45 -51.12,127.11 -98.15,169.65 l -9.73,8.81 8.03,10.36 c 66.14,85.52 65.27,184.37 -2.84,320.57 -3.18,6.39 -7.94,9.63 -14.17,9.63 -6.56,0 -13.49,-3.81 -16.85,-9.23 -2.94,-4.72 -2.92,-10.11 -0.02,-15.99 46.63,-93.39 82.31,-201.94 -6.56,-299.03 l -2.79,-3.06"
         style="fill:#211c1d;fill-opacity:1;fill-rule:nonzero;stroke:none"
         id="path152" />
      <path
         d="m 3723.12,5225.03 c -57.34,-66.07 -78.77,-144.94 -57.35,-213.16 3.06,-9.91 10.03,-12 15.34,-12 6.33,0 12.62,3.02 16.04,7.67 2.92,3.97 3.5,8.89 1.7,14.6 -18.02,57.67 1.4,124.65 51.99,181.67 -8.8,6.91 -18.07,14.01 -27.72,21.22"
         style="fill:#211c1d;fill-opacity:1;fill-rule:nonzero;stroke:none"
         id="path154" />
      <path
         d="m 3965.21,4920.24 c -2.09,11.39 -5.04,22.87 -8.82,34.28 -95.74,-52.35 -149.82,-185.04 -125.18,-305.7 11.48,9.4 22,18.62 31.81,27.83 -11.97,100.71 30.04,200.36 102.19,243.59"
         style="fill:#211c1d;fill-opacity:1;fill-rule:nonzero;stroke:none"
         id="path156" />
      <path
         d="m 4917.38,4475.98 c -44.46,-24.09 -92.88,-37.35 -136.36,-37.35 -14.49,0 -28.54,1.45 -41.66,4.29 -1.22,0.25 -2.47,0.37 -3.68,0.37 -8.18,0 -15.34,-5.78 -17.01,-13.75 -0.96,-4.53 -0.08,-9.15 2.43,-13.04 2.54,-3.87 6.43,-6.53 11.02,-7.5 15.38,-3.32 31.68,-5.01 48.47,-5.01 49.47,0 103.89,14.79 153.28,41.67 39.53,21.44 73.97,49.42 100.13,81.24 -5.49,12.41 -11.5,23.51 -17.96,33.16 -23.59,-32.55 -57.94,-61.93 -98.66,-84.08"
         style="fill:#211c1d;fill-opacity:1;fill-rule:nonzero;stroke:none"
         id="path158" />
      <path
         d="m 4936.82,3681.03 c -58.62,10.37 -111.93,37.64 -154.23,78.95 -3.07,3.05 -7.3,4.72 -11.93,4.72 -5.8,0 -11.11,-2.68 -14.15,-7.11 -40.44,-59.29 -117.85,-104.09 -212.37,-122.92 -29.52,-5.9 -59.52,-8.89 -89.17,-8.89 -62.35,0 -120.68,13.29 -168.72,38.44 -2.49,1.31 -5.16,1.97 -7.94,1.97 -6.43,0 -12.3,-3.55 -15.31,-9.27 -4.44,-8.47 -1.16,-18.97 7.31,-23.41 53.12,-27.79 117.22,-42.49 185.39,-42.49 31.81,0 63.85,3.2 95.26,9.49 86.5,17.33 164.17,57.87 213.09,111.22 l 8.94,9.74 10.34,-8.23 c 43.41,-34.63 93.02,-56.97 147.5,-66.39 19.05,-3.37 38.65,-5.05 58.23,-5.05 23.06,0 45.87,2.29 67.97,6.85 -0.68,11.98 -2.19,23.45 -4.51,34.3 -19.7,-4.52 -40.19,-6.8 -61.12,-6.8 -17.7,0 -36.06,1.63 -54.58,4.88"
         style="fill:#211c1d;fill-opacity:1;fill-rule:nonzero;stroke:none"
         id="path160" />
      <path
         d="m 5060.75,4414.67 c -36.38,-2.4 -74.44,-13.55 -110.89,-32.53 -58.77,-30.6 -107.88,-78.11 -138.29,-133.79 l -6.52,-11.91 -12.17,5.99 c -61.04,30.07 -121.16,45.6 -178.69,46.15 l -3.7,0.03 c -66.07,0 -128.24,-19.51 -184.72,-57.99 -99.19,-67.82 -104.99,-138.29 -110.59,-206.45 -3.49,-43.68 -7.1,-88.84 -51.41,-119.48 -36.76,-25.51 -75.62,-28.45 -101.66,-28.45 -17.79,0 -35.56,1.57 -53.51,3.15 -19.7,1.76 -38.3,3.41 -56.83,3.41 -47.23,0 -81.05,-11.48 -113.08,-38.35 -70.79,-59.64 -106.76,-190.66 -99.5,-277.86 9.51,-115.27 85.61,-239.32 230.24,-239.32 6.58,0 13.26,0.25 19.89,0.77 5.02,0.46 7.69,1.72 11.06,5.26 44.21,46.07 103.05,70.43 170.15,70.43 76.7,0 163.95,-32.76 233.59,-87.84 0.91,-0.75 1.48,-1.26 1.96,-1.58 0.5,-0.26 1.11,-0.45 2.28,-0.88 25.79,-9.87 50.97,-14.88 74.88,-14.88 49.31,0 94.21,21.1 133.46,62.71 5.14,5.45 6.4,11.32 3.75,17.43 -3.01,6.99 -10.21,12.04 -17.12,12.04 -4.22,0 -8.19,-1.93 -11.83,-5.81 -32.92,-34.72 -68.38,-51.61 -108.39,-51.61 -18.32,0 -37.91,3.71 -58.19,11.02 l -2.09,0.75 -1.78,1.37 c -75.59,58.37 -166.88,91.85 -250.49,91.85 -71.87,0 -136.3,-24.99 -186.35,-72.28 l -3.91,-3.71 -5.4,-0.17 c -2.06,-0.05 -4.13,-0.08 -6.15,-0.08 -122.88,0 -186.46,104.1 -194.96,207.29 -7.29,89.98 24.7,180.74 87.75,248.98 l 0.71,0.78 0.81,0.65 c 31.47,25.3 67.55,28.22 91.95,28.22 16.75,0 34.03,-1.55 51.19,-3.1 19.3,-1.72 39.24,-3.49 58.86,-3.49 47.21,0 83.7,10.72 118.37,34.8 57.88,40.04 61.86,88.76 66.49,145.33 4.44,54.34 9.96,121.96 95.39,180.41 50.75,34.63 106.4,52.18 165.4,52.18 l 3.22,-0.02 c 60.01,-0.74 124.18,-19.98 190.76,-57.17 2.05,-1.14 4.41,-1.73 6.98,-1.73 7.51,0 15.56,5.04 18.24,11.37 24.95,60 74.5,112.82 135.94,144.88 34.24,17.88 69.2,27.96 101.63,29.38 l -6.52,6.56 0.14,14.84 c 0.04,3.64 -0.07,7.85 -0.35,12.45"
         style="fill:#211c1d;fill-opacity:1;fill-rule:nonzero;stroke:none"
         id="path162" />
      <path
         d="m 4314.64,5857.91 c -3.97,0 -7.81,-1.75 -11.35,-5.15 -42.47,-41.08 -121.87,-69.78 -193.07,-69.78 -12.4,0 -24.19,0.9 -35.02,2.69 -1.26,0.2 -2.49,0.3 -3.65,0.3 -11.56,0 -15.47,-10.3 -15.97,-16.37 -0.29,-3.68 -0.15,-15.83 14.2,-18.2 12.63,-2.09 26.28,-3.14 40.58,-3.14 80.58,0 167.78,31.9 216.97,79.37 5.54,5.34 7.03,11.3 4.44,17.74 -2.89,7.14 -10.25,12.54 -17.13,12.54"
         style="fill:#211c1d;fill-opacity:1;fill-rule:nonzero;stroke:none"
         id="path164" />
      <path
         d="m 3856.71,2735.26 c -11.62,-10.18 -24.02,-20.53 -37.02,-30.91 2.47,-2.49 6.16,-4.41 11.7,-4.41 1.37,0 2.82,0.12 4.67,0.4 3.78,0.5 8.04,0.77 12.69,0.77 23.73,0 62.82,-7.52 101.33,-28.64 29.46,-16.11 52.81,-37.73 68.69,-63.36 0.47,0.94 9.32,19.82 9.32,19.82 l 17.58,2.82 c -18.82,28.66 -45.78,53.05 -78.87,71.22 -27.32,14.9 -71.25,30.25 -110.09,32.29"
         style="fill:#211c1d;fill-opacity:1;fill-rule:nonzero;stroke:none"
         id="path166" />
      <path
         d="m 3247.79,5500.16 c 1.44,4.54 2.93,9.03 4.26,13.68 3.91,13.64 7.28,27.78 10.31,42.17 1,4.75 2.05,9.46 2.96,14.28 11.67,61.91 15.67,128.78 14,192.49 -0.15,5.44 -0.24,10.9 -0.47,16.28 -0.71,16.98 -1.89,33.59 -3.38,49.83 -0.52,5.72 -1.07,11.37 -1.68,16.96 -1.77,16.14 -3.82,31.87 -6.28,46.8 40.07,136.19 25.05,276.1 -40.47,375.2 -16.32,24.64 -35.36,45.71 -56.43,63.17 -18.29,15.16 -38.09,27.62 -59.15,36.94 -24.78,-3.66 -54.58,-10.32 -83.41,-22.25 65.69,-4.99 122.97,-40.07 163.53,-101.32 35.57,-53.8 54.23,-121.58 55.37,-194.28 0.66,-41.69 -4.4,-84.97 -15.52,-128.24 -1.86,-7.23 -3.85,-14.46 -6.04,-21.68 l -1.47,-4.81 0.85,-4.96 c 1.11,-6.46 2.09,-13.19 3.07,-19.91 0.82,-5.71 1.58,-11.51 2.31,-17.39 2.03,-16.4 3.7,-33.35 4.9,-50.78 0.38,-5.5 0.71,-11.05 1,-16.62 1.45,-27.71 1.51,-56.26 0.53,-84.84 -1.29,-37.83 -4.59,-75.71 -10.82,-111.88 -0.83,-4.83 -1.67,-9.66 -2.6,-14.42 -2.83,-14.5 -6.17,-28.58 -9.93,-42.28 -1.28,-4.64 -2.54,-9.28 -3.93,-13.81 -8.49,-27.74 -19.01,-53.39 -31.97,-75.66 l -8.2,-14.11 11.48,-11.57 c 2.06,-2.08 3.91,-4.33 5.92,-6.45 173.24,-183.05 146.69,-527 62.72,-776.07 -17.14,-50.84 -36.61,-97.82 -57.31,-138.56 l -4.32,-8.5 3.48,-8.88 c 8.62,-22.05 19.21,-51.5 29.62,-85.97 4.51,-14.96 8.99,-30.76 13.26,-47.48 0.19,0.08 0.4,0.17 0.59,0.25 12.55,5.36 25.56,10.85 38.95,16.45 -12.94,49.72 -27.55,92.28 -39.4,123.38 128.06,258.57 205.24,713.81 -12.31,950.24 10.17,19.74 18.69,41.56 25.98,64.6"
         style="fill:#211c1d;fill-opacity:1;fill-rule:nonzero;stroke:none"
         id="path168" />
      <path
         d="m 2925.46,2459.28 c 11.15,0 22.43,0.86 33.73,2.37 57.96,0.5 120.72,31.84 166.73,78.16 2.61,2.26 5.2,4.54 7.75,6.88 14.3,12.25 32.92,23.26 48.31,38.26 2.14,2.08 4.06,4.33 6.12,6.48 56.93,52.83 95.44,121.26 108.1,194.36 6.8,39.23 5.91,77.81 -2.21,114.86 -3.97,18.13 -9.71,35.88 -17.17,53.15 -7.09,16.41 -15.63,32.41 -25.83,47.86 41.65,48.63 66.86,115.5 68.17,182.43 0.66,31.45 -4.07,61.69 -13.27,90.17 -8.56,26.48 -21.22,51.29 -37.73,73.91 -7.96,10.93 -16.52,21.5 -26.25,31.3 3.78,4.55 7.21,9.43 10.78,14.19 2.83,3.79 5.8,7.45 8.5,11.36 7.99,11.59 15.18,23.89 21.94,36.5 2.24,4.19 4.53,8.34 6.63,12.63 21.02,42.85 34.88,90.73 40.9,141.33 0.66,5.5 1.34,10.99 1.81,16.55 0.14,1.69 0.42,3.32 0.54,5.01 1.16,15.87 1.29,31.72 0.92,47.53 -0.14,6.26 -0.45,12.51 -0.83,18.75 -4.9,80.69 -29.01,158.54 -69.87,221.56 4.82,11.07 9.07,22.3 12.99,33.61 -13.75,-8.42 -27.49,-16.84 -40.97,-25.59 -3.03,-1.96 -5.91,-4.14 -8.9,-6.2 -3.61,-2.48 -7.3,-4.87 -10.73,-7.47 l 4.1,-5.9 1.81,-2.6 c 32.64,-47 54.75,-106.09 64.49,-168.23 0.62,-3.96 1.07,-7.95 1.57,-11.93 0.39,-3.02 0.86,-6.02 1.19,-9.04 2.1,-19.09 2.92,-38.3 2.57,-57.51 -0.11,-5.98 -0.21,-11.96 -0.56,-17.92 -0.12,-1.98 -0.04,-3.98 -0.18,-5.96 -3.73,-51.21 -16.56,-99.46 -36.79,-142.31 -2.04,-4.32 -3.94,-8.72 -6.13,-12.92 -6.64,-12.73 -14.19,-24.71 -22.21,-36.27 -2.7,-3.88 -5.28,-7.87 -8.13,-11.61 -6.48,-8.52 -13.28,-16.72 -20.52,-24.44 l -15.15,-16.12 15.92,-13.79 0.81,-0.7 c 51.9,-44.96 79.69,-107.82 78.25,-177.03 -0.01,-0.25 -0.05,-0.5 -0.05,-0.74 -1.42,-62.31 -26.75,-124.23 -67.92,-165.78 l -12.83,-12.94 10.84,-14.66 c 2.63,-3.55 4.84,-7.25 7.27,-10.87 33.62,-50.15 48.37,-106.7 42.98,-165.49 -0.66,-7.11 -1.4,-14.24 -2.64,-21.41 -13.9,-80.3 -63.73,-154.44 -136.69,-203.43 l -3.15,-2.59 c -62.97,-62.73 -149.85,-95.15 -221.4,-82.48 -17.44,3.07 -33.52,8.97 -48.42,17.02 -28.84,15.58 -52.6,40.22 -70.27,73.1 -2.01,3.74 -4.12,7.32 -5.97,11.27 l -4.77,10.18 -11.12,1.79 c -49.45,7.89 -90.57,23.1 -123.38,45.28 -33.82,22.88 -58.69,53.28 -74.4,91.03 -1.1,2.64 -2.26,5.22 -3.27,7.94 l -6.97,18.75 -19.14,-5.81 c -102.88,-31.28 -215.8,-5.79 -302.08,68.18 -8.18,7.02 -15.81,14.42 -23.14,22.01 -69.06,71.43 -100.3,166.67 -83.86,260.51 l 1.18,6.75 1.87,10.73 -16.64,6.13 c -33.79,12.45 -63.19,29.95 -87.73,51.78 -42.22,37.55 -69.99,87.99 -80.45,148.09 l -1.38,7.93 -0.91,5.18 -12.78,3.68 c -35.3,10.15 -67.33,29.57 -94.77,54.83 -74.19,68.26 -113.88,180.52 -86.46,277.94 l 4.08,14.49 -12.32,8.66 c -87.87,61.71 -141.83,159.02 -151.93,273.98 -12.38,140.76 41.98,290.55 141.87,390.88 l 6.28,6.31 -0.09,8.9 c -0.24,24.61 4.99,68.59 20.52,111.52 9.05,24.97 20.31,46.31 33.43,63.41 l 13.63,17.76 -18.44,12.69 c -161.56,111.2 -176.43,248.97 -49.73,460.66 34.08,56.75 74.03,112.43 109.28,161.53 l 4.25,5.94 -0.28,7.29 c -3.63,93.28 22.07,195.14 72.36,286.81 32.38,58.91 72.8,109.16 116.18,145.7 21.79,18.35 44.31,33.3 66.96,44.03 l 11.41,5.39 0.45,7.96 0.26,4.67 c 5.22,92.69 67.63,190.16 146.45,267.09 42.44,41.41 89.55,76.98 135.25,102.42 l 6.51,3.63 1.88,4.59 0.95,2.31 c 17.29,42.3 42.36,78.89 73.02,110.09 2.17,22.76 6.55,45.35 12.74,67.67 -52.37,-40.32 -95,-91.77 -122.22,-154.78 -106.26,-61.06 -218.6,-172.52 -269.42,-291.16 -9.07,-21.18 -16.27,-42.55 -21.01,-63.94 -2.45,-11.04 -4.46,-22.08 -5.6,-33.09 -71.7,-37.74 -140.81,-110.67 -191.07,-202.11 -28.37,-51.7 -49.16,-106.55 -62.19,-161.6 -9.89,-41.75 -15.09,-83.55 -15.41,-124.26 -0.04,-5.23 -0.34,-10.51 -0.22,-15.7 -34.66,-48.33 -73.37,-102.62 -107,-158.62 -48.86,-81.64 -97.98,-184.5 -88.84,-287.85 6.61,-74.78 43.66,-149.82 133.64,-217.27 -10.44,-16.69 -19.55,-35.71 -27.2,-56.78 -15.73,-43.5 -22.05,-88.38 -22.95,-117.43 -69.84,-72.71 -118.12,-167.98 -138.68,-267.9 -10.23,-49.75 -13.71,-100.62 -9.33,-150.48 10.77,-122.44 66.69,-227.09 157.95,-296.36 -1.19,-5.34 -1.87,-10.75 -2.75,-16.13 -4.7,-28.87 -4.94,-58.19 -1.13,-87.11 15.35,-116.57 95.23,-225.69 205.35,-263.48 2.16,-10.1 4.85,-19.88 7.86,-29.48 0.33,-1.02 0.62,-2.07 0.95,-3.09 26.81,-82.51 84.98,-145.43 167.93,-180.68 -1.29,-10.66 -1.89,-21.31 -2.14,-31.94 -1.14,-47.41 7.94,-94.19 26.39,-137.9 21.29,-50.43 54.87,-96.76 99.51,-135.07 92.21,-79.07 211.75,-108.92 323.47,-81.71 7.42,-16.32 16.36,-31.36 26.66,-45.22 0.79,-1.07 1.63,-2.11 2.44,-3.16 40.93,-53.24 103.36,-87.86 186.72,-103.13 33.01,-63.78 84.95,-103.5 150.8,-115.11 13,-2.29 26.3,-3.41 39.77,-3.41"
         style="fill:#211c1d;fill-opacity:1;fill-rule:nonzero;stroke:none"
         id="path170" />
      <path
         d="m 3258.96,4010.94 c 13.35,7.95 26.77,15.81 40.27,23.51 12.82,88.36 5.25,178.25 -9.86,257.31 -13.28,-5.58 -26.01,-11 -38.33,-16.31 -0.54,-0.23 -1.1,-0.47 -1.63,-0.7 15.19,-83.41 21.16,-178.15 1.71,-268.39 2.59,1.57 5.24,3.03 7.84,4.58"
         style="fill:#211c1d;fill-opacity:1;fill-rule:nonzero;stroke:none"
         id="path172" />
      <path
         d="m 3538.69,4157.51 c 4.16,100.75 28.69,196.18 51.17,264.29 -5.29,-2.52 -10.59,-4.9 -15.88,-7.38 -12.05,-5.66 -24.1,-11.35 -36.15,-16.82 -21.16,-72.04 -40.85,-164.36 -42.04,-260.63 9.41,4.55 18.83,9.03 28.24,13.53 4.89,2.33 9.77,4.69 14.66,7.01"
         style="fill:#211c1d;fill-opacity:1;fill-rule:nonzero;stroke:none"
         id="path174" />
      <path
         d="m 3586.83,3900.78 -5.19,11.08 c -24.85,53.16 -37.38,110.36 -41.73,167.67 -5.14,-2.47 -10.25,-5 -15.37,-7.49 -8.47,-4.11 -16.95,-8.21 -25.41,-12.37 5.35,-52.6 17.4,-105.06 39.02,-154.78 -51.85,-80.02 -77.22,-184.15 -69.79,-287.85 0.89,-12.2 2.32,-24.24 4.11,-36.14 1.01,-6.66 2.33,-13.19 3.61,-19.74 4.26,-21.8 10.03,-42.93 17.26,-63.25 2.81,-7.92 5.86,-15.68 9.11,-23.33 14.81,-34.92 33.79,-67.11 57.01,-95.11 -25.31,-25.54 -44.69,-55.12 -57.76,-87.44 -1.92,-4.76 -3.47,-9.67 -5.12,-14.55 -5.18,-15.36 -8.99,-31.25 -11.33,-47.61 -0.84,-5.88 -1.77,-11.73 -2.23,-17.71 -0.72,-9.24 -1,-18.59 -0.8,-28.04 1.09,-56.14 19.17,-112.1 49.49,-157.43 4.42,-10.56 9.6,-20.75 15.26,-30.66 -33.97,-53.87 -49.48,-113.87 -45.6,-176.25 l 39.4,33.76 3.34,2.86 c 0.26,3.49 0.73,6.94 1.13,10.4 3.6,31.57 13.02,62.11 28.44,90.85 6.09,11.35 13.05,22.44 20.99,33.18 l 10.84,14.66 -12.83,12.94 c -37.32,37.67 -61.46,92.09 -66.73,148.37 -0.57,6.05 -1.11,12.1 -1.23,18.17 -0.03,1.46 0.15,2.87 0.14,4.32 -0.06,18.32 2.09,36.11 6.06,53.29 0.13,0.56 0.22,1.14 0.36,1.71 1.27,5.32 2.47,10.68 4.12,15.87 10.23,32.19 27.74,61.5 51.64,86.5 5.05,5.28 10.29,10.44 15.92,15.32 l 16.73,14.49 -15.14,16.12 c -8.04,8.57 -15.47,17.81 -22.57,27.36 -7.47,10.04 -14.3,20.66 -20.68,31.68 -13.21,22.79 -24.27,47.36 -32.54,73.59 -2.17,6.89 -3.97,13.98 -5.78,21.05 -6.08,23.74 -10.36,48.39 -12.21,73.84 -6.97,97.14 18.86,198.3 69.08,270.62 l 6.98,10.05"
         style="fill:#211c1d;fill-opacity:1;fill-rule:nonzero;stroke:none"
         id="path176" />
      <path
         d="m 5117.69,4410.64 c -0.9,29.03 -7.22,73.93 -22.96,117.45 -7.65,21.07 -16.76,40.07 -27.19,56.76 214.51,160.77 129.09,364.47 44.78,505.15 -32.95,54.86 -70.27,107.4 -106.85,158.58 2.21,98.89 -25.34,205.68 -77.96,301.58 -50.25,91.43 -119.35,164.36 -191.07,202.1 -15.72,151.77 -160.94,310.64 -295.88,388.19 -33.12,76.58 -88.99,136.05 -157.47,179.23 -32.56,21.48 -68.73,38.44 -106.9,51.19 -117.28,41.12 -252.15,46.3 -371.26,17.62 -92.43,5.41 -176.2,-38.5 -230.59,-120.65 -4.5,-6.81 -8.72,-13.85 -12.74,-21.04 -54.53,-97.29 -65.04,-227.32 -27.73,-354.15 -8.71,-52.95 -13.24,-114.54 -12.02,-177.26 0.1,-5.42 0.3,-10.85 0.49,-16.29 0.59,-16.63 1.6,-33.25 3.06,-49.81 0.49,-5.65 1,-11.29 1.6,-16.91 7.77,-72.52 24.37,-142.1 52.58,-196.82 -6.16,-6.69 -12,-13.61 -17.69,-20.65 -3,-3.71 -5.81,-7.54 -8.68,-11.34 -8.58,-11.35 -16.67,-23.04 -24.14,-35.15 -2.48,-4.02 -4.86,-8.09 -7.22,-12.19 -142.58,-247.42 -70.16,-635.14 43.8,-867.54 9.07,4.35 18.07,8.81 27.07,13.26 3.72,1.83 7.47,3.61 11.17,5.47 -106.3,217.14 -177.86,594.31 -45.2,827.05 2.34,4.1 4.65,8.24 7.12,12.25 7.47,12.14 15.63,23.77 24.3,35.01 2.91,3.77 5.8,7.56 8.84,11.22 6.94,8.33 14.15,16.46 21.83,24.2 l 11.48,11.59 -8.2,14.09 c -4.53,7.77 -8.66,16.09 -12.62,24.62 -9.31,20.1 -17.08,42.11 -23.45,65.52 -6.49,23.85 -11.62,49.01 -15.37,74.97 -0.84,5.79 -1.69,11.57 -2.4,17.42 -2.02,16.69 -3.45,33.61 -4.48,50.61 -0.33,5.52 -0.68,11.02 -0.92,16.54 -2.97,69.64 1.78,139.47 11.79,197.91 l 0.85,4.96 -1.47,4.81 c -5.18,17.04 -9.34,34.13 -12.66,51.17 0.08,0.52 0.16,1.08 0.24,1.59 -0.52,1.71 -0.95,3.47 -1.45,5.2 -19.21,106.35 -2.59,210.23 47.67,286.23 13.27,20.05 28.36,37.26 44.92,51.58 38.15,33 84.21,50.47 134.73,50.47 5.25,0 10.54,-0.19 15.86,-0.57 l 3.35,-0.23 3.25,0.8 c 216.5,53.36 489.58,-12.07 584.62,-212 2.65,-5.57 5.22,-11.19 7.59,-16.97 l 2.82,-6.89 6.51,-3.63 c 10.42,-5.8 20.91,-12.29 31.41,-19.08 121.04,-78.28 242.75,-219.15 250.14,-350.43 l 0.72,-12.63 11.42,-5.39 c 67.75,-32.1 134.49,-101.24 183.11,-189.71 50.28,-91.62 76.02,-193.49 72.52,-286.85 l -0.01,-7.62 4.22,-5.91 c 37.16,-51.98 75.57,-105.73 108.89,-161.2 106.61,-177.87 113.06,-303.56 16.4,-405.21 -14.89,-11.94 -31.68,-23.59 -50.59,-34.92 -6.72,-4.03 -11.49,-10.3 -13.73,-17.31 -0.35,-0.96 -0.88,-1.89 -1.26,-2.84 -0.19,-0.13 -0.36,-0.26 -0.55,-0.39 l -18.43,-12.69 7.61,-9.93 6.02,-7.83 c 11.11,-14.48 20.78,-32.15 29.01,-52.32 1.5,-3.66 3.03,-7.23 4.42,-11.06 10.83,-29.97 16.57,-60.26 19.02,-84.29 1.06,-10.44 1.57,-19.81 1.49,-27.26 l -0.08,-8.9 6.27,-6.31 c 7.21,-7.24 14.12,-14.81 20.84,-22.55 86.54,-99.48 132.59,-237.81 121.1,-368.43 -10.13,-114.92 -64.09,-212.2 -151.97,-273.88 l -12.35,-8.66 3.7,-13.09 0.4,-1.42 c 5.65,-20.01 8.15,-40.66 8.43,-61.43 1.54,-117.71 -78.46,-239.34 -189.67,-271.32 l -12.8,-3.68 -2.27,-13.14 c -16.4,-94.99 -76.08,-165.97 -168.03,-199.84 l -16.63,-6.12 3.04,-17.46 c 18.06,-103.87 -22,-209.49 -107.15,-282.55 -86.28,-73.97 -199.21,-99.48 -302.09,-68.18 l -19.14,5.81 -6.97,-18.75 c -27.56,-74.12 -88.67,-121.4 -181.79,-140.73 -6.27,-1.3 -12.68,-2.47 -19.25,-3.52 l -11.12,-1.79 -4.77,-10.18 c -4.48,-9.56 -9.59,-18.26 -14.99,-26.57 -26.59,-40.93 -63.93,-66.76 -109.68,-74.82 -71.6,-12.6 -158.43,19.76 -221.39,82.48 l -3.15,2.59 c -4.72,3.17 -9.34,6.46 -13.87,9.84 -2.39,-1.51 -4.97,-3.03 -7.39,-4.54 -10.25,-6.36 -20.59,-12.73 -31.26,-19.15 8.7,-7.11 17.72,-13.92 27.13,-20.31 62.26,-61.32 142.49,-96.19 217.55,-96.19 13.47,0 26.77,1.12 39.77,3.41 0.52,0.1 0.99,0.26 1.51,0.36 12.2,1.7 24.03,4.99 35.29,9.96 48.45,18.05 87.44,53.47 114.01,104.79 106.41,19.5 178.89,70.38 215.81,151.51 100.05,-24.37 206.37,-2.85 293.74,58.74 3.85,2.71 7.72,5.39 11.49,8.26 2.93,2.23 5.76,4.62 8.63,6.93 1.82,1.49 3.7,2.88 5.49,4.41 0.12,0.1 0.23,0.21 0.35,0.32 1.24,1.04 2.53,1.99 3.77,3.05 91.98,78.92 137.5,191.8 123.88,304.9 93.63,39.78 155.71,114.68 176.63,213.28 142.66,48.93 235.01,217.3 201.47,366.7 91.28,69.24 147.21,173.85 157.99,296.25 13.2,150.04 -43.4,309.53 -148.06,418.49"
         style="fill:#211c1d;fill-opacity:1;fill-rule:nonzero;stroke:none"
         id="path178" />
      <path
         d="m 3131.75,6707.41 c 2.79,-3.07 28.17,-30.17 58.76,-34.78 4.05,-0.6 8.71,-0.87 13.74,-0.87 27.81,0 66.72,8.06 75.39,9.94 l 113.39,24.51 -301.44,45.42 40.16,-44.22"
         style="fill:#ffffff;fill-opacity:1;fill-rule:nonzero;stroke:none"
         id="path180" />
      <path
         d="m 4483.9,4855.22 c -10.4,83.47 -50.01,167.95 -119.45,254.58 -15.19,18.95 -32,38.02 -50.06,57.19 -67.52,71.62 -154.85,144.83 -263.23,220.33 -9.62,6.69 -19.32,13.36 -29.1,19.98 -94.26,63.91 -205.58,131.2 -340.33,205.72 -10.09,5.59 -20.19,11.16 -30.26,16.65 -9.09,4.98 -18.06,9.77 -27.1,14.68 -14.71,7.98 -29.46,16.02 -44.06,23.85 0,0 0.46,-9.65 2.2,-25.53 0.04,-0.31 0.07,-0.61 0.11,-0.91 0.33,-3.04 0.71,-6.24 1.14,-9.71 0.58,-5 1.11,-10.03 1.78,-15 0.11,-0.05 0.22,-0.11 0.32,-0.17 7.47,-50.09 24.59,-127.29 63,-187.28 0,0 -51.7,-54.55 -71.02,-90.16 4.73,-2.88 9.38,-5.75 14.05,-8.63 2.3,-1.42 4.67,-2.85 6.94,-4.26 10.11,-6.3 19.99,-12.57 29.64,-18.77 33.26,-21.43 64.11,-42.67 92.75,-63.71 17.68,-13 34.55,-25.91 50.45,-38.74 71.54,-57.68 125.02,-113.6 159.61,-167.09 8.94,-13.82 16.77,-27.73 23.28,-41.29 3.64,-7.62 6.8,-15.16 9.75,-22.67 8.23,-20.91 13.62,-41.39 16.47,-61.58 5.47,-38.77 1.35,-76.44 -12.9,-113.71 -17.47,-45.68 -48.94,-88.11 -89.87,-127.63 -16.89,-16.31 -35.48,-32.08 -55.3,-47.41 -6.18,-4.77 -12.47,-9.5 -18.9,-14.18 -53.92,-39.32 -116.03,-75.44 -181.05,-108.62 -4.21,-2.15 -8.41,-4.29 -12.64,-6.41 -3.71,-1.86 -7.48,-3.62 -11.2,-5.47 -12.24,-6.06 -24.5,-12.12 -36.86,-17.98 -6.03,-2.87 -12.07,-5.71 -18.11,-8.53 -74.69,-34.8 -150.09,-66.13 -218.32,-94.47 -9.83,-4.08 -19.3,-8.02 -28.75,-11.96 -2.23,-0.93 -4.58,-1.9 -6.81,-2.83 -4.39,-1.84 -8.74,-3.65 -13.05,-5.46 -13.36,-5.59 -26.28,-11.05 -38.78,-16.4 -0.27,-0.11 -0.56,-0.23 -0.82,-0.35 -4.45,-1.9 -8.83,-3.79 -13.16,-5.67 -34.96,-15.13 -66.13,-29.38 -92.2,-43.01 -61.06,-31.92 -152.03,-79.53 -235.51,-138.54 -17.27,-12.21 -34.19,-24.9 -50.48,-38.05 -77.92,-62.88 -140.86,-136.08 -152.58,-215.57 -0.09,-0.58 -0.24,-1.16 -0.32,-1.75 -2.87,-20.82 -2.05,-41.3 2.31,-61.39 9.14,-42.07 34.01,-82.44 74.5,-120.57 24.13,-22.73 87.08,-58.88 174.21,-108.89 7.33,-4.21 14.98,-8.61 22.63,-13.01 19.24,-11.06 39.41,-22.72 60.29,-34.88 58.73,-34.23 122.75,-72.5 186.48,-113.62 0,0 9.99,12.76 22.04,36.02 0.05,0.09 0.1,0.17 0.15,0.26 -0.01,0 -0.01,0 -0.01,0 23.31,45.09 54.35,130.04 36.9,242.98 -62.47,55.8 -106.04,109.55 -100.24,149.35 2.23,15.28 13.8,28.76 28.94,41.1 7.11,5.81 14.99,11.36 23.13,16.72 1.02,0.67 2.01,1.36 3.04,2.02 2.9,1.89 5.9,3.64 8.82,5.51 15.39,9.87 30.86,19.63 46.56,29.08 5.79,3.49 11.73,6.78 17.56,10.21 5.27,3.11 10.64,6.08 15.94,9.14 54.79,31.66 110.99,61.27 167.85,89.4 4.5,2.23 8.98,4.47 13.49,6.68 8.7,4.27 17.42,8.46 26.13,12.67 5.01,2.42 10,4.88 15.01,7.28 4.62,2.21 9.24,4.43 13.86,6.63 11.11,5.29 22.2,10.45 33.31,15.68 34.62,16.29 69.22,32.39 103.56,48.24 104.32,48.13 212.2,97.9 315.02,153.48 l 8.02,4.33 c 2.03,1.09 4.13,2.23 6.18,3.34 52.63,28.44 111.82,60.65 170.02,97.34 31.47,19.85 62.61,40.98 92.25,63.56 48.09,36.64 92.06,77.06 126.93,121.69 55.29,70.77 87.56,152.14 75.85,246.17"
         style="fill:#211c1d;fill-opacity:1;fill-rule:nonzero;stroke:none"
         id="path182" />
      <path
         d="m 3986.55,3018.92 c -10.57,38.02 -29.63,78.41 -57.1,121.4 -10.86,17 -22.91,34.36 -36.46,52.2 -48.09,63.3 -113.2,132.06 -196.07,207.19 -9.31,8.43 -18.7,16.83 -28.17,25.17 -20.24,17.89 -54.21,41.87 -94.71,69.56 -8.25,5.64 -16.67,11.37 -25.42,17.3 11.09,-29.79 25.67,-57.28 43.53,-81.64 0.04,-0.03 0.07,-0.05 0.1,-0.08 13.01,-20.44 28.35,-41.53 45.39,-59.14 0,0 -75.55,-53.54 -94.72,-138.37 v 0 c -0.01,-0.06 -0.02,-0.12 -0.03,-0.18 -3.25,-14.47 -4.65,-29.9 -3.96,-46.08 0,-0.33 -0.04,-0.65 -0.04,-0.98 0.09,-4.3 0.55,-8.57 0.87,-12.85 12.1,-14.13 22.98,-28.01 32.63,-41.63 4.59,-6.46 8.98,-12.88 12.94,-19.21 9.07,-14.47 16.76,-28.84 22.86,-42.66 11.74,-26.62 17.93,-52.06 18.81,-76.52 1.69,-47.1 -16.69,-90.51 -55.59,-131.28 l -13.64,-11.69 -14.35,-12.29 -8.71,-7.46 -31.66,-27.12 -12.89,-11.04 -208.94,-178.98 -10.22,-8.75 -218.95,-186.33 -192.69,-163.98 77.55,13.95 c 17.5,3.16 157.43,56.05 322.32,131.38 l 286.07,143.61 c 18.63,10.38 36.55,20.67 54.01,30.9 2.58,1.51 5.26,3.03 7.81,4.54 4.33,2.55 8.52,5.08 12.77,7.63 11.3,6.75 22.29,13.47 33.1,20.16 1.65,1.02 3.42,2.06 5.05,3.08 4.31,2.68 8.5,5.35 12.72,8.03 49.36,31.25 92.96,61.74 130.99,91.48 17.86,13.96 34.47,27.76 49.82,41.38 61.03,54.15 102.28,105.59 123.52,154.13 11.34,25.93 16.94,51.02 16.87,75.28 -0.05,13.56 -1.79,26.86 -5.41,39.89"
         style="fill:#211c1d;fill-opacity:1;fill-rule:nonzero;stroke:none"
         id="path184" />
    </g>
  </g>
</svg>
